{"glyphs":{"0":{"ha":1000,"x_min":79,"x_max":944,"o":"m 86 425 q 106 601 89 463 q 115 817 124 740 q 215 990 169 911 q 399 1086 314 1056 q 581 1100 485 1117 q 635 1090 596 1097 q 694 1078 675 1082 q 746 1063 713 1074 q 799 1039 779 1051 q 843 1006 819 1026 q 883 958 867 986 q 915 857 871 892 q 886 340 944 640 q 795 120 861 208 q 613 -14 729 32 q 528 -13 583 -14 q 446 -12 472 -12 q 146 92 257 -25 q 86 425 81 251 m 667 944 q 574 957 617 954 q 485 954 532 960 q 395 924 438 949 q 319 857 353 899 q 292 813 301 832 q 288 770 283 794 q 314 724 292 746 q 313 692 314 707 q 224 461 242 606 q 261 228 207 317 q 295 188 276 204 q 338 165 314 172 q 381 153 361 157 q 431 151 400 149 q 478 155 461 153 q 529 161 496 157 q 546 164 540 163 q 738 351 731 199 q 763 524 740 407 q 786 707 786 642 q 783 789 788 753 q 765 858 778 825 q 728 914 753 892 q 667 944 703 936 z "},"1":{"ha":793,"x_min":57,"x_max":719,"o":"m 697 629 q 718 238 671 465 q 690 190 694 219 q 690 137 685 161 q 688 83 694 113 q 658 21 676 42 q 601 0 640 0 q 545 23 558 0 q 533 92 532 46 q 544 663 535 143 q 533 781 538 736 q 539 808 542 793 q 559 858 556 838 q 548 887 563 878 q 492 883 533 896 q 457 867 475 879 q 417 838 439 856 q 385 811 396 819 q 346 792 363 807 q 322 765 329 778 q 305 727 315 753 q 289 692 294 701 q 219 664 224 665 q 213 661 217 663 q 174 644 188 649 q 140 636 161 639 q 103 643 119 633 q 72 675 86 653 q 60 708 61 693 q 66 735 58 722 q 83 756 74 747 q 106 777 92 765 q 126 797 119 789 q 182 868 131 801 q 468 1056 339 938 q 642 1096 563 1142 q 692 1034 682 1072 q 700 938 703 996 q 689 842 699 913 q 681 724 679 772 q 697 629 682 675 z "},"2":{"ha":929,"x_min":39,"x_max":890,"o":"m 247 892 q 234 876 243 886 q 221 861 225 867 q 208 849 217 856 q 193 841 200 843 q 176 839 186 839 q 153 844 165 839 q 161 947 147 901 q 210 1028 175 993 q 278 1085 244 1063 q 365 1133 313 1107 q 849 874 688 1182 q 728 533 889 657 q 610 494 682 514 q 487 462 539 475 q 374 416 435 449 q 269 333 313 383 q 253 314 258 321 q 239 296 247 307 q 226 277 231 285 q 217 259 222 269 q 211 240 213 249 q 210 219 210 231 q 213 196 210 207 q 231 156 218 171 q 264 134 244 140 q 301 126 283 128 q 343 125 318 124 q 533 131 382 125 q 767 135 685 136 q 837 119 817 133 q 853 80 857 104 q 846 24 850 56 q 675 8 772 6 q 504 18 578 10 q 333 18 431 26 q 240 0 281 35 q 197 1 225 0 q 156 3 168 3 q 78 167 39 57 q 151 389 83 182 q 204 433 165 400 q 263 483 243 467 q 318 517 283 499 q 386 544 353 536 q 428 553 396 546 q 474 563 461 560 q 514 573 486 565 q 558 586 542 581 q 597 601 575 592 q 639 621 619 610 q 753 799 754 682 q 639 957 753 904 q 427 997 525 1011 q 247 892 329 982 z "},"3":{"ha":878,"x_min":51,"x_max":886,"o":"m 200 444 q 171 483 176 460 q 173 545 165 506 q 181 596 181 585 q 262 665 204 618 q 358 752 319 713 q 425 838 397 792 q 442 849 426 839 q 460 860 457 858 q 478 872 464 863 q 496 885 492 882 q 513 898 500 889 q 531 913 525 907 q 548 928 538 919 q 565 946 558 938 q 581 965 572 954 q 599 986 590 975 q 533 985 567 979 q 472 1000 499 990 q 415 1008 446 1010 q 357 986 383 1006 q 294 983 332 1000 q 246 968 256 967 q 217 969 222 968 q 189 972 211 969 q 158 979 167 975 q 136 992 150 983 q 115 1014 122 1000 q 106 1046 108 1028 q 108 1088 103 1072 q 128 1110 113 1104 q 155 1117 143 1115 q 190 1116 167 1118 q 221 1114 213 1114 q 437 1114 293 1115 q 653 1113 581 1113 q 708 1106 686 1114 q 740 1072 729 1097 q 713 964 765 1019 q 650 897 683 931 q 570 819 617 864 q 506 754 524 774 q 503 692 431 711 q 544 687 531 688 q 588 690 557 686 q 631 693 618 693 q 678 674 647 686 q 721 658 708 663 q 721 143 886 382 q 665 88 710 132 q 604 28 621 43 q 548 -24 588 13 q 483 -78 508 -61 q 419 -122 457 -96 q 345 -165 382 -147 q 268 -196 308 -182 q 54 -189 149 -236 q 65 -131 51 -153 q 101 -101 78 -110 q 149 -86 124 -92 q 197 -69 174 -81 q 229 -36 219 -57 q 239 -12 239 -26 q 448 83 354 14 q 639 260 542 151 q 700 338 682 292 q 713 428 718 385 q 689 506 708 471 q 597 575 665 550 q 464 588 529 600 q 381 549 433 582 q 308 507 329 515 q 281 486 296 501 q 257 459 267 471 q 231 440 247 447 q 200 444 215 433 z "},"4":{"ha":1117,"x_min":69,"x_max":1050,"o":"m 356 339 q 275 351 306 354 q 194 342 244 349 q 114 339 144 335 q 76 421 83 381 q 85 498 69 461 q 119 564 100 535 q 165 628 139 593 q 203 688 192 664 q 326 1049 286 858 q 382 1183 344 1133 q 444 1169 422 1182 q 472 1136 467 1157 q 476 1093 476 1115 q 474 1044 475 1071 q 481 1001 474 1017 q 437 882 465 961 q 390 754 408 803 q 338 642 371 706 q 265 529 304 578 q 254 490 247 508 q 289 463 261 471 q 549 501 443 418 q 647 743 654 583 q 635 792 647 756 q 631 843 624 828 q 635 892 640 867 q 628 947 631 918 q 628 999 626 975 q 651 1040 629 1022 q 717 1065 672 1058 q 781 971 778 1033 q 757 581 739 733 q 792 485 764 515 q 886 476 821 456 q 974 471 928 489 q 1004 466 981 468 q 1038 455 1028 464 q 1047 421 1049 446 q 1028 376 1046 392 q 981 349 1011 361 q 893 347 942 335 q 778 340 815 367 q 754 228 742 314 q 758 163 758 183 q 755 98 758 143 q 750 32 751 53 q 743 13 740 25 q 671 0 699 -4 q 631 16 643 4 q 615 51 619 28 q 609 97 610 75 q 605 144 608 119 q 592 183 601 169 q 621 275 600 210 q 596 335 631 315 q 536 357 569 354 q 476 351 503 360 q 416 338 449 343 q 356 339 383 333 q 356 339 356 339 z "},"5":{"ha":917,"x_min":56,"x_max":843,"o":"m 221 -182 q 164 -200 188 -196 q 113 -196 140 -204 q 64 -161 85 -187 q 56 -111 58 -125 q 185 -40 107 -78 q 323 24 263 -3 q 453 97 383 51 q 571 199 522 143 q 602 232 583 213 q 633 265 621 251 q 661 296 646 278 q 685 331 676 314 q 699 366 693 347 q 703 406 704 385 q 694 451 703 428 q 650 528 679 499 q 585 566 621 557 q 504 577 549 575 q 413 572 460 579 q 339 558 386 571 q 259 540 292 546 q 184 543 226 533 q 108 588 142 553 q 109 602 108 592 q 110 617 110 613 q 110 708 110 663 q 99 785 108 725 q 91 883 89 844 q 114 958 93 921 q 138 990 133 972 q 141 1034 143 1008 q 140 1071 139 1060 q 175 1113 142 1074 l 176 1113 l 178 1113 l 179 1113 l 181 1113 l 182 1113 l 183 1113 l 185 1113 l 186 1113 l 188 1113 l 189 1111 l 190 1111 l 192 1111 l 193 1111 l 194 1111 l 196 1111 l 197 1111 l 199 1111 l 200 1111 l 201 1111 l 203 1111 l 204 1111 l 206 1111 l 207 1111 l 208 1111 l 210 1111 l 211 1111 l 213 1111 l 214 1111 l 215 1111 l 217 1111 l 218 1111 l 219 1111 l 221 1111 l 222 1111 l 224 1111 l 225 1111 l 226 1111 l 228 1111 l 229 1111 l 231 1111 l 232 1111 l 233 1111 l 235 1111 l 236 1111 l 238 1111 l 239 1111 l 240 1111 l 242 1111 l 243 1111 l 244 1111 l 246 1111 l 247 1111 l 249 1111 l 250 1111 l 251 1111 l 253 1111 l 254 1111 l 256 1111 l 257 1111 l 258 1111 l 260 1111 l 261 1111 l 263 1111 l 264 1111 l 265 1111 l 267 1111 l 268 1111 l 269 1111 l 271 1111 l 272 1111 l 274 1111 l 275 1111 l 276 1111 l 278 1111 l 279 1111 l 281 1111 l 282 1111 l 283 1111 l 285 1111 l 286 1111 l 288 1111 l 289 1111 l 290 1111 l 292 1111 l 293 1111 l 294 1111 l 296 1111 l 297 1111 l 299 1111 l 300 1111 l 301 1111 l 303 1111 l 304 1111 l 306 1111 l 307 1110 l 308 1110 l 310 1110 l 311 1110 l 313 1110 l 314 1110 l 315 1110 l 317 1110 l 318 1110 l 319 1110 l 321 1110 l 322 1110 l 324 1110 l 325 1110 l 326 1110 l 328 1110 l 329 1110 l 331 1110 l 332 1110 l 333 1110 l 335 1110 l 336 1110 l 338 1110 l 339 1110 l 340 1110 l 342 1110 l 343 1110 l 344 1110 l 346 1110 l 347 1110 l 349 1110 l 350 1110 l 351 1110 l 353 1110 l 354 1110 l 356 1110 l 357 1110 l 358 1110 l 360 1110 l 361 1110 l 363 1110 l 364 1110 l 365 1110 l 367 1110 l 368 1110 l 369 1110 l 371 1110 l 372 1110 l 374 1110 l 375 1110 l 376 1110 l 378 1110 l 379 1110 l 381 1110 l 382 1110 l 383 1110 l 385 1110 l 386 1110 l 388 1110 l 389 1110 l 390 1110 l 392 1110 l 393 1110 l 394 1110 l 396 1110 l 397 1110 l 399 1110 l 400 1110 l 401 1110 l 403 1110 l 404 1110 l 406 1110 l 407 1110 l 408 1110 l 410 1110 l 411 1110 l 413 1110 l 414 1110 l 415 1110 l 417 1110 l 418 1110 l 419 1110 l 421 1110 l 422 1110 l 424 1110 l 425 1108 l 426 1108 l 428 1108 l 429 1108 l 431 1108 l 432 1108 l 433 1108 l 435 1108 l 436 1108 l 438 1108 l 439 1108 l 440 1108 l 442 1108 l 443 1108 l 444 1108 l 446 1108 l 447 1108 l 449 1108 l 450 1108 l 451 1108 l 453 1108 l 454 1108 l 456 1108 l 457 1108 l 458 1108 l 460 1108 l 461 1108 l 463 1108 l 464 1108 l 465 1108 l 467 1108 l 468 1108 l 469 1108 l 471 1108 l 472 1108 l 474 1108 l 475 1108 l 476 1108 l 478 1108 l 479 1108 l 481 1108 l 482 1108 l 483 1108 l 485 1108 l 486 1108 l 488 1108 l 489 1108 l 490 1108 l 492 1108 l 493 1108 l 494 1108 l 496 1108 l 497 1108 l 499 1108 l 500 1108 l 501 1108 l 503 1108 l 504 1108 l 506 1108 l 507 1108 l 508 1108 l 510 1108 l 511 1108 l 513 1108 l 514 1108 l 515 1108 l 517 1108 l 518 1108 l 519 1108 l 521 1108 l 522 1108 l 524 1108 l 525 1108 l 526 1108 l 528 1108 l 529 1108 l 531 1108 l 532 1108 l 533 1108 l 535 1108 l 536 1108 l 538 1108 l 539 1108 l 540 1108 l 542 1108 l 543 1108 l 544 1107 l 546 1107 l 547 1107 l 549 1107 l 550 1107 l 551 1107 l 553 1107 l 554 1107 l 556 1107 l 557 1107 l 558 1107 l 560 1107 l 561 1107 l 563 1107 l 564 1107 l 565 1107 l 567 1107 l 568 1107 l 569 1107 l 571 1107 l 572 1107 l 574 1107 l 575 1107 l 576 1107 l 578 1107 l 579 1107 l 581 1107 l 582 1107 l 583 1107 l 585 1107 l 586 1107 l 588 1107 l 589 1107 l 590 1107 l 592 1107 l 593 1107 l 594 1107 l 596 1107 l 597 1107 l 599 1107 l 600 1107 l 601 1107 l 603 1107 l 604 1107 l 606 1107 l 607 1107 l 608 1107 l 610 1107 l 611 1107 l 613 1107 l 614 1107 l 615 1107 l 617 1107 l 618 1107 l 619 1107 l 621 1107 l 622 1107 l 624 1107 l 625 1107 l 626 1107 l 628 1107 l 629 1107 l 631 1107 l 632 1107 l 633 1107 l 635 1107 l 636 1107 l 638 1107 l 639 1107 l 640 1107 l 642 1107 l 643 1107 l 644 1107 l 646 1107 l 647 1107 l 649 1107 l 650 1107 l 651 1107 l 653 1107 l 654 1107 l 656 1107 l 658 1107 q 718 1097 694 1101 q 733 1068 725 1086 q 738 993 754 1021 q 671 986 722 965 q 567 1006 625 1003 q 463 1006 508 1010 q 360 1011 418 1003 q 319 1015 338 1014 q 285 1011 300 1015 q 260 1003 271 1007 q 240 989 249 999 q 226 972 232 979 q 217 949 221 964 q 210 926 213 935 q 208 899 208 917 q 207 870 207 881 q 206 840 207 860 q 206 826 206 831 q 244 710 206 739 q 372 694 282 682 q 560 706 481 713 q 694 676 640 700 q 781 599 749 653 q 828 470 814 546 q 842 283 843 394 q 772 196 815 239 q 688 122 728 153 q 605 47 649 90 q 536 -40 561 3 q 521 -58 531 -47 q 507 -75 511 -69 q 221 -182 246 -172 z "},"6":{"ha":1042,"x_min":-29,"x_max":965,"o":"m 960 478 q 962 431 960 471 q 964 381 964 392 q 963 335 964 369 q 959 285 963 300 q 949 242 956 271 q 932 197 943 214 q 905 158 921 179 q 867 119 889 138 q 357 32 647 -61 q 267 101 303 72 q 203 169 246 124 q 139 236 160 214 q 267 1040 -29 696 q 317 1063 300 1054 q 356 1092 335 1072 q 389 1138 378 1113 q 422 1149 400 1142 q 456 1160 444 1157 q 478 1168 469 1161 q 558 1178 522 1182 q 640 1178 594 1174 q 717 1204 685 1182 q 790 1190 763 1204 q 827 1152 818 1176 q 838 1097 836 1128 q 835 1031 840 1065 q 800 1029 818 1031 q 760 1027 782 1028 q 725 1025 738 1026 q 636 1060 679 1053 q 550 1051 593 1067 q 476 1017 507 1036 q 399 965 444 999 q 342 933 369 956 q 299 893 314 911 q 261 844 285 875 q 221 764 232 807 q 228 681 210 721 q 256 657 239 661 q 288 659 274 653 q 326 676 303 665 q 360 689 349 686 q 478 717 426 708 q 592 726 529 726 q 713 710 656 726 q 768 674 725 701 q 830 633 811 647 q 878 594 849 619 q 928 540 908 568 q 960 478 947 511 m 292 490 q 281 485 288 488 q 246 467 257 474 q 224 448 235 461 q 224 419 214 435 q 261 383 233 404 q 298 265 265 319 q 378 183 331 211 q 484 149 426 156 q 596 174 542 143 q 691 174 649 157 q 778 236 733 192 q 806 268 796 249 q 826 315 817 288 q 842 356 836 343 q 840 394 840 364 q 833 442 840 424 q 807 472 826 460 q 535 592 721 588 q 325 539 399 603 q 292 490 290 535 z "},"7":{"ha":946,"x_min":63,"x_max":886,"o":"m 165 710 q 94 719 118 707 q 67 753 69 732 q 65 799 64 774 q 72 850 67 825 q 68 894 78 875 q 92 958 85 939 q 114 1008 99 978 q 134 1048 129 1038 q 156 1076 139 1058 q 181 1097 174 1093 q 213 1108 188 1100 q 250 1115 238 1115 q 299 1114 263 1114 q 360 1112 336 1114 q 436 1104 383 1110 q 576 1101 475 1101 q 749 1090 678 1101 q 883 1046 819 1079 q 876 897 886 979 q 857 770 867 815 q 825 625 847 725 q 810 619 817 622 q 797 612 803 615 q 788 602 792 608 q 780 592 783 596 q 774 580 776 589 q 771 568 772 571 q 769 554 769 565 q 767 541 768 543 q 767 526 767 539 q 765 513 767 514 q 708 458 758 506 q 633 386 658 411 q 579 269 597 308 q 558 258 565 269 q 519 243 536 253 q 489 218 501 233 q 469 192 476 203 q 454 158 461 181 q 445 124 447 135 q 438 86 443 114 q 431 50 432 58 q 392 -39 401 11 q 383 -151 383 -89 q 374 -246 382 -212 q 255 -260 293 -287 q 231 -147 217 -232 q 239 -59 233 -124 q 255 51 244 6 q 288 135 265 96 q 315 186 301 161 q 350 241 329 211 q 382 287 371 271 q 422 338 393 303 q 456 382 450 374 q 498 432 463 390 q 536 476 533 474 q 570 515 544 486 q 607 558 596 544 q 638 599 618 572 q 668 645 657 625 q 690 692 679 665 q 707 746 701 718 q 739 829 726 796 q 757 891 751 863 q 765 937 763 919 q 757 967 767 954 q 740 987 747 981 q 705 997 732 993 q 659 1003 678 1001 q 597 1006 640 1004 q 540 1008 561 1007 q 378 990 471 1011 q 194 872 204 1072 q 190 722 193 865 q 165 710 175 721 z "},"8":{"ha":968,"x_min":78,"x_max":897,"o":"m 297 1093 q 419 1101 332 1093 q 568 1104 506 1108 q 688 1074 631 1100 q 775 1029 699 1068 q 785 1014 779 1024 q 794 999 792 1004 q 829 910 815 946 q 833 835 831 885 q 836 763 835 786 q 804 730 826 753 q 765 690 782 707 q 731 658 747 674 q 710 638 717 646 q 700 621 703 631 q 705 602 697 611 q 732 583 713 593 q 794 533 767 567 q 847 459 821 499 q 897 399 872 419 q 892 319 894 350 q 880 244 889 288 q 856 172 871 201 q 813 112 840 143 q 749 58 786 81 q 708 42 735 53 q 661 24 682 31 q 621 14 640 17 q 492 1 549 4 q 377 3 436 -1 q 275 22 318 7 q 193 67 232 38 q 130 142 154 97 q 92 251 106 186 q 79 399 79 315 l 81 400 q 204 576 121 511 q 240 615 229 597 q 250 644 250 632 q 236 669 250 656 q 211 689 222 682 q 175 708 200 696 q 144 781 146 743 q 157 869 143 819 q 172 943 171 919 q 233 1017 192 968 q 297 1093 275 1067 m 356 943 q 272 887 296 922 q 268 792 247 851 q 340 720 304 749 q 417 676 375 692 q 506 665 458 661 q 606 696 554 669 q 649 714 631 701 q 675 740 667 726 q 687 774 683 753 q 690 809 690 796 q 690 847 690 822 q 689 879 689 871 q 684 910 689 896 q 673 934 679 924 q 653 954 667 944 q 631 969 639 964 q 603 981 622 974 q 577 990 583 988 q 549 997 571 992 q 525 1004 526 1003 q 519 1006 522 1004 q 485 1014 499 1011 q 449 1017 472 1017 q 409 1013 425 1018 q 378 990 393 1007 q 356 943 363 972 m 765 289 q 690 431 797 388 q 583 515 656 485 q 433 541 510 546 q 314 494 357 536 q 199 339 207 428 q 285 182 190 250 q 597 157 447 53 q 765 289 722 150 z "},"9":{"ha":992,"x_min":63,"x_max":928,"o":"m 492 1108 l 506 1108 l 519 1111 q 861 838 749 1067 q 915 406 928 667 q 884 303 886 375 q 861 203 882 231 q 851 188 858 197 q 699 -39 749 36 q 492 -167 590 -121 q 283 -215 394 -212 q 267 -189 278 -207 q 251 -161 257 -171 q 276 -131 257 -151 q 303 -94 294 -111 q 311 -54 313 -76 q 426 -49 374 -69 q 542 19 478 -28 q 619 106 588 54 q 679 225 650 157 q 731 328 708 293 q 774 367 760 338 q 772 406 788 396 q 744 420 757 418 q 721 414 732 422 q 703 399 710 406 q 687 376 697 392 q 672 353 676 360 q 641 351 661 353 q 611 350 621 350 q 401 303 442 311 q 390 339 400 328 q 367 350 379 350 q 336 347 356 350 q 307 344 317 344 q 257 380 281 361 q 210 424 233 399 q 173 467 188 450 q 133 519 158 485 q 96 567 107 553 q 81 638 92 586 q 63 717 69 689 q 135 893 93 819 q 249 1017 176 967 q 367 1061 285 1031 q 492 1108 449 1092 m 769 688 q 629 910 796 796 q 606 925 626 911 q 581 943 586 939 q 555 959 575 947 q 526 974 535 971 q 497 986 517 978 q 465 994 478 994 q 434 995 453 994 q 401 990 415 996 q 369 976 386 985 q 335 953 351 967 q 278 896 300 922 q 239 836 256 869 q 223 765 222 803 q 243 685 224 726 q 250 634 240 660 q 269 595 260 608 q 301 556 279 582 q 335 513 317 531 q 374 488 353 496 q 413 474 396 479 q 457 472 429 469 q 500 475 485 474 q 547 483 515 476 q 592 490 579 489 q 769 688 728 511 z "}," ":{"ha":488,"x_min":0,"x_max":0,"o":""},"!":{"ha":532,"x_min":33,"x_max":472,"o":"m 471 -300 q 467 -373 464 -340 q 464 -445 471 -406 q 432 -512 457 -485 q 319 -542 381 -539 q 214 -537 258 -546 q 103 -508 169 -528 q 79 -259 33 -349 q 282 -153 125 -169 q 350 -183 306 -164 q 408 -208 394 -201 q 439 -253 418 -222 q 471 -300 460 -283 m 233 -343 q 198 -351 215 -335 q 183 -383 181 -367 q 204 -423 188 -408 q 238 -442 221 -437 q 283 -451 256 -447 q 338 -414 333 -457 q 316 -387 331 -400 q 294 -370 301 -375 q 261 -354 286 -365 q 233 -343 236 -343 m 407 886 q 395 851 404 875 q 383 815 386 826 q 374 782 379 804 q 367 747 368 760 q 367 715 367 735 q 375 683 368 696 q 392 656 382 671 q 420 627 403 640 q 463 603 438 614 q 467 581 458 592 q 452 563 461 575 q 438 544 443 551 q 425 525 433 538 q 415 504 417 513 q 411 481 414 496 q 414 453 408 465 q 321 276 436 351 q 311 251 311 267 q 271 253 290 242 q 231 277 251 265 q 190 279 211 289 l 190 279 q 147 324 176 294 q 103 369 117 354 q 124 582 82 493 q 124 613 124 604 q 123 673 124 633 q 122 732 122 713 q 131 749 128 740 q 133 769 133 758 q 131 786 132 779 q 128 806 131 793 q 125 824 126 819 q 125 961 125 869 q 125 1099 125 1053 q 126 1127 125 1107 q 128 1158 128 1147 q 103 1221 143 1201 q 94 1311 131 1271 q 108 1394 108 1347 q 102 1479 108 1440 q 103 1563 96 1518 q 139 1642 111 1608 q 203 1681 167 1674 q 273 1681 240 1689 q 343 1668 306 1672 q 411 1671 381 1664 q 451 1671 447 1671 q 464 1525 461 1571 q 464 1397 397 1460 q 461 1374 464 1385 q 440 1349 444 1364 q 435 1312 435 1333 q 433 1281 435 1290 q 419 1274 425 1278 q 411 1261 414 1269 q 407 1249 408 1253 q 404 1234 406 1246 q 401 1221 403 1222 q 379 1160 368 1201 q 426 1071 414 1096 q 411 946 376 1017 q 407 886 408 904 z "},"\"":{"ha":969,"x_min":69,"x_max":900,"o":"m 382 1263 q 403 1211 388 1242 q 429 1158 418 1181 q 440 1106 440 1136 q 419 1046 439 1075 q 350 967 383 1006 q 313 949 325 954 q 279 938 300 943 q 240 940 258 932 q 204 965 222 947 l 203 967 l 201 968 l 200 968 l 199 969 l 197 971 l 196 971 l 194 972 l 193 974 l 192 975 l 190 975 l 189 976 l 188 978 l 186 978 l 185 979 l 183 981 l 182 981 l 181 982 l 179 983 l 178 983 l 176 985 l 175 986 l 174 988 l 172 988 l 171 989 l 169 990 l 168 990 l 167 992 l 165 993 l 164 994 l 163 994 l 161 996 l 160 997 l 158 997 l 157 999 l 156 1000 l 154 1001 l 153 1001 l 151 1003 l 150 1004 l 149 1004 l 147 1006 l 146 1007 l 144 1007 l 143 1008 l 142 1010 l 140 1010 l 139 1011 l 138 1013 l 136 1014 l 135 1014 l 133 1015 l 132 1017 l 131 1017 l 129 1018 l 128 1019 l 126 1019 l 125 1021 l 124 1022 l 122 1022 l 121 1024 l 119 1025 l 118 1026 l 117 1026 l 115 1028 l 114 1029 l 113 1029 l 111 1031 l 110 1032 l 108 1032 l 107 1033 l 106 1035 l 104 1035 l 103 1036 l 101 1038 l 100 1039 l 99 1039 l 97 1040 l 96 1042 l 94 1042 l 93 1043 l 92 1044 l 90 1044 l 89 1046 l 88 1047 l 86 1047 l 85 1049 l 83 1050 l 81 1051 q 75 1106 71 1076 q 90 1158 79 1135 q 107 1210 101 1181 q 104 1264 113 1239 q 104 1350 104 1297 q 132 1421 113 1372 q 158 1432 144 1431 q 181 1429 171 1433 q 203 1418 190 1425 q 225 1410 217 1411 l 229 1413 q 276 1363 251 1396 q 325 1301 300 1329 q 382 1263 350 1274 m 535 1021 q 597 1324 575 1219 q 741 1375 682 1389 q 844 1264 800 1361 q 900 1142 846 1260 q 894 1121 890 1132 q 867 1085 885 1108 q 839 1051 849 1063 q 810 1010 832 1042 q 778 960 789 978 q 724 939 750 942 q 674 945 697 936 q 631 967 651 954 q 587 994 611 979 q 543 1017 563 1010 q 535 1021 542 1018 m 571 1328 q 474 1325 525 1265 q 490 1333 478 1326 q 506 1343 501 1340 q 522 1349 511 1346 q 538 1350 532 1351 q 553 1344 544 1349 q 571 1328 563 1339 z "},"&":{"ha":1081,"x_min":72,"x_max":1028,"o":"m 263 35 q 122 172 171 82 q 79 371 72 263 q 150 572 86 479 q 196 667 186 625 q 193 776 206 708 q 303 1092 143 994 q 482 1135 396 1144 q 642 1065 568 1126 q 683 1012 669 1042 q 700 956 697 982 q 694 892 703 931 q 678 832 686 854 q 654 768 671 810 q 649 754 651 758 q 617 717 628 729 q 591 703 599 714 q 579 672 583 693 q 531 658 565 663 q 474 640 496 653 q 451 592 453 626 q 473 529 450 558 q 531 489 496 500 q 668 575 622 463 q 738 631 689 592 q 926 547 840 658 q 937 528 933 538 q 942 512 940 519 q 940 494 943 504 q 934 479 936 485 q 924 464 932 474 q 912 450 915 454 q 898 435 908 446 q 885 422 888 425 q 861 424 876 422 q 811 424 835 425 q 767 419 788 422 q 733 405 747 415 q 710 378 718 394 q 706 333 703 361 q 725 265 710 304 q 751 244 731 261 q 778 223 771 228 q 803 210 786 218 q 833 206 821 203 q 862 219 844 208 q 896 251 879 231 q 922 265 903 261 q 968 268 940 268 q 1008 269 996 268 q 941 63 1026 124 q 703 53 856 3 q 680 95 692 79 q 656 115 668 111 q 633 118 643 118 q 607 108 622 118 q 583 90 592 97 q 557 65 574 82 q 550 60 551 61 q 495 41 533 54 q 436 23 457 28 q 383 13 415 18 q 321 14 350 8 q 263 35 292 19 m 386 958 q 368 923 382 947 q 349 885 354 899 q 342 851 344 871 q 354 814 340 831 q 397 782 368 797 q 517 821 454 776 q 476 983 582 918 q 426 992 454 1000 q 386 958 397 985 m 324 463 q 238 428 268 474 q 211 332 208 383 q 228 271 213 297 q 272 226 243 244 q 324 196 300 207 q 388 171 349 185 q 463 208 432 179 q 481 268 493 236 q 475 283 479 272 q 456 330 463 314 q 434 373 449 346 q 406 415 419 400 q 371 444 393 429 q 324 463 349 458 z "},"'":{"ha":558,"x_min":92,"x_max":463,"o":"m 404 1263 q 425 1211 410 1242 q 451 1158 440 1181 q 462 1106 463 1136 q 442 1046 461 1075 q 372 967 406 1006 q 335 949 347 954 q 301 938 322 943 q 263 940 281 932 q 226 965 244 947 l 225 967 l 224 968 l 222 968 l 221 969 l 219 971 l 218 971 l 217 972 l 215 974 l 214 975 l 213 975 l 211 976 l 210 978 l 208 978 l 207 979 l 206 981 l 204 981 l 203 982 l 201 983 l 200 983 l 199 985 l 197 986 l 196 988 l 194 988 l 193 989 l 192 990 l 190 990 l 189 992 l 188 993 l 186 994 l 185 994 l 183 996 l 182 997 l 181 997 l 179 999 l 178 1000 l 176 1001 l 175 1001 l 174 1003 l 172 1004 l 171 1004 l 169 1006 l 168 1007 l 167 1007 l 165 1008 l 164 1010 l 163 1010 l 161 1011 l 160 1013 l 158 1014 l 157 1014 l 156 1015 l 154 1017 l 153 1017 l 151 1018 l 150 1019 l 149 1019 l 147 1021 l 146 1022 l 144 1022 l 143 1024 l 142 1025 l 140 1026 l 139 1026 l 138 1028 l 136 1029 l 135 1029 l 133 1031 l 132 1032 l 131 1032 l 129 1033 l 128 1035 l 126 1035 l 125 1036 l 124 1038 l 122 1039 l 121 1039 l 119 1040 l 118 1042 l 117 1042 l 115 1043 l 114 1044 l 113 1044 l 111 1046 l 110 1047 l 108 1047 l 107 1049 l 106 1050 l 103 1051 q 97 1106 93 1076 q 113 1158 101 1135 q 129 1210 124 1181 q 126 1264 135 1239 q 126 1350 126 1297 q 154 1421 135 1372 q 180 1432 167 1431 q 203 1429 193 1433 q 226 1418 213 1425 q 247 1410 239 1411 l 251 1413 q 298 1363 274 1396 q 347 1301 322 1329 q 404 1263 372 1274 z "},",":{"ha":560,"x_min":93,"x_max":464,"o":"m 406 -117 q 426 -65 411 -96 q 453 -12 442 -35 q 463 40 464 10 q 443 101 463 71 q 374 179 407 140 q 336 197 349 192 q 303 208 324 203 q 264 206 282 214 q 228 181 246 199 q 104 94 106 94 q 99 40 94 69 q 114 -12 103 11 q 131 -64 125 -35 q 128 -118 136 -93 q 128 -204 128 -150 q 156 -275 136 -226 q 181 -286 168 -285 q 204 -283 194 -287 q 227 -272 214 -279 q 249 -264 240 -265 l 253 -267 q 299 -217 275 -250 q 349 -156 324 -183 q 406 -117 374 -128 z "},"-":{"ha":1028,"x_min":83,"x_max":938,"o":"m 760 429 q 244 428 613 429 q 194 447 228 438 q 140 463 161 456 q 101 494 118 471 q 86 557 85 518 q 107 576 96 567 q 131 599 118 586 q 151 618 144 611 q 364 656 218 631 q 466 620 411 626 q 594 619 521 614 q 700 624 668 625 q 716 623 706 624 q 732 621 726 622 q 790 617 751 617 q 858 613 828 618 q 913 586 889 607 q 936 528 914 581 q 906 481 925 500 q 862 452 888 463 q 815 438 836 442 q 760 429 793 433 z "},".":{"ha":564,"x_min":72,"x_max":485,"o":"m 158 372 q 260 424 207 417 q 358 412 313 432 q 454 351 403 392 q 456 318 458 333 q 459 287 453 303 q 483 263 465 271 q 481 195 481 232 q 482 126 481 158 q 463 66 483 94 q 399 24 443 38 q 249 19 322 0 q 128 101 176 39 q 83 243 74 174 q 158 372 93 313 z "},"/":{"ha":1061,"x_min":56,"x_max":1006,"o":"m 56 17 q 104 132 72 56 q 868 1383 690 1092 q 882 1399 874 1393 q 897 1406 890 1404 q 915 1410 903 1408 q 932 1414 926 1413 q 988 1403 969 1417 q 1004 1367 1006 1390 q 999 1315 1003 1344 q 932 1185 986 1264 q 864 1078 878 1106 q 804 972 843 1029 q 733 870 765 914 q 671 766 700 826 q 632 647 642 706 q 504 462 588 583 q 382 285 421 340 q 322 132 332 219 q 233 11 235 93 l 60 11 q 58 13 60 11 q 57 14 58 13 q 56 17 56 15 z "},":":{"ha":708,"x_min":65,"x_max":640,"o":"m 611 218 q 639 194 626 207 q 611 218 622 206 m 611 218 q 630 190 624 204 q 634 159 636 176 q 630 133 632 142 q 619 101 628 124 q 608 74 610 79 q 550 32 585 43 q 485 26 515 21 q 416 28 454 31 q 353 11 378 26 q 308 67 339 53 q 248 76 278 81 q 183 74 218 72 q 126 93 147 75 q 95 158 115 115 q 65 221 75 200 q 106 237 79 232 q 155 243 133 242 q 194 261 176 244 q 214 311 211 278 q 261 360 229 328 q 308 410 293 393 q 400 374 354 392 q 449 331 425 361 q 491 276 474 301 q 540 233 508 251 q 611 218 571 214 m 515 724 q 514 679 515 697 q 507 635 513 661 q 490 592 501 608 q 455 563 478 576 q 400 546 432 549 q 278 575 350 558 q 231 617 246 594 q 217 666 215 640 q 224 712 218 692 q 243 762 231 732 q 261 807 256 792 q 306 877 274 851 q 385 888 339 903 q 478 823 442 868 q 515 724 514 778 z "},"=":{"ha":1028,"x_min":83,"x_max":992,"o":"m 365 276 q 293 265 321 257 q 223 288 265 274 q 151 294 181 301 q 125 300 139 297 q 92 353 104 333 q 93 379 92 365 q 122 422 101 390 q 153 472 142 454 q 214 503 181 486 q 231 499 219 501 q 250 496 243 497 q 267 494 257 494 q 287 497 278 494 q 304 504 296 500 q 412 494 335 510 q 521 494 489 478 q 697 488 582 493 q 853 482 811 483 q 874 469 860 469 q 914 288 990 413 q 729 286 851 288 q 671 285 710 286 q 633 287 664 285 q 594 289 603 289 q 558 290 585 289 q 517 291 531 292 q 481 290 504 290 q 441 288 457 290 q 405 283 425 286 q 365 276 385 281 m 760 13 q 244 11 613 13 q 194 30 228 21 q 140 47 161 39 q 101 78 118 54 q 86 140 85 101 q 107 160 96 150 q 131 182 118 169 q 151 201 144 194 q 364 239 218 214 q 466 203 411 210 q 594 203 521 197 q 700 207 668 208 q 716 206 706 207 q 732 204 726 206 q 790 201 751 200 q 858 196 828 201 q 913 169 889 190 q 936 111 914 164 q 906 65 925 83 q 862 35 888 46 q 815 21 836 25 q 760 13 793 17 z "},"A":{"ha":1107,"x_min":60,"x_max":1039,"o":"m 432 982 q 483 1083 447 1051 q 588 1104 519 1114 q 608 1094 594 1093 q 660 951 625 1049 q 714 804 696 854 q 747 672 717 715 q 753 644 743 657 q 769 612 758 633 q 785 579 781 590 q 792 528 789 561 q 797 474 794 494 q 813 427 800 453 q 847 383 825 401 q 849 335 847 367 q 851 286 851 303 q 876 204 853 242 q 929 144 900 167 q 992 90 958 122 q 1039 26 1025 58 q 1010 -6 1019 4 q 838 -6 958 -6 q 651 -7 717 -7 q 631 -1 643 1 q 625 76 628 29 q 711 156 700 89 q 709 188 713 175 q 701 206 706 200 q 684 215 696 213 q 665 218 672 218 q 642 217 658 218 q 619 215 625 217 q 494 239 500 239 q 438 242 467 247 q 399 207 410 236 q 394 199 397 204 q 383 167 386 179 q 378 139 379 156 q 390 110 378 122 q 424 89 401 97 q 431 58 425 74 q 431 41 431 53 q 431 24 431 29 q 424 -7 425 8 q 360 -16 401 -10 q 310 -25 319 -22 q 225 -37 250 -22 q 145 -22 197 -32 q 69 -6 93 -11 q 69 43 61 22 q 101 91 76 64 q 131 126 125 118 q 210 230 190 169 q 236 382 231 290 q 253 431 242 399 q 268 479 264 464 q 297 536 290 504 q 302 610 303 568 q 304 672 301 653 l 317 672 l 326 681 q 374 779 353 724 q 407 876 396 835 q 432 982 418 917 m 610 408 q 625 524 667 456 q 603 563 614 542 q 581 610 593 583 q 561 651 568 638 q 560 684 560 660 q 554 727 560 708 q 533 763 549 746 q 519 646 486 697 q 464 511 468 522 q 456 494 463 510 q 447 476 449 479 q 442 460 446 472 q 440 442 439 447 q 444 427 442 436 q 453 411 446 418 q 471 399 460 404 q 541 381 503 379 q 610 408 579 383 z "},"B":{"ha":1097,"x_min":67,"x_max":1031,"o":"m 925 593 q 978 519 957 558 q 1008 435 999 481 q 1020 356 1017 389 q 1026 267 1024 322 q 1031 183 1028 211 q 1002 160 1022 176 q 972 135 982 144 q 948 112 963 126 q 924 82 933 97 q 907 49 914 67 q 750 -22 872 -42 q 725 -26 742 -24 q 706 -28 708 -28 q 324 -19 554 -50 q 251 -16 297 -28 q 200 -4 206 -4 q 154 2 172 -1 q 116 15 136 6 q 85 41 96 24 q 72 83 75 58 q 85 135 68 122 q 136 149 101 149 q 183 156 171 150 q 222 182 185 157 q 260 863 344 476 q 251 882 257 869 q 242 904 246 894 q 231 921 238 914 q 188 948 218 936 q 135 967 158 960 q 97 994 111 975 q 90 1042 82 1013 q 139 1092 100 1075 q 217 1110 178 1110 q 290 1110 257 1111 q 437 1106 342 1107 q 609 1098 532 1104 q 756 1074 686 1092 q 930 967 879 1040 q 971 769 981 893 q 951 735 967 761 q 930 694 936 708 q 916 659 924 681 q 911 622 908 638 q 925 593 914 606 m 613 954 q 568 945 596 949 q 518 940 540 942 q 474 931 496 939 q 440 910 451 924 q 430 867 429 896 q 449 793 431 838 q 450 755 450 779 q 451 713 450 731 q 458 678 453 696 q 477 649 463 660 q 517 635 492 638 q 749 758 700 615 q 797 788 785 774 q 803 815 810 803 q 785 839 797 828 q 757 863 772 850 q 739 888 742 876 q 690 907 735 889 q 621 935 644 925 q 613 954 615 944 m 650 140 q 818 288 800 118 q 682 446 833 436 q 658 508 669 479 q 486 509 536 544 q 443 356 436 474 q 456 181 443 346 q 486 179 465 181 q 518 176 507 178 q 555 153 535 160 q 608 144 575 147 q 650 140 642 142 z "},"C":{"ha":1046,"x_min":61,"x_max":972,"o":"m 821 510 q 889 508 863 510 q 935 495 915 506 q 962 469 954 485 q 970 422 969 453 q 965 355 971 392 q 944 260 958 318 q 885 137 942 207 q 752 16 829 67 q 618 -37 675 -35 q 330 47 467 -43 q 129 283 193 138 q 134 319 128 297 q 144 358 140 342 q 138 390 149 374 q 99 417 128 407 q 75 456 83 435 q 65 494 67 478 q 66 536 63 511 q 73 574 69 561 q 85 614 76 586 q 96 650 94 642 q 103 669 99 656 q 135 774 122 738 q 170 866 147 811 q 224 963 193 921 q 294 1042 256 1006 q 378 1090 329 1076 q 471 1101 428 1103 q 566 1105 514 1099 q 654 1135 618 1111 q 681 1100 664 1110 q 713 1092 697 1090 q 750 1099 728 1094 q 785 1101 772 1103 q 807 1092 794 1094 q 950 1071 867 1067 q 963 941 964 990 q 955 810 961 892 q 951 679 949 728 l 951 676 q 799 654 892 626 q 689 814 786 747 q 613 910 649 881 q 533 936 576 940 q 443 893 490 932 q 332 776 396 854 q 311 758 319 768 q 299 735 303 749 q 292 715 294 722 q 288 690 289 707 q 288 667 288 672 q 289 641 288 663 q 290 618 290 619 q 279 609 288 615 q 267 600 271 603 q 258 591 264 597 q 253 580 253 585 q 255 567 253 575 q 264 550 257 558 q 431 160 261 325 q 588 160 496 96 q 599 188 597 172 q 656 228 629 204 q 701 274 683 251 q 737 330 718 296 q 766 387 756 364 q 794 449 776 410 q 821 510 811 489 z "},"D":{"ha":1135,"x_min":50,"x_max":1064,"o":"m 1049 729 q 1058 578 1063 636 q 1041 427 1053 519 q 1031 276 1029 335 q 905 62 1000 138 q 664 -28 810 -14 q 228 -24 439 -49 q 158 -6 182 -18 q 133 27 135 7 q 141 69 131 47 q 176 121 151 90 q 312 141 271 99 q 350 279 353 183 q 342 504 350 293 q 355 583 360 536 q 342 664 350 629 q 351 743 333 699 q 329 847 342 800 q 294 910 317 888 q 244 937 272 932 q 188 940 215 942 q 126 939 160 939 q 69 946 92 939 q 91 1072 51 1033 q 218 1113 131 1111 q 396 1115 231 1113 q 411 1115 400 1115 q 428 1114 422 1115 q 622 1115 561 1115 q 748 1095 679 1115 q 871 1031 817 1075 q 928 988 903 1014 q 971 936 954 961 q 1003 870 988 911 q 1028 803 1019 829 q 1049 729 1036 778 m 764 244 q 853 447 833 326 q 841 688 874 567 q 731 896 808 810 q 690 943 704 919 q 689 943 690 943 q 627 945 656 944 q 567 936 599 946 q 510 904 536 926 l 510 904 l 510 904 q 475 674 476 738 q 504 636 485 661 q 499 538 508 596 q 482 436 490 479 q 483 339 474 393 q 531 242 493 285 q 519 216 529 231 q 499 190 508 201 q 490 164 489 179 q 508 133 490 149 q 626 140 554 93 q 671 171 649 154 q 722 211 693 188 q 764 244 750 235 z "},"E":{"ha":1088,"x_min":67,"x_max":1018,"o":"m 1017 136 q 988 56 1001 115 q 946 -28 975 -4 l 946 -25 q 718 -32 868 -28 q 496 -37 568 -36 q 239 -32 258 -33 q 203 -33 228 -32 q 163 -33 178 -35 q 129 -27 147 -32 q 99 -7 111 -22 q 79 33 86 8 q 81 94 68 72 q 115 122 93 117 q 165 137 136 128 q 206 158 193 146 q 233 379 228 264 q 233 644 238 494 q 229 865 228 793 q 213 922 231 901 q 174 947 196 942 q 122 961 151 953 q 79 983 93 969 q 76 1001 76 992 q 78 1018 75 1010 q 83 1033 81 1026 q 92 1047 85 1039 q 101 1060 99 1056 q 113 1074 104 1064 q 240 1074 156 1074 q 365 1072 324 1074 q 643 1074 458 1074 q 919 1074 828 1074 q 988 882 965 944 q 979 821 985 863 q 971 757 974 779 q 953 744 958 756 q 874 763 899 736 q 839 847 850 790 q 835 872 838 853 q 831 899 833 890 q 823 919 829 907 q 804 937 817 932 q 774 940 792 942 q 653 947 731 938 q 513 953 576 957 q 394 919 449 950 q 390 861 399 896 q 372 797 381 826 q 361 738 363 768 q 384 685 360 708 q 461 646 408 661 q 529 657 503 613 q 565 680 549 660 q 594 722 582 700 q 624 760 607 743 q 665 776 640 776 q 725 751 690 775 q 728 576 726 693 q 731 425 729 475 q 728 360 729 401 q 717 340 717 353 q 658 289 701 326 q 619 324 638 308 q 592 401 610 351 q 567 465 574 450 q 538 472 556 468 q 506 480 519 476 q 476 486 493 483 q 448 488 460 489 q 424 484 436 488 q 406 472 413 481 q 394 449 399 463 q 391 413 390 435 q 397 360 392 390 q 400 229 375 300 q 452 147 421 174 q 521 119 483 119 q 594 125 558 118 q 674 140 631 132 q 747 143 718 149 q 808 151 789 138 q 826 190 826 165 q 824 243 825 215 q 826 293 824 271 q 855 338 840 321 q 888 367 869 356 q 931 375 907 378 q 985 357 956 372 q 1003 322 997 333 q 1017 261 1017 297 q 1013 198 1017 225 q 1017 136 1008 171 z "},"F":{"ha":1093,"x_min":72,"x_max":1029,"o":"m 1022 886 q 1014 731 1029 800 q 942 613 999 663 q 855 664 885 626 q 819 740 825 701 q 802 831 813 779 q 774 914 792 883 q 708 910 742 950 q 597 907 639 910 q 519 894 554 904 q 469 868 485 883 q 447 822 454 853 q 441 753 439 790 q 451 654 443 717 q 485 659 460 656 q 522 665 510 663 q 551 674 533 668 q 583 690 569 679 q 607 717 596 700 q 606 747 608 732 q 704 779 640 821 q 723 683 710 747 q 743 585 736 618 q 740 568 742 579 q 738 553 738 557 l 744 556 q 774 358 763 432 q 763 317 767 329 q 749 281 760 304 q 727 249 739 258 q 694 233 715 240 q 644 229 674 226 q 610 393 589 294 q 603 454 618 429 q 550 488 588 479 q 458 421 478 501 q 439 297 456 413 q 436 255 439 283 q 433 210 433 226 q 436 173 432 194 q 452 141 440 151 q 490 124 464 131 q 554 121 515 118 q 635 85 603 125 q 663 1 667 44 q 642 -33 661 -26 q 588 -35 622 -39 q 540 -33 553 -31 q 365 -27 486 -42 q 188 -28 244 -12 q 119 -16 151 -37 q 76 44 86 6 q 74 68 75 58 q 79 86 72 78 q 91 99 86 94 q 106 107 96 103 q 124 113 117 111 q 142 117 131 114 q 158 121 153 119 q 200 137 182 126 q 230 158 218 147 q 251 187 242 169 q 265 216 260 204 q 272 250 269 228 q 276 283 275 272 q 278 319 276 294 q 279 353 279 343 q 281 574 285 397 q 278 794 278 750 q 256 887 279 856 q 171 926 232 918 q 136 933 150 929 q 104 945 122 936 q 80 971 86 954 q 78 1013 74 988 q 94 1047 83 1033 q 124 1066 106 1060 q 157 1075 142 1072 q 196 1079 172 1078 q 242 1080 208 1079 q 293 1082 275 1081 q 337 1090 311 1083 q 383 1110 363 1097 q 440 1076 408 1083 q 516 1074 471 1069 q 579 1076 561 1078 q 621 1051 600 1053 q 657 1060 642 1049 q 693 1085 672 1072 q 729 1100 714 1099 q 938 1063 865 1114 q 1022 886 1011 1013 z "},"G":{"ha":1099,"x_min":43,"x_max":1038,"o":"m 490 -37 q 155 183 267 18 q 79 576 43 349 q 92 673 85 607 q 106 777 99 739 q 128 868 113 815 q 174 963 143 921 q 249 1040 204 1004 q 424 1107 299 1081 q 676 1130 549 1133 q 851 1089 803 1126 q 874 1061 869 1075 q 877 1024 879 1047 q 875 993 875 1001 q 870 924 878 968 q 864 842 863 879 q 886 775 865 806 q 833 732 856 747 q 781 706 810 717 q 721 705 751 696 q 658 742 690 714 q 638 890 668 854 q 528 901 608 926 q 503 911 517 910 q 381 933 446 963 q 275 806 315 903 q 247 697 257 740 q 231 592 238 653 q 231 484 225 531 q 260 383 238 438 q 322 282 282 329 q 329 258 325 275 q 337 231 333 240 q 349 209 340 221 q 371 190 357 197 q 493 153 414 135 q 530 140 506 149 q 560 128 554 131 q 628 253 629 156 q 647 304 635 271 q 664 350 658 338 q 672 390 671 376 q 665 405 674 403 q 647 405 656 407 q 624 399 638 403 q 603 394 610 394 q 590 424 600 408 q 569 453 579 440 q 551 481 558 467 q 546 513 543 496 q 565 546 549 529 q 653 597 604 586 q 757 585 701 608 q 837 581 783 583 q 918 576 890 578 q 950 582 935 558 q 1015 542 994 567 q 1033 494 1036 518 q 1012 447 1029 469 q 968 413 994 425 q 931 389 947 401 q 905 365 915 376 q 888 338 894 354 q 879 310 882 321 q 876 280 876 300 q 877 250 876 260 q 880 217 878 240 q 883 185 882 193 q 866 111 878 160 q 849 38 854 63 q 759 19 811 24 q 665 16 707 15 q 575 4 624 17 q 490 -37 526 -8 z "},"H":{"ha":1186,"x_min":72,"x_max":1117,"o":"m 1031 156 q 1089 88 1074 128 q 1089 4 1104 47 q 1071 -24 1082 -14 q 1043 -36 1060 -35 q 1014 -37 1026 -37 q 980 -32 1001 -36 q 949 -26 958 -28 q 664 8 928 -24 q 649 39 660 15 q 633 75 639 63 q 646 98 638 82 q 661 124 654 114 q 678 140 668 135 q 743 197 721 167 q 771 253 765 226 q 766 315 776 281 q 740 375 756 349 q 700 439 725 401 q 668 468 694 444 q 625 483 664 469 q 565 501 586 496 q 503 467 557 497 q 424 403 453 442 q 391 323 396 364 q 395 242 386 282 q 426 168 404 203 q 451 121 444 142 q 457 88 457 100 q 447 63 457 75 q 428 44 436 50 q 401 26 419 38 q 374 10 382 15 q 342 0 368 8 q 306 -10 315 -8 q 275 -15 296 -12 q 238 -14 254 -18 q 203 0 221 -10 q 155 8 189 8 q 99 17 121 7 q 74 61 78 26 q 75 86 72 75 q 81 105 78 97 q 92 119 83 113 q 107 128 101 125 q 126 135 113 132 q 144 140 139 139 q 166 144 150 142 q 186 147 182 147 q 221 167 208 151 q 233 204 233 182 q 237 369 232 272 q 247 537 242 465 q 249 699 251 608 q 233 868 246 790 q 212 929 226 910 q 161 951 197 949 q 150 953 160 953 q 138 954 140 954 q 127 956 136 954 q 115 958 118 957 q 106 963 113 960 q 97 967 99 965 q 90 974 94 969 q 83 983 85 978 q 81 994 82 988 q 79 1008 79 1001 q 163 1097 81 1069 q 263 1119 208 1113 q 358 1124 318 1125 q 463 1118 399 1122 q 561 1113 528 1114 q 567 1096 564 1107 q 572 1078 569 1085 q 580 1063 575 1071 q 590 1051 585 1054 q 606 1049 596 1049 q 629 1056 617 1050 q 701 1079 664 1074 q 789 1085 739 1085 q 861 1088 839 1086 q 981 1130 924 1129 q 1093 1082 1039 1131 q 1115 1035 1115 1060 q 1100 990 1115 1010 q 1058 951 1085 969 q 1045 951 1054 951 q 1031 949 1036 950 q 1018 948 1026 949 q 1006 946 1010 947 q 997 941 1003 944 q 989 933 990 938 q 983 923 988 929 q 981 908 979 917 q 982 889 982 900 q 953 841 963 858 q 936 797 944 824 q 933 745 928 771 q 957 694 939 719 q 956 596 961 653 q 945 496 951 539 q 943 399 939 453 q 965 300 947 344 q 946 262 950 279 q 943 233 942 244 q 956 208 944 221 q 977 190 968 196 q 1005 172 986 183 q 1031 156 1024 161 m 732 726 q 772 783 767 742 q 736 860 776 824 q 745 920 749 899 q 726 947 742 942 q 690 952 710 951 q 649 950 669 953 q 614 956 628 947 q 544 977 578 974 q 483 963 511 981 q 444 903 454 944 q 442 892 443 899 q 432 850 435 865 q 426 809 429 835 q 429 768 424 783 q 445 735 435 753 q 478 706 456 717 q 532 689 500 694 q 590 660 561 663 q 639 669 619 658 q 688 699 658 679 q 732 726 717 719 z "},"I":{"ha":935,"x_min":64,"x_max":865,"o":"m 83 946 q 105 1072 65 1033 q 232 1113 144 1111 q 410 1115 244 1113 q 425 1115 414 1115 q 442 1114 436 1115 q 636 1115 558 1115 q 671 1115 657 1115 q 703 1113 685 1114 q 735 1110 722 1113 q 763 1103 747 1107 q 788 1092 778 1099 q 808 1076 797 1085 q 824 1054 818 1067 q 833 1026 829 1042 q 837 991 838 1011 q 832 947 836 971 q 755 940 797 939 q 676 944 713 940 q 598 940 639 949 q 524 904 557 931 l 524 904 l 524 904 q 535 557 482 694 q 553 424 540 513 q 574 289 567 335 q 547 256 551 275 q 545 207 542 236 q 549 167 549 178 q 581 115 560 131 q 624 100 601 99 q 672 106 646 101 q 722 113 699 110 q 767 104 744 117 q 831 96 786 101 q 833 74 832 92 q 840 48 833 56 q 864 39 847 40 q 865 6 865 17 q 816 -15 849 -1 q 768 -36 783 -29 q 665 -37 732 -37 q 571 -37 599 -37 q 506 -37 551 -37 q 297 -34 438 -36 q 85 -31 157 -32 q 83 35 83 -8 q 81 100 82 78 l 82 101 q 228 104 224 104 q 344 296 431 108 q 343 328 344 313 q 343 847 411 601 q 308 910 331 888 q 258 937 286 932 q 201 940 229 942 q 140 939 174 939 q 83 946 106 939 z "},"J":{"ha":1049,"x_min":63,"x_max":976,"o":"m 714 1124 q 776 1117 738 1118 q 843 1115 814 1117 q 901 1103 872 1113 q 950 1066 931 1094 q 976 989 969 1038 q 974 988 975 989 q 974 986 974 986 q 933 983 950 988 q 899 988 922 985 q 865 993 876 992 q 826 988 854 990 q 783 981 797 985 q 753 962 769 976 q 731 919 736 947 q 715 915 722 918 q 702 910 707 913 q 693 901 697 907 q 686 892 689 896 q 681 881 683 889 q 678 870 679 874 q 676 857 676 867 q 676 844 676 847 q 675 831 675 842 q 675 818 675 819 q 672 615 675 761 q 668 389 668 468 q 630 175 668 265 q 519 36 592 85 q 349 -14 447 -12 q 137 89 211 -15 q 67 382 63 193 q 113 400 89 383 q 155 433 138 417 q 200 454 172 449 q 254 438 228 460 q 322 251 361 361 q 340 256 332 256 q 351 203 339 219 q 383 189 364 188 q 423 191 401 190 q 461 190 444 192 q 465 219 463 200 q 468 249 467 239 q 517 283 503 260 q 528 333 531 307 q 525 389 526 360 q 525 450 525 410 q 525 519 525 474 q 526 589 525 565 q 527 752 526 643 q 528 915 528 861 q 446 915 500 915 q 364 913 392 914 q 349 917 361 914 q 332 921 336 919 q 317 926 328 922 q 301 933 306 929 q 290 942 297 936 q 280 953 283 947 q 274 969 276 960 q 271 989 271 978 q 283 1097 254 1063 q 388 1125 311 1131 q 599 1115 399 1124 l 665 1119 q 656 1119 663 1119 l 644 1122 q 714 1124 651 1124 z "},"K":{"ha":1314,"x_min":96,"x_max":1232,"o":"m 1118 169 q 1191 139 1157 165 q 1217 63 1225 113 q 1203 28 1213 42 q 1183 7 1193 14 q 1153 -4 1172 0 q 1122 -8 1133 -8 q 1089 -8 1111 -8 q 761 -6 1047 -8 q 761 21 761 0 q 763 50 761 42 q 767 74 764 58 q 777 103 769 90 q 796 126 785 115 q 824 203 833 167 q 763 265 815 240 q 756 331 771 299 q 717 394 740 363 q 690 453 694 426 q 560 456 625 582 q 500 196 482 357 q 632 124 599 194 q 631 120 632 124 q 628 115 629 117 q 629 111 628 113 q 635 75 642 108 q 629 34 636 54 q 622 -6 622 14 q 590 -4 611 -6 q 558 -3 569 -3 q 527 -2 549 -3 q 494 -1 506 -1 q 96 58 258 -42 q 163 124 111 108 q 225 190 175 182 q 292 197 264 194 q 322 197 301 197 q 353 196 343 197 q 361 804 360 682 q 286 913 361 911 q 232 881 242 913 l 163 921 l 96 1008 l 96 1125 q 528 1119 374 1124 q 565 1121 539 1119 q 606 1121 590 1122 q 640 1114 621 1119 q 674 1093 660 1108 q 694 1053 688 1078 q 660 981 696 1019 q 619 924 625 942 q 590 920 610 922 q 561 917 571 918 q 560 722 410 811 q 590 728 576 724 q 616 742 604 733 q 635 758 628 751 q 653 780 643 765 q 667 801 663 794 q 681 827 671 808 q 693 851 690 846 q 749 889 732 864 q 763 938 765 914 q 758 997 761 963 q 758 1051 754 1032 q 817 1101 782 1086 q 879 1117 851 1117 q 953 1115 907 1118 q 1021 1114 999 1113 q 1122 1116 1054 1115 q 1224 1118 1190 1117 q 1230 1040 1232 1076 q 1217 976 1228 1004 q 1173 934 1206 949 q 1085 924 1140 919 q 1022 856 1022 914 q 825 719 915 822 q 822 519 681 632 q 886 447 825 453 q 894 418 889 438 q 907 366 903 383 q 922 319 911 349 q 942 273 932 289 q 969 235 951 257 q 1006 202 986 214 q 1054 181 1025 190 q 1118 169 1083 172 z "},"L":{"ha":1096,"x_min":54,"x_max":1029,"o":"m 188 -31 q 74 17 92 -28 q 113 136 56 61 q 151 149 126 142 q 192 162 175 156 q 224 180 208 168 q 246 213 240 192 q 246 265 251 235 q 253 546 257 350 q 268 826 249 742 q 257 911 279 876 q 179 951 235 946 q 110 981 135 971 q 94 1056 88 1018 q 142 1101 101 1093 q 542 1103 347 1139 q 594 1063 579 1096 q 600 986 610 1029 q 472 947 576 979 q 417 919 429 947 q 411 856 404 892 q 430 684 425 775 q 437 481 435 593 q 442 310 439 368 q 495 172 447 213 q 640 139 543 131 q 794 188 746 146 q 828 332 843 229 l 829 332 q 884 357 854 353 q 938 356 914 361 q 994 338 961 350 q 1029 299 1007 324 q 1019 251 1026 282 q 1009 201 1013 221 q 1008 155 1006 182 q 1021 106 1010 128 q 890 -3 958 33 q 736 -37 822 -40 q 458 -34 642 -35 q 188 -31 275 -33 z "},"M":{"ha":1169,"x_min":64,"x_max":1099,"o":"m 90 1074 q 151 1080 117 1082 q 217 1072 186 1078 q 278 1079 247 1065 q 328 1132 308 1093 l 343 1132 q 412 1035 367 1099 q 478 940 457 971 q 497 887 479 917 q 530 837 514 857 q 552 784 546 817 q 536 721 558 751 q 526 702 529 710 q 520 685 522 694 q 523 667 518 675 q 539 656 528 660 q 578 660 565 646 q 604 706 592 674 q 643 794 613 725 q 688 911 674 864 q 708 1007 703 958 q 745 1053 721 1022 q 782 1100 769 1085 l 794 1096 q 806 1099 804 1099 q 805 1098 806 1099 q 803 1097 804 1097 q 907 1078 850 1060 q 981 1078 925 1078 q 1069 1078 1038 1078 q 1094 1060 1078 1064 q 1081 1030 1089 1051 q 1067 994 1074 1008 q 1050 978 1060 981 q 998 957 1018 969 q 970 928 978 944 q 960 899 963 913 q 965 863 957 885 q 978 828 972 842 q 997 790 983 815 q 1003 778 1001 782 q 972 643 978 715 q 971 513 965 571 q 990 375 976 454 l 986 364 q 971 329 975 349 q 969 297 967 310 q 975 260 971 283 q 981 225 979 236 q 981 209 981 221 q 981 190 981 197 q 978 153 979 171 q 987 123 976 136 q 1021 108 997 110 q 1049 103 1038 107 q 1068 92 1061 99 q 1080 78 1075 85 q 1088 60 1085 71 q 1092 40 1090 49 q 1094 18 1093 31 q 1097 -1 1096 6 q 1067 -6 1088 -3 q 1036 -10 1046 -8 q 940 -10 1008 -10 q 872 -10 911 -10 q 775 -11 803 -10 q 757 9 769 -4 q 738 28 744 22 q 755 50 743 36 q 771 69 767 64 q 804 84 792 75 q 823 105 817 93 q 833 131 829 117 q 835 161 836 146 q 835 192 835 176 q 865 334 864 260 q 851 505 867 408 q 835 647 836 601 q 838 674 835 656 q 843 703 842 692 q 837 725 844 714 q 811 740 829 736 q 795 737 801 742 q 785 720 789 732 q 781 700 782 708 q 779 678 781 692 q 685 415 703 575 q 652 321 678 356 q 575 263 626 286 q 549 261 561 264 q 488 293 513 279 q 483 342 485 307 q 474 400 482 376 q 447 443 467 424 q 411 486 418 478 q 415 505 411 489 q 419 525 418 521 q 422 544 419 529 q 423 564 424 558 q 422 581 422 569 q 418 600 421 593 q 411 617 415 607 q 399 634 407 626 q 383 650 392 642 q 362 655 376 654 q 343 651 347 656 q 351 518 301 593 q 344 490 350 513 q 338 460 339 468 q 332 433 336 453 q 328 403 328 413 q 327 376 328 393 q 329 346 326 358 q 337 318 332 333 q 350 289 342 303 q 334 250 338 269 q 333 218 331 231 q 346 189 335 206 q 365 164 357 172 q 390 139 372 156 q 414 115 407 122 q 342 -12 472 -4 q 303 -11 333 -14 q 256 -14 274 -8 q 222 -37 238 -19 q 157 -24 201 -33 q 90 -10 113 -15 q 74 1 81 -4 q 67 13 68 7 q 65 24 65 19 q 68 35 64 28 q 74 46 72 43 q 83 58 76 49 q 90 68 89 67 q 113 86 94 79 q 147 97 132 93 q 168 117 161 101 q 156 160 175 132 q 175 204 169 185 q 176 247 181 224 q 151 290 171 269 q 168 341 157 308 q 183 386 179 374 q 186 511 181 432 q 189 657 192 590 q 163 781 186 724 q 163 808 167 794 q 128 944 210 899 q 103 965 113 954 q 90 991 93 975 q 87 1016 88 1007 q 88 1046 86 1025 q 90 1074 90 1067 z "},"N":{"ha":1094,"x_min":65,"x_max":1033,"o":"m 190 588 q 181 878 185 758 q 128 944 146 921 q 101 991 111 968 q 94 1024 92 1014 q 113 1046 96 1035 q 155 1063 131 1057 q 225 1078 179 1069 q 510 843 442 1033 l 511 842 l 511 840 l 513 839 l 513 838 l 514 836 l 514 835 l 515 833 l 515 832 l 515 831 l 517 829 l 517 828 l 518 826 l 518 825 l 519 824 l 519 822 l 521 821 l 521 819 l 522 818 l 522 817 l 524 815 l 524 814 l 524 813 l 525 811 l 525 810 l 526 808 l 526 807 l 528 806 l 528 804 l 529 803 l 529 801 l 531 800 l 531 799 l 532 797 l 532 796 l 532 794 l 533 793 l 533 792 l 535 790 l 535 789 l 536 788 l 536 786 l 538 785 l 538 783 l 539 782 l 539 781 l 540 779 l 540 778 l 540 776 l 542 775 l 542 774 l 543 772 l 543 771 l 544 769 l 544 768 l 546 767 l 546 765 l 547 764 l 547 763 l 549 761 l 549 760 l 549 758 l 550 757 l 550 756 l 551 754 l 551 753 l 553 751 l 553 750 l 554 749 l 554 747 l 556 746 l 556 744 l 557 743 l 557 742 l 557 740 l 558 739 l 560 738 l 560 736 l 561 735 l 561 733 l 563 732 l 563 731 l 564 729 l 564 728 l 565 726 l 565 725 l 565 724 l 567 722 l 567 721 l 568 719 l 568 718 l 569 717 l 569 715 l 571 714 l 571 713 l 572 711 l 572 710 l 574 708 l 574 707 l 574 706 l 575 704 l 575 703 l 576 701 l 576 700 l 578 699 l 578 697 l 579 696 l 579 694 l 581 693 l 581 692 l 582 690 l 582 689 l 582 688 l 583 686 l 583 685 l 585 683 l 585 682 l 586 681 l 586 679 l 588 678 l 588 676 l 589 675 l 589 674 l 590 672 l 590 671 l 590 669 l 592 668 l 592 667 l 593 665 l 593 664 l 594 663 l 594 661 l 596 660 l 596 658 l 597 657 l 597 656 l 599 654 l 599 653 l 599 651 l 600 650 l 600 649 l 601 647 l 601 646 l 603 644 l 603 643 l 604 642 l 604 640 l 606 639 l 606 638 l 607 636 l 607 635 l 607 633 l 608 632 l 608 631 l 610 629 l 610 628 l 611 626 l 611 625 l 613 624 l 613 622 l 614 621 l 614 618 q 643 554 622 601 q 675 481 664 507 l 675 479 l 676 478 l 678 476 l 678 475 l 679 474 l 679 472 l 681 471 l 681 469 l 682 468 l 682 467 l 683 465 l 683 464 l 685 463 l 685 461 l 686 460 l 686 458 l 688 457 l 688 456 l 689 454 l 689 453 l 690 450 q 719 394 710 413 q 771 300 721 332 q 779 458 831 381 q 778 473 779 461 q 775 489 776 485 q 771 501 774 493 q 763 515 768 510 q 749 524 757 519 q 750 779 799 635 q 750 779 750 779 q 756 804 760 794 q 767 859 764 840 q 772 895 771 878 q 770 919 772 913 q 758 933 768 926 q 739 943 749 940 q 708 950 729 946 q 658 962 676 954 q 634 978 640 969 q 632 1000 628 986 q 643 1024 636 1014 q 662 1051 650 1035 q 679 1078 674 1068 q 737 1076 704 1082 q 794 1063 769 1071 q 851 1058 819 1056 q 908 1079 882 1060 q 949 1074 931 1083 q 978 1052 967 1065 q 1003 1024 989 1039 q 1033 1003 1018 1008 q 1002 965 1028 978 q 951 948 976 951 q 907 928 925 944 q 894 883 889 913 q 897 751 904 850 q 892 621 890 651 q 881 546 881 586 q 888 474 881 506 q 902 399 894 442 q 910 326 910 357 q 911 260 910 304 q 913 194 913 217 q 908 148 913 181 q 903 97 904 115 q 910 52 901 78 q 938 7 918 26 q 892 -15 924 0 q 843 -37 860 -29 q 649 104 722 -24 q 641 160 642 122 q 630 225 640 197 q 586 267 619 253 q 585 291 586 271 q 582 319 583 311 q 575 341 581 328 q 560 364 569 354 q 493 494 521 440 q 451 596 478 531 q 415 685 425 661 q 419 707 419 696 q 417 726 419 718 q 409 744 415 733 q 398 760 403 754 q 383 775 393 765 q 379 781 381 779 q 341 780 356 783 q 322 765 326 776 q 315 744 317 754 q 315 717 314 735 q 317 690 317 699 l 315 690 q 353 163 286 458 q 381 126 357 158 q 400 94 383 108 q 434 73 417 81 q 464 49 451 65 q 472 8 476 33 q 461 -10 468 1 q 450 -28 454 -22 q 273 -25 390 -26 q 97 -22 156 -24 q 81 12 92 -11 q 65 46 71 35 l 67 51 q 99 88 76 71 q 143 114 122 104 q 180 144 164 124 q 196 194 196 165 q 199 276 196 219 q 199 375 201 333 q 186 456 197 417 q 172 500 165 483 q 189 543 179 517 q 190 588 199 569 z "},"O":{"ha":1011,"x_min":29,"x_max":933,"o":"m 797 79 q 498 -37 635 -44 q 217 111 361 -29 q 202 139 214 117 q 185 169 190 161 q 169 194 179 178 q 147 222 158 211 q 122 242 136 232 q 115 889 29 532 q 210 1008 153 957 q 350 1114 267 1058 q 376 1121 365 1111 q 458 1122 407 1118 q 554 1125 510 1126 q 636 1113 599 1124 q 768 1053 676 1061 q 826 963 786 1018 q 894 859 865 908 q 932 758 922 810 q 932 432 932 542 q 924 336 929 403 q 851 178 854 271 q 815 153 828 169 q 801 121 803 136 q 797 79 799 106 m 444 953 q 336 903 378 946 q 283 799 294 861 q 259 631 265 707 q 265 466 253 554 q 311 300 276 378 q 325 278 314 296 q 340 256 336 261 q 356 238 344 251 q 373 219 367 224 q 392 206 379 214 q 415 198 404 199 q 442 199 426 197 q 474 206 457 200 q 519 203 493 213 q 563 188 546 194 q 610 197 581 182 q 703 268 611 200 q 761 321 739 292 q 792 376 783 350 q 800 440 800 403 q 796 501 800 476 q 783 568 792 526 q 772 632 775 610 q 772 634 772 633 q 771 635 772 635 q 716 769 771 692 q 586 904 661 847 q 457 963 511 961 q 444 953 457 963 z "},"P":{"ha":1072,"x_min":58,"x_max":1004,"o":"m 244 1104 q 796 1051 765 1054 q 828 1043 807 1049 q 844 1022 833 1029 q 865 1013 856 1014 q 892 1010 874 1011 q 947 942 933 958 q 983 838 971 883 q 999 733 994 793 q 988 625 1004 674 q 974 607 986 621 q 957 587 961 593 q 945 569 953 581 q 935 546 938 557 q 933 521 932 535 q 851 466 899 486 q 744 430 804 446 q 653 399 685 414 q 550 417 589 413 q 478 419 511 422 q 431 403 446 415 q 404 363 415 392 q 390 299 393 335 q 388 203 388 264 q 397 161 388 201 q 431 103 406 121 q 485 86 457 86 q 546 81 513 86 q 596 57 579 75 q 594 -29 594 1 l 593 -29 l 592 -29 l 590 -31 l 589 -31 l 588 -31 l 586 -31 l 585 -31 l 583 -31 l 582 -31 l 581 -31 l 579 -31 l 578 -31 l 576 -31 l 575 -31 l 574 -32 l 572 -32 l 571 -32 l 569 -32 l 568 -32 l 567 -32 l 565 -32 l 564 -32 l 563 -32 l 561 -32 l 560 -32 l 558 -33 l 557 -33 l 556 -33 l 554 -33 l 553 -33 l 551 -33 l 550 -33 l 549 -33 l 547 -33 l 546 -33 l 544 -33 l 543 -33 l 542 -35 l 540 -35 l 539 -35 l 538 -35 l 536 -35 l 535 -35 l 533 -35 l 532 -35 l 531 -35 l 529 -35 l 528 -35 l 526 -36 l 525 -36 l 524 -36 l 522 -36 l 521 -36 l 519 -36 l 518 -36 l 517 -36 l 515 -36 l 514 -36 l 513 -36 l 510 -37 l 508 -37 l 507 -37 l 506 -37 l 504 -37 l 503 -37 q 115 -26 244 -31 q 103 8 104 -8 q 110 36 103 24 q 126 58 118 49 q 149 79 135 67 q 171 100 164 92 q 208 133 190 117 q 219 185 228 165 q 210 522 263 381 q 210 685 210 576 q 210 701 210 690 q 211 718 211 713 q 209 774 207 746 q 207 831 211 803 q 194 881 203 858 q 159 922 185 904 q 93 946 133 939 q 64 963 68 950 q 68 990 60 975 q 79 1019 76 1004 q 72 1044 82 1035 q 158 1076 96 1071 q 244 1104 221 1082 m 600 560 q 818 615 765 558 q 826 806 871 672 q 809 824 824 808 q 791 843 794 839 q 774 860 788 847 q 754 877 761 872 q 735 890 747 882 q 712 903 724 899 q 688 911 700 908 q 579 951 638 940 q 472 947 521 961 q 407 894 424 933 q 406 589 324 707 l 407 589 q 535 558 456 514 q 567 559 544 558 q 600 560 589 560 z "},"Q":{"ha":1061,"x_min":58,"x_max":1000,"o":"m 983 46 q 910 -282 999 -129 l 908 -279 q 821 -285 890 -281 q 714 -292 751 -289 q 579 -156 621 -258 q 569 -74 583 -104 q 531 -33 556 -43 q 473 -21 506 -24 q 406 -24 440 -18 q 383 -24 390 -24 q 338 -3 371 -18 q 290 19 304 13 q 250 44 275 26 q 213 78 225 61 q 190 120 201 94 q 176 176 179 146 q 130 257 143 208 q 118 349 117 306 q 106 442 119 393 q 58 522 93 490 q 75 544 63 529 q 94 571 88 560 q 99 590 101 582 q 88 672 89 632 q 93 745 88 713 q 113 813 99 778 q 143 875 128 849 q 183 935 158 901 q 227 990 208 968 q 274 1047 246 1013 q 319 1103 303 1081 q 583 1107 506 1106 l 588 1107 q 751 949 685 1026 q 851 775 817 872 q 853 308 851 642 q 849 279 851 300 q 846 247 847 258 q 718 -19 700 142 q 717 -50 717 -29 q 715 -87 715 -75 q 843 -83 781 -212 q 844 -18 843 -61 q 844 47 844 25 q 865 90 850 76 q 897 103 881 103 q 937 100 913 103 q 974 100 961 97 q 983 46 976 85 m 446 115 q 434 122 443 118 q 419 131 425 126 q 413 140 414 135 q 421 167 408 160 q 453 171 433 174 q 474 164 463 171 q 488 151 486 157 q 487 133 490 140 q 478 124 483 126 q 462 119 474 122 q 446 115 450 117 m 518 382 q 572 359 551 367 q 611 347 593 351 q 639 347 629 343 q 656 359 649 351 q 666 385 664 367 q 667 426 668 404 q 664 483 667 449 q 660 574 663 514 q 656 665 658 635 q 451 836 639 867 q 402 823 424 833 q 364 791 381 813 q 338 754 347 769 q 315 708 329 739 q 264 651 275 686 q 257 567 253 617 q 258 444 257 526 q 318 371 249 386 q 451 371 385 268 q 485 377 463 374 q 518 382 507 381 z "},"R":{"ha":1076,"x_min":67,"x_max":1001,"o":"m 999 17 l 999 -1 l 992 -12 q 927 -13 971 -12 q 861 -14 883 -14 l 863 -14 q 827 51 851 8 q 790 115 803 94 q 790 172 785 144 q 797 231 794 200 q 799 288 800 261 q 781 340 797 314 q 729 383 764 365 q 510 440 649 490 q 465 406 478 429 q 456 358 453 383 q 460 305 460 333 q 456 254 461 276 q 492 176 457 221 q 532 119 526 132 q 592 115 551 118 q 592 70 590 101 q 594 18 594 39 q 588 -11 593 -3 q 508 -19 583 -19 q 308 -15 432 -19 q 135 -11 185 -11 q 71 43 74 -8 q 133 115 67 111 l 132 117 q 261 251 285 101 q 267 775 268 711 q 268 805 267 783 q 269 838 269 826 q 264 867 268 850 q 247 894 260 883 q 214 914 235 906 q 152 960 171 929 q 136 1024 133 990 q 143 1097 139 1058 q 144 1106 143 1103 q 460 1104 249 1106 q 546 1108 490 1104 q 636 1112 601 1111 q 717 1097 671 1113 q 796 1046 763 1081 q 865 1038 833 1051 q 914 1008 897 1025 q 956 958 931 990 q 996 913 982 926 q 991 880 994 901 q 986 849 988 858 q 989 711 988 764 q 978 653 993 681 q 940 604 963 625 q 894 562 917 583 q 861 511 872 540 q 860 447 850 482 q 921 313 940 407 q 927 244 913 276 q 967 178 942 213 q 999 119 992 144 q 999 75 997 99 q 999 31 1001 51 l 999 17 m 669 640 q 735 649 704 633 q 799 687 767 664 q 858 715 832 710 q 860 747 858 725 q 863 781 861 769 q 794 846 842 829 q 769 883 783 868 q 741 904 754 897 q 707 915 728 911 q 672 918 686 918 q 634 917 658 918 q 597 915 610 915 q 533 913 578 915 q 464 910 488 911 l 467 910 q 462 810 465 876 q 457 711 458 744 q 525 643 461 644 q 669 640 589 515 z "},"S":{"ha":975,"x_min":74,"x_max":911,"o":"m 75 38 q 85 131 74 74 q 101 223 96 188 q 90 317 106 258 q 119 351 104 340 q 149 360 133 363 q 177 353 165 358 q 208 337 189 349 q 238 319 228 325 q 363 150 297 183 q 560 154 428 117 q 657 186 600 147 q 701 196 682 186 q 731 216 721 206 q 747 249 740 226 q 756 283 754 272 q 761 322 757 294 q 725 435 768 385 q 636 489 682 485 q 430 548 561 496 q 232 608 299 600 q 201 642 222 618 q 169 678 181 665 q 136 774 143 722 q 136 870 129 826 q 161 969 143 914 q 170 1000 164 979 q 179 1031 176 1021 q 299 1096 228 1057 q 436 1132 361 1126 q 570 1127 511 1138 q 708 1106 629 1117 q 844 1097 788 1094 q 849 985 846 1060 q 853 872 851 910 q 854 816 854 843 q 847 770 854 789 q 826 742 840 751 q 786 739 813 733 q 721 768 760 744 q 681 824 707 786 q 638 883 654 863 q 594 930 622 904 q 539 963 565 956 q 473 967 513 971 q 388 940 433 963 q 364 933 374 943 q 300 838 279 918 q 296 806 307 825 q 279 774 285 786 q 292 740 274 761 q 306 710 297 722 q 324 691 315 697 q 348 683 333 685 q 372 680 363 681 q 400 681 382 679 q 426 682 418 682 q 483 656 451 664 q 537 647 515 647 q 599 648 558 646 q 656 650 639 650 l 657 650 l 658 650 l 660 650 l 661 650 l 663 650 l 664 649 l 665 649 l 667 649 l 668 649 l 669 649 l 671 649 l 672 649 l 674 649 l 675 649 l 676 649 l 678 649 l 679 647 l 681 647 l 682 647 l 683 647 l 685 647 l 686 647 l 688 647 q 743 640 693 646 q 838 510 788 578 q 885 406 868 478 q 910 314 901 333 q 910 314 910 314 q 859 162 903 229 q 742 29 815 94 q 714 18 733 26 q 683 6 694 10 q 557 -37 631 -12 q 329 -7 449 -3 q 297 -8 319 -7 q 228 19 269 17 q 145 19 188 21 q 75 38 103 18 z "},"T":{"ha":1024,"x_min":71,"x_max":950,"o":"m 71 703 q 103 1067 90 924 q 117 1083 107 1072 q 132 1100 126 1094 q 214 1106 160 1103 q 294 1111 268 1110 q 588 1106 564 1107 q 686 1103 629 1104 q 782 1100 721 1101 q 837 1076 799 1090 q 901 1044 875 1061 q 940 997 926 1026 q 938 942 939 960 q 938 901 903 921 q 940 800 932 864 q 946 682 949 736 q 913 583 943 628 q 894 581 910 583 q 873 579 878 579 q 855 580 868 579 q 835 584 842 581 q 821 594 829 588 q 806 613 813 601 q 781 840 813 732 q 785 854 783 847 q 785 868 786 861 q 784 880 785 875 q 780 892 783 885 q 775 902 776 899 q 769 913 774 906 q 762 923 764 921 q 754 933 760 925 q 747 940 749 940 q 713 966 728 965 q 688 951 697 967 q 665 919 678 935 q 640 896 653 904 q 607 903 628 888 q 601 881 603 889 q 606 866 600 874 q 618 856 613 858 q 633 847 624 853 q 649 839 643 842 q 588 665 606 761 q 572 499 569 569 q 581 315 574 428 q 588 144 588 203 q 594 126 588 132 q 613 121 601 121 q 636 122 624 121 q 663 126 649 124 q 686 128 678 129 q 719 124 697 126 q 750 121 740 122 q 765 106 754 115 q 781 90 775 96 q 783 42 782 74 q 785 -7 785 10 q 722 -6 764 -10 q 647 -8 679 -3 q 588 -37 614 -14 q 461 -37 543 -37 q 387 -6 431 -10 q 308 -10 343 -3 q 229 -8 272 -18 l 228 -7 q 296 117 143 111 q 337 107 310 117 q 385 99 364 97 q 424 124 407 100 q 449 206 442 161 q 456 282 457 250 q 453 368 456 314 q 451 447 451 422 q 401 943 472 669 q 299 950 340 969 q 243 869 258 931 q 235 810 238 842 q 231 738 232 779 q 231 678 231 697 q 180 640 208 649 q 128 637 151 632 q 71 656 106 642 q 71 681 71 664 q 71 703 71 697 z "},"U":{"ha":1156,"x_min":74,"x_max":1154,"o":"m 1013 1135 q 1010 1008 1154 1075 q 951 1000 989 1006 q 954 871 953 958 q 944 835 950 847 q 926 810 939 822 q 890 796 913 797 q 902 675 900 749 q 911 536 904 601 q 943 418 918 471 q 893 364 906 396 q 880 281 881 332 q 876 211 879 229 q 781 110 839 172 q 780 110 781 110 q 779 108 779 110 q 765 87 775 103 q 751 65 756 71 q 736 47 746 58 q 715 30 726 36 q 690 19 704 24 q 488 -8 571 -28 q 322 108 406 13 q 260 213 285 156 q 225 318 236 269 q 213 436 214 367 q 214 551 211 506 q 224 672 217 596 q 220 739 222 694 q 217 804 218 783 q 216 901 217 838 q 215 999 215 965 q 171 994 201 1000 q 121 990 140 988 q 96 1011 101 992 l 89 1031 q 89 1021 89 1029 q 90 1013 90 1011 q 90 1072 90 1032 q 83 1091 90 1079 q 75 1110 75 1103 q 88 1136 75 1117 q 271 1161 110 1161 q 478 1132 432 1161 q 503 1108 499 1118 q 501 1094 507 1099 q 487 1084 494 1090 q 481 1072 479 1078 q 350 853 343 1021 q 351 771 351 796 q 348 688 350 746 q 346 606 346 631 q 351 573 347 594 q 358 542 356 551 q 353 477 357 518 q 349 410 350 436 q 351 348 347 383 q 369 289 356 313 q 410 243 382 265 q 483 207 439 221 q 551 206 506 207 q 618 203 596 204 q 682 276 688 213 q 740 352 724 308 q 754 433 757 396 q 747 522 751 469 q 744 607 742 575 q 743 803 722 699 q 742 856 736 822 q 754 915 749 890 q 744 965 760 940 q 682 1001 728 990 q 613 1068 629 1014 q 623 1117 610 1094 q 657 1162 636 1139 q 685 1201 678 1185 q 782 1201 718 1201 q 878 1201 846 1201 q 905 1168 888 1181 q 936 1151 922 1156 q 976 1142 950 1147 q 1013 1135 1003 1138 z "},"V":{"ha":1097,"x_min":60,"x_max":1036,"o":"m 253 882 q 229 923 256 906 q 168 946 203 940 q 119 957 138 951 q 83 979 101 963 q 60 1022 65 996 q 141 1079 99 1060 q 231 1100 183 1099 q 317 1097 279 1101 q 410 1083 354 1093 q 497 1069 465 1072 q 494 1021 506 1042 q 461 979 483 1000 q 432 943 439 958 l 433 943 q 403 829 410 886 q 407 706 396 772 q 429 599 418 640 q 465 482 440 558 q 477 422 464 447 q 519 403 490 397 q 558 425 546 408 q 568 463 569 442 q 567 506 567 483 q 574 546 568 528 q 636 911 669 685 q 630 942 640 926 q 606 969 619 957 q 581 996 592 982 q 575 1028 571 1010 q 606 1065 579 1046 q 700 1099 646 1093 q 815 1107 754 1106 q 914 1124 875 1108 q 981 1101 950 1136 q 1026 1026 1013 1065 q 1031 995 1035 1010 q 1022 972 1026 981 q 1002 954 1017 964 q 976 939 988 944 q 949 925 965 933 q 924 911 932 917 q 857 882 879 904 q 833 832 835 860 q 830 772 831 804 q 826 713 829 740 q 719 374 772 599 q 643 85 665 150 q 596 3 625 29 q 517 -35 567 -24 q 494 -37 504 -37 q 475 -35 483 -37 q 460 -29 467 -32 q 447 -19 453 -26 q 436 -8 440 -12 q 427 8 432 -3 q 419 24 422 18 q 412 40 417 29 q 404 57 407 51 q 344 283 354 167 q 319 431 339 347 q 281 580 300 515 q 253 727 263 644 q 253 882 243 810 z "},"W":{"ha":1126,"x_min":65,"x_max":1067,"o":"m 167 701 q 162 750 164 718 q 156 802 160 782 q 144 847 153 822 q 117 888 136 871 q 68 917 97 906 q 65 1046 67 963 q 261 1051 190 1049 l 278 1047 l 293 1050 q 326 1047 304 1050 q 357 1043 347 1044 q 371 1024 363 1036 q 381 1010 379 1013 q 368 963 376 993 q 356 922 360 933 q 327 896 339 908 q 310 868 315 883 q 301 842 304 853 q 300 815 297 832 q 304 789 303 797 q 315 761 306 781 q 326 735 324 742 q 342 708 329 729 q 356 682 354 686 q 358 672 357 679 q 360 662 360 665 q 363 652 361 658 q 366 643 364 646 q 372 636 368 640 q 378 631 375 632 q 388 631 382 631 q 400 632 393 631 q 420 653 415 638 q 423 684 425 668 q 426 715 421 700 q 456 728 442 718 q 488 752 472 735 q 514 785 503 769 q 544 813 525 801 q 588 821 563 824 l 589 819 q 638 742 606 792 q 678 678 669 692 q 681 657 679 671 q 683 622 682 633 q 693 567 682 590 q 728 549 704 544 q 751 558 742 551 q 764 570 760 564 q 771 590 768 576 q 774 610 774 603 q 775 633 775 617 q 775 654 775 650 q 785 683 786 667 q 790 715 793 697 q 800 751 793 728 q 810 788 807 775 q 815 822 814 801 q 813 858 817 843 q 795 891 808 874 q 761 922 782 908 q 753 951 758 932 q 746 979 749 971 l 747 981 l 747 982 l 747 983 l 749 985 l 749 986 l 749 988 l 749 989 l 750 990 l 750 992 l 750 993 l 751 994 l 751 996 l 751 997 l 753 999 l 753 1000 l 753 1001 l 753 1003 l 754 1004 l 754 1006 l 754 1007 l 756 1008 l 756 1010 l 756 1011 l 756 1013 l 757 1014 l 757 1015 l 757 1017 l 758 1018 l 758 1019 l 758 1021 l 760 1022 l 760 1024 l 760 1025 l 761 1028 l 761 1029 l 761 1031 l 761 1032 l 763 1033 l 763 1035 l 763 1036 l 764 1038 l 764 1039 l 764 1040 l 765 1042 l 765 1043 l 765 1044 l 765 1046 l 767 1047 l 767 1049 l 767 1050 l 768 1051 l 768 1053 l 768 1054 l 769 1056 l 769 1057 l 769 1058 l 769 1060 l 771 1061 l 771 1063 l 771 1064 l 772 1065 l 772 1067 l 772 1068 l 774 1069 l 774 1071 l 774 1072 l 774 1074 l 775 1075 l 775 1076 l 775 1078 l 776 1079 q 785 1108 782 1093 q 814 1107 799 1111 q 847 1083 822 1076 q 981 1069 960 1071 q 1024 1034 996 1057 q 1060 1006 1053 1011 q 1065 985 1060 994 q 1024 963 1035 968 q 990 940 1013 957 q 958 908 967 922 q 944 870 950 894 q 943 818 938 846 q 936 749 886 790 q 923 633 932 708 q 910 525 914 558 q 896 464 899 497 q 881 384 888 425 q 867 296 874 343 q 858 217 861 249 q 849 128 856 186 q 842 47 843 71 q 654 4 778 -97 q 651 85 665 44 q 615 169 636 126 q 592 246 593 213 q 594 274 592 256 q 597 304 596 292 q 596 330 599 317 q 581 348 593 343 q 549 350 569 353 q 528 229 482 340 q 486 71 486 165 q 325 -35 446 -56 q 308 -17 319 -29 q 289 3 296 -4 q 275 131 283 42 q 260 272 267 221 q 239 395 254 322 q 200 528 224 468 q 191 577 199 538 q 179 639 183 617 q 167 701 181 679 m 581 564 q 576 563 579 565 q 567 556 572 560 q 560 550 563 551 q 593 517 586 522 q 617 533 593 517 q 581 564 586 561 z "},"X":{"ha":1211,"x_min":78,"x_max":1206,"o":"m 740 643 q 731 511 618 592 q 800 444 740 449 l 801 447 q 813 363 800 396 q 867 313 825 331 q 921 243 878 261 q 933 182 925 222 q 981 130 950 143 q 1060 115 1013 117 q 1063 83 1061 104 q 1067 50 1065 61 l 1064 51 q 994 49 1032 47 q 922 53 956 50 q 854 41 889 56 q 794 -10 819 26 q 727 17 764 -15 q 669 50 690 49 q 662 87 668 60 q 655 123 656 114 q 657 142 654 132 q 717 186 699 163 q 730 235 735 210 q 715 281 725 260 q 688 331 704 303 q 667 378 671 358 q 542 374 597 510 q 532 256 539 338 q 475 190 469 238 q 343 39 496 39 q 265 -11 294 39 q 206 -12 246 -11 q 146 -14 167 -14 q 140 16 144 -6 q 135 47 136 38 q 131 74 133 56 q 131 102 129 93 q 137 126 133 111 q 148 151 140 142 q 167 171 156 160 q 197 190 179 182 q 238 204 214 197 q 311 267 279 217 q 339 378 343 318 q 404 447 392 388 q 415 530 401 497 q 471 578 428 563 q 271 903 471 793 q 201 935 233 913 q 134 994 169 958 q 78 1044 99 1029 q 136 1113 86 1085 q 169 1113 149 1114 q 203 1111 189 1111 q 233 1115 217 1111 q 260 1133 249 1119 q 278 1168 271 1146 q 369 1173 326 1172 q 457 1158 413 1174 q 536 1111 501 1143 q 667 1113 607 990 q 1069 1114 860 1247 q 1065 978 1204 1042 q 972 940 1013 968 q 903 874 931 913 q 853 794 875 835 q 801 711 831 754 q 740 643 772 668 z "},"Y":{"ha":1229,"x_min":86,"x_max":1151,"o":"m 1014 1117 q 1058 1115 1039 1117 q 1094 1108 1076 1113 q 1124 1092 1113 1103 q 1143 1068 1136 1082 q 1149 1032 1150 1054 q 1140 981 1149 1010 q 1093 921 1126 933 q 1010 918 1060 908 q 944 904 971 917 q 904 876 918 892 q 884 830 890 860 q 876 779 878 800 q 875 722 875 758 q 675 318 685 535 q 686 251 679 289 q 683 190 685 208 l 688 190 q 750 189 708 189 q 814 189 792 189 q 864 167 847 183 q 875 118 881 151 q 876 86 875 107 q 876 54 876 65 q 875 -12 876 29 q 743 -10 832 -11 q 713 -10 733 -10 q 683 -10 693 -10 q 640 -12 669 -10 q 592 -14 610 -14 q 552 -9 575 -14 q 511 10 529 -4 q 481 50 493 25 l 482 53 q 446 45 475 51 q 403 38 417 39 q 368 35 390 36 q 330 44 346 35 q 301 69 314 53 q 349 188 256 125 q 463 208 428 178 q 478 318 497 238 q 479 449 478 368 q 486 517 481 469 q 467 572 481 553 q 421 593 454 592 q 411 640 425 619 q 375 678 397 660 q 346 714 353 697 q 346 741 346 728 q 346 767 346 754 q 342 793 346 781 q 333 816 339 806 q 315 835 326 826 q 285 849 303 843 l 286 849 q 270 900 286 879 q 235 930 254 921 q 190 952 215 939 q 150 978 164 965 q 88 1033 88 979 q 153 1108 89 1107 q 306 1116 185 1108 q 483 1114 428 1124 l 483 1113 q 495 1086 482 1101 q 521 1058 508 1071 q 541 1033 533 1046 q 535 1006 549 1019 q 483 978 522 992 q 480 912 482 956 q 476 846 478 868 q 491 818 483 835 q 505 788 499 801 q 520 757 511 774 q 537 731 529 740 q 556 712 544 721 q 580 704 568 703 q 607 711 592 706 q 654 740 632 724 q 698 780 676 756 q 730 830 719 804 q 738 889 740 856 q 714 957 735 922 q 702 978 707 968 q 694 1002 697 989 q 688 1022 690 1015 q 685 1045 686 1029 q 684 1065 685 1061 q 683 1089 683 1069 q 682 1110 682 1108 l 683 1108 q 795 1114 740 1113 q 914 1115 850 1115 q 1014 1117 978 1115 z "},"Z":{"ha":997,"x_min":72,"x_max":921,"o":"m 690 307 q 715 319 704 313 q 732 335 725 325 q 743 351 739 344 q 750 373 747 358 q 754 394 753 388 q 757 417 756 400 q 758 439 758 435 q 795 450 772 439 q 839 460 818 461 q 882 435 860 460 q 903 383 900 415 q 901 319 907 350 q 889 246 896 288 q 882 179 882 204 q 821 44 815 144 q 819 16 819 35 q 817 -12 818 -3 q 256 -14 628 -14 q 222 -13 235 -14 q 193 -8 210 -12 q 166 10 176 -3 q 150 42 156 22 q 136 37 144 43 q 118 31 128 31 q 92 46 108 32 q 74 82 75 60 q 79 135 72 104 q 86 181 86 165 q 90 244 89 224 q 186 398 126 321 q 316 558 246 475 q 426 701 386 640 q 558 840 543 724 q 486 904 504 857 q 425 901 464 903 q 369 906 396 904 q 323 892 343 908 q 296 838 303 875 q 294 774 296 819 q 290 744 293 764 q 286 717 288 725 q 97 782 182 686 q 97 842 97 803 q 96 901 96 882 q 137 944 122 918 q 154 991 151 971 q 158 1048 157 1011 q 163 1101 160 1085 l 158 1104 q 191 1107 169 1104 q 222 1111 213 1110 q 390 1110 279 1111 q 557 1110 501 1110 l 554 1104 q 618 1113 579 1107 q 692 1100 642 1108 q 757 1106 714 1103 q 821 1111 800 1110 q 831 1118 828 1110 q 883 1099 835 1131 q 915 1058 910 1082 q 911 1011 919 1033 q 892 958 903 989 q 881 910 882 928 q 624 638 767 789 q 576 595 597 618 q 530 540 554 572 q 494 491 506 507 q 456 431 483 475 q 422 378 428 386 q 385 349 400 371 q 362 306 369 328 q 338 265 354 285 q 294 243 321 246 q 322 173 290 213 q 356 111 353 133 q 445 111 401 111 q 528 123 489 111 q 600 155 568 135 q 656 214 632 175 q 690 307 679 253 z "},"_":{"ha":1028,"x_min":83,"x_max":938,"o":"m 760 13 q 244 11 613 13 q 194 30 228 21 q 140 47 161 39 q 101 78 118 54 q 86 140 85 101 q 107 160 96 150 q 131 182 118 169 q 151 201 144 194 q 364 239 218 214 q 466 203 411 210 q 594 203 521 197 q 700 207 668 208 q 716 206 706 207 q 732 204 726 206 q 790 201 751 200 q 858 196 828 201 q 913 169 889 190 q 936 111 914 164 q 906 65 925 83 q 862 35 888 46 q 815 21 836 25 q 760 13 793 17 z "},"a":{"ha":1028,"x_min":71,"x_max":953,"o":"m 497 818 q 719 803 640 808 l 719 804 q 707 764 707 764 q 772 719 746 746 q 811 663 799 692 q 830 598 824 633 q 835 528 836 563 q 835 456 835 493 q 833 438 835 450 q 831 421 832 426 q 856 229 839 350 q 846 188 846 207 q 851 158 846 169 q 870 135 857 146 q 895 119 883 125 q 924 103 907 113 q 953 88 942 94 q 950 46 951 75 q 947 0 949 17 q 901 -15 931 -6 q 860 -29 872 -25 q 819 -17 842 -29 q 780 5 796 -6 q 739 17 764 15 q 693 0 714 18 q 207 -32 469 -51 q 167 31 194 -19 q 107 96 140 82 q 85 101 97 104 q 71 161 81 115 q 72 209 71 176 q 75 258 74 242 q 75 324 75 299 q 135 371 114 340 q 175 453 156 401 l 181 446 q 294 463 224 435 q 401 488 365 492 q 565 485 494 438 q 599 489 576 488 q 638 493 622 490 q 665 507 653 496 q 679 539 678 518 q 652 600 682 576 q 574 640 622 624 q 542 647 560 646 q 500 645 524 647 q 465 643 476 643 q 406 618 426 642 q 367 553 385 594 q 307 524 343 546 q 238 489 271 501 q 169 481 204 476 q 138 575 140 528 q 151 662 135 622 q 200 747 167 701 q 304 819 229 806 q 497 818 442 818 m 635 194 q 653 283 674 236 q 635 311 646 301 q 611 322 625 321 q 585 323 597 324 q 556 319 574 322 q 529 315 539 317 q 476 317 503 326 q 430 294 449 308 q 385 267 411 281 q 336 254 358 253 q 299 255 317 260 q 279 225 281 250 q 288 196 279 210 q 305 176 297 182 q 332 158 313 169 q 365 132 350 139 q 394 131 381 125 q 417 144 408 136 q 440 167 426 151 q 461 189 454 183 q 522 165 497 172 q 577 163 546 157 q 635 194 608 168 z "},"b":{"ha":1074,"x_min":57,"x_max":1014,"o":"m 72 1131 q 153 1132 101 1129 q 248 1133 206 1135 q 326 1118 290 1131 q 340 1106 331 1114 q 353 1093 349 1097 q 354 1093 353 1093 q 371 1026 368 1064 q 371 958 374 989 q 372 890 368 928 q 374 869 374 885 q 377 847 375 853 q 384 833 379 840 q 401 826 389 825 q 432 836 413 826 q 531 842 453 836 q 660 844 610 849 q 757 815 710 839 q 850 764 796 793 q 910 701 865 719 q 953 583 942 665 q 982 469 964 500 q 996 447 985 464 q 1013 419 1007 429 q 963 380 976 406 q 952 328 949 354 q 957 272 956 301 q 953 218 958 242 q 853 88 922 178 q 823 64 839 76 q 788 37 807 51 q 758 13 768 22 q 719 -4 744 8 q 678 -23 694 -17 q 640 -34 663 -29 q 596 -37 617 -39 q 540 -15 571 -32 q 486 15 508 1 q 429 35 464 28 q 365 24 394 42 q 334 11 354 21 q 303 -2 314 1 q 272 -9 293 -6 q 238 -6 250 -12 q 217 24 231 4 q 197 54 204 44 q 210 167 208 108 q 208 301 211 225 q 204 414 204 378 q 217 460 207 425 q 229 512 226 494 q 226 557 232 529 q 203 607 221 585 l 201 608 q 199 772 200 714 q 203 965 263 854 q 174 987 193 978 q 135 1001 154 996 q 98 1016 117 1007 q 68 1038 79 1025 q 57 1074 57 1050 q 72 1131 57 1097 m 388 550 q 369 487 369 522 q 374 412 368 451 q 376 347 381 372 q 387 270 368 296 q 460 250 406 244 q 597 156 532 156 q 732 249 661 156 q 762 300 757 269 q 760 356 767 331 q 761 413 754 382 q 779 453 774 436 q 785 490 785 471 q 770 523 785 508 q 726 547 756 538 q 693 599 714 579 q 642 627 672 619 q 590 636 613 635 q 529 638 567 638 q 499 632 513 643 q 461 613 492 628 q 414 585 431 599 q 388 550 397 572 l 388 550 z "},"c":{"ha":947,"x_min":67,"x_max":885,"o":"m 199 744 q 329 813 275 757 q 331 813 329 813 q 332 814 332 813 q 397 822 361 822 q 462 818 432 822 q 526 820 492 814 q 588 847 561 826 q 619 846 599 847 q 651 843 640 844 q 664 826 656 832 q 677 818 672 819 q 697 815 682 817 q 715 813 713 814 q 733 751 718 774 q 783 722 747 728 q 806 710 803 721 q 802 688 808 700 q 797 665 796 676 q 813 650 799 654 q 815 586 814 629 q 818 521 817 543 l 817 519 q 682 514 731 400 q 666 545 674 531 q 645 574 658 560 q 625 597 632 589 q 599 619 618 604 q 575 638 579 635 q 547 659 571 642 q 521 676 522 676 q 483 686 500 686 q 456 681 467 686 q 435 665 444 676 q 419 642 425 653 q 406 615 414 632 q 392 589 397 597 q 347 565 378 576 q 294 537 315 553 q 268 490 274 521 q 268 456 268 476 q 255 403 256 431 q 261 356 254 376 q 278 306 268 335 q 290 258 288 278 q 304 241 294 254 q 319 222 314 228 q 337 210 325 217 q 361 206 349 204 q 385 190 374 203 q 402 165 396 178 q 423 147 408 153 q 457 151 438 140 q 556 163 521 104 q 571 163 558 163 q 586 165 583 164 q 600 167 589 165 q 615 169 611 168 q 626 174 618 171 q 637 183 633 178 q 644 194 640 188 q 650 209 649 200 q 653 229 651 218 q 683 233 660 231 q 716 239 706 236 q 738 254 726 242 q 753 290 750 267 q 788 301 771 300 q 822 296 806 303 q 851 281 839 289 q 879 257 863 272 q 883 158 881 231 q 843 133 863 150 q 812 103 824 117 q 783 65 800 90 q 751 56 763 58 q 703 38 743 49 q 651 0 663 26 q 599 -14 615 -10 q 551 -25 583 -18 q 497 -35 518 -32 q 447 -37 475 -37 q 392 -33 418 -37 q 351 -1 376 -15 q 313 19 326 14 q 263 35 299 24 q 229 65 250 46 q 135 132 192 128 q 128 176 132 138 q 101 229 124 215 q 97 261 100 239 q 94 293 94 283 q 67 521 74 467 q 157 685 108 594 q 199 744 172 707 z "},"d":{"ha":1083,"x_min":63,"x_max":1019,"o":"m 81 518 q 176 743 156 693 q 185 769 185 756 q 213 790 194 776 q 240 811 231 804 q 351 817 286 803 q 462 844 417 832 q 575 840 507 856 q 622 831 597 831 q 658 858 647 832 q 658 913 669 888 q 617 951 647 938 q 501 1007 610 956 q 474 1047 490 1024 q 475 1067 483 1056 q 550 1123 506 1106 q 637 1138 594 1140 q 729 1136 679 1136 q 749 1129 736 1125 q 813 1056 794 1099 q 833 953 832 1014 q 830 778 833 915 q 831 554 826 642 q 854 381 836 467 q 834 303 839 336 q 836 238 829 269 q 873 184 843 206 q 954 151 903 163 q 962 140 957 144 q 970 132 967 135 q 983 127 974 129 q 994 124 992 125 q 1007 122 996 124 q 1019 121 1018 121 q 991 49 1011 75 q 944 15 971 22 q 887 6 918 8 q 825 7 856 4 q 765 3 794 10 q 707 24 731 18 q 656 31 683 31 q 605 13 628 31 q 563 -37 582 -4 q 240 26 392 33 q 175 92 194 72 q 174 115 176 104 q 168 134 171 126 q 157 153 165 142 q 145 167 149 164 q 129 183 142 171 q 114 197 117 196 q 92 242 107 213 q 71 286 78 271 q 83 389 64 319 q 90 496 101 458 q 81 518 88 507 m 558 633 q 401 682 501 751 q 292 487 317 619 q 318 254 267 354 q 390 164 351 192 q 494 153 429 136 q 602 210 568 172 q 624 321 636 249 q 669 396 654 368 q 692 452 685 424 q 697 498 700 481 q 674 539 693 515 q 630 582 656 563 q 558 633 604 601 z "},"e":{"ha":899,"x_min":76,"x_max":831,"o":"m 76 563 q 93 626 90 579 q 118 690 96 672 l 118 692 l 119 693 l 119 694 l 121 696 l 121 697 l 121 699 l 122 700 l 122 701 l 124 703 l 124 704 l 125 706 l 125 707 l 126 710 l 126 711 l 128 713 l 128 714 l 128 715 l 129 717 l 129 718 l 131 719 l 131 721 l 132 722 l 132 724 l 133 725 l 133 726 l 133 728 l 135 729 l 135 731 l 136 732 l 136 733 l 138 735 l 138 736 l 138 738 l 139 739 l 139 740 l 140 742 l 140 743 l 142 744 l 142 746 l 143 747 l 143 749 l 143 750 l 144 751 l 144 753 l 146 754 l 146 756 l 147 757 l 149 757 l 150 758 l 151 760 l 153 760 l 154 761 l 156 761 l 157 763 l 158 763 l 160 764 l 161 764 l 163 765 l 164 765 l 165 767 l 167 768 l 168 768 l 169 769 l 171 769 l 172 771 l 174 771 l 175 772 l 176 772 l 178 774 l 179 774 l 181 775 l 182 775 l 183 776 l 185 778 l 186 778 l 188 779 l 189 779 l 190 781 l 192 781 l 193 782 l 194 782 l 196 783 l 197 783 l 199 785 l 200 785 l 201 786 l 203 788 l 204 788 l 206 789 l 207 789 l 208 790 l 210 790 l 211 792 q 418 829 324 825 q 610 800 513 833 q 790 690 708 767 q 804 626 804 674 q 829 561 804 579 q 826 368 828 438 q 813 365 824 367 q 797 363 801 364 q 785 358 793 361 q 773 350 778 356 q 765 335 768 344 q 716 328 743 324 q 667 342 689 332 q 619 353 646 353 q 571 333 592 353 q 545 338 565 335 q 517 342 525 342 q 493 344 508 343 q 465 340 478 344 q 440 328 453 335 q 420 317 432 325 q 401 302 408 308 q 381 292 393 296 q 357 297 368 289 q 335 313 350 301 q 313 327 321 324 q 292 333 304 331 q 272 328 281 336 q 254 303 263 321 q 248 285 250 293 q 247 270 246 278 q 250 257 249 263 q 258 244 251 251 q 266 234 264 238 q 278 224 268 231 q 290 215 288 217 q 305 205 293 213 q 319 194 317 197 q 419 158 368 163 q 509 165 469 153 q 603 203 549 176 q 663 207 621 203 q 735 210 704 211 q 793 199 765 208 l 796 203 q 795 138 796 181 q 794 76 794 96 l 793 75 l 792 74 l 790 74 l 789 72 l 788 72 l 786 71 l 785 71 l 783 69 l 782 68 l 781 68 l 779 67 l 778 67 l 776 65 l 775 65 l 774 64 l 772 63 l 771 63 l 769 61 l 768 61 l 767 60 l 764 58 l 763 57 l 761 57 l 760 56 l 758 56 l 757 54 l 756 54 l 754 53 l 753 51 l 751 51 l 750 50 l 749 50 l 747 49 l 746 49 l 744 47 l 743 46 l 742 46 l 740 44 l 739 44 l 738 43 l 736 42 l 733 40 q 444 -25 650 22 q 384 -37 414 -36 q 331 -31 354 -37 q 281 -10 307 -24 q 235 17 256 4 q 188 47 214 31 q 140 72 161 64 q 81 203 160 150 q 76 563 79 343 m 378 560 q 353 555 367 560 q 338 544 340 550 q 345 517 333 525 q 376 510 357 510 q 387 514 381 511 q 402 524 393 517 q 418 535 411 531 q 403 546 413 539 q 388 556 393 553 q 378 560 383 560 z "},"f":{"ha":1018,"x_min":65,"x_max":958,"o":"m 197 -32 q 183 -31 193 -31 q 149 -29 161 -31 q 118 -23 138 -28 q 89 -10 99 -18 q 72 13 79 -3 q 69 50 65 29 q 117 129 78 97 q 213 150 156 161 q 275 147 271 139 q 310 269 301 204 q 321 419 319 335 q 328 546 322 504 q 314 610 332 588 q 260 638 296 633 q 178 676 206 644 q 150 757 151 708 q 171 804 150 790 q 225 825 192 818 q 272 844 258 832 q 324 878 306 854 q 347 927 343 903 q 356 984 350 951 q 372 1036 361 1017 q 527 1118 456 1092 q 683 1136 599 1144 q 850 1074 768 1128 q 953 950 950 1007 q 864 806 957 893 q 814 790 836 792 q 774 801 792 789 q 745 824 757 813 q 716 858 733 836 q 689 892 699 881 q 651 922 671 910 q 606 935 632 935 q 561 911 579 935 q 548 869 542 889 q 571 837 554 850 q 611 817 588 824 q 697 713 688 792 q 497 214 418 528 q 527 165 507 179 q 572 152 547 150 q 626 156 597 154 q 730 134 693 161 q 760 39 767 107 q 733 -22 754 -4 q 683 -37 713 -40 q 615 -33 653 -35 q 406 -31 550 -26 q 197 -32 263 -36 z "},"g":{"ha":1024,"x_min":64,"x_max":950,"o":"m 193 717 q 219 946 178 817 q 224 974 221 956 q 229 1004 228 993 q 338 1049 289 1032 q 445 1076 388 1065 q 561 1081 503 1086 q 679 1054 619 1075 q 791 1061 711 1043 q 908 1074 871 1079 q 940 1039 925 1057 q 950 946 944 1004 q 946 913 949 935 q 942 882 943 892 q 852 886 890 888 q 796 851 814 885 q 789 753 778 818 q 785 722 792 739 q 765 683 778 706 q 747 651 753 661 q 667 526 688 558 q 642 522 658 525 q 618 517 626 518 q 568 519 596 522 q 536 494 540 517 q 540 471 533 479 q 556 462 547 463 q 581 460 565 461 q 603 458 597 460 q 679 447 608 458 q 713 427 694 433 q 744 422 731 421 q 780 426 757 422 q 814 429 803 429 q 855 397 836 415 q 885 363 874 379 q 907 322 897 346 q 922 281 917 297 q 931 236 926 265 q 937 192 935 207 q 941 144 939 176 q 944 99 943 111 q 910 65 922 78 q 892 56 906 63 q 871 46 878 50 q 672 -17 776 4 q 467 -37 567 -37 q 260 -28 368 -37 q 208 6 242 -17 q 161 36 175 28 q 115 84 146 51 q 67 133 83 117 q 64 161 69 147 q 90 249 88 189 q 97 324 92 308 q 144 520 113 389 q 193 717 176 651 m 711 293 q 654 325 686 321 q 582 324 622 329 q 519 322 542 318 q 490 324 513 322 q 454 328 467 326 q 415 336 435 338 q 383 331 394 335 q 347 313 371 326 q 317 297 324 300 q 287 274 297 288 q 273 251 276 261 q 272 222 269 240 q 278 193 275 203 q 288 163 281 183 q 498 71 390 81 q 690 126 606 61 q 717 128 701 131 q 746 120 732 125 q 770 126 760 115 q 782 164 781 136 q 803 209 800 190 q 796 239 807 228 q 771 258 785 250 q 739 274 757 265 q 711 293 721 283 m 328 493 q 342 467 339 471 q 392 492 360 475 q 388 499 390 493 q 383 508 385 506 q 379 511 381 511 q 328 493 369 508 m 581 726 q 588 735 582 729 q 611 773 604 760 q 624 807 618 786 q 620 846 631 828 q 585 882 610 864 q 514 932 554 924 q 442 926 474 940 q 381 885 410 911 q 347 797 343 850 q 393 697 351 743 q 438 663 417 672 q 478 659 458 653 q 512 674 499 665 q 547 700 525 682 q 581 726 569 718 z "},"h":{"ha":1110,"x_min":58,"x_max":1047,"o":"m 89 1082 q 122 1097 106 1085 q 151 1122 139 1110 q 181 1142 163 1135 q 221 1143 200 1150 q 301 1102 272 1129 q 339 1039 331 1075 q 349 968 347 1003 q 352 890 350 933 q 364 818 354 847 q 369 739 350 749 q 450 765 389 729 q 683 827 586 839 q 872 717 781 815 l 871 717 q 874 690 871 707 q 878 663 876 672 l 878 663 q 907 553 847 590 q 908 522 907 543 q 908 490 908 500 q 903 392 833 443 q 910 327 915 365 q 898 262 904 289 q 913 197 892 235 q 913 182 913 193 q 913 164 913 171 q 949 137 925 142 q 992 136 972 132 q 1033 129 1013 140 q 1020 49 1046 72 q 938 28 994 25 q 922 27 932 28 q 906 26 911 26 q 849 24 875 17 q 792 29 824 32 q 739 1 760 26 q 710 -6 724 0 q 676 3 697 -3 q 674 35 676 13 q 670 72 671 58 q 674 101 669 86 q 692 119 679 115 q 751 160 732 135 q 769 211 769 185 q 769 269 769 238 q 772 326 769 300 q 740 615 753 499 q 676 647 713 653 q 456 553 542 682 q 433 504 447 536 q 413 457 419 472 q 386 442 396 449 q 367 422 376 435 q 357 392 357 408 q 364 335 360 371 q 371 275 368 299 q 383 220 374 251 q 405 167 392 189 q 442 124 418 146 q 501 89 467 103 q 510 60 518 81 q 481 28 501 39 q 401 0 447 6 q 316 -1 354 -6 q 232 -3 278 3 q 153 -31 186 -8 q 122 -37 138 -31 q 92 -29 107 -32 q 82 0 90 -14 q 86 32 83 8 q 92 67 89 56 q 102 94 94 78 q 123 121 110 111 q 157 138 136 131 q 215 183 200 154 q 223 238 229 211 q 210 301 217 265 q 210 360 204 338 q 208 586 210 439 q 210 682 210 650 q 210 700 210 689 q 211 717 211 711 q 213 790 207 743 q 216 874 219 836 q 186 943 213 913 l 185 944 q 141 970 171 954 q 90 1003 111 986 q 58 1046 69 1021 q 89 1082 81 1074 z "},"i":{"ha":933,"x_min":64,"x_max":861,"o":"m 293 150 q 373 172 350 153 q 392 222 396 192 q 364 294 389 251 q 365 317 364 306 q 364 339 365 328 q 360 359 363 350 q 349 377 357 368 q 329 392 342 386 q 360 521 350 479 q 364 565 367 544 q 360 599 361 585 q 349 624 358 613 q 333 644 340 636 q 311 658 325 651 q 286 667 297 664 q 258 673 275 669 q 228 678 240 676 q 198 681 215 679 q 169 686 181 683 q 168 735 169 701 q 167 785 167 768 q 208 813 175 790 q 233 821 224 810 q 458 828 379 825 q 459 825 458 826 q 461 822 460 824 q 462 824 461 824 q 464 825 463 825 q 625 685 464 825 q 610 667 622 682 q 593 646 599 653 q 568 588 575 621 q 562 535 561 556 q 567 472 563 514 q 572 415 571 429 q 572 376 571 403 q 567 333 571 363 q 562 286 563 304 q 565 244 561 268 q 583 202 568 221 q 625 169 599 183 q 697 144 649 169 q 778 128 746 118 q 797 117 782 125 q 816 107 811 110 q 832 97 821 104 q 847 84 843 89 q 856 69 850 79 q 860 51 861 60 q 856 31 860 43 q 844 4 853 18 q 783 -22 821 -7 q 560 -32 629 -29 q 478 -33 535 -32 q 398 -35 422 -35 q 317 -33 374 -35 q 265 -35 297 -32 q 209 -37 232 -37 q 159 -33 186 -37 q 110 -12 132 -29 q 71 33 88 4 q 104 129 64 78 q 163 137 124 132 q 234 145 203 142 q 293 150 265 149 m 469 832 q 471 831 471 831 q 472 831 471 832 q 464 825 465 826 q 463 826 464 825 q 461 828 461 826 l 461 822 q 461 828 461 824 q 460 828 461 828 q 458 828 458 828 q 451 839 457 831 q 469 832 465 833 m 451 838 q 439 851 446 844 q 427 860 432 857 q 412 868 422 864 q 398 874 401 872 q 381 878 394 875 q 365 883 367 882 q 350 899 360 889 q 335 914 340 910 q 365 1076 310 1017 q 410 1105 375 1082 q 465 1140 446 1128 q 495 1122 475 1133 q 525 1104 515 1110 q 557 1074 544 1088 q 581 1041 569 1060 q 598 1004 593 1022 q 601 964 603 986 q 590 919 600 942 q 528 873 568 903 q 472 831 489 843 q 471 831 471 832 q 469 832 471 831 q 451 838 465 833 z "},"j":{"ha":804,"x_min":-8,"x_max":733,"o":"m 579 813 q 568 826 575 819 q 556 835 561 832 q 540 843 550 839 q 526 849 529 847 q 508 854 522 850 q 492 858 494 858 q 461 890 482 869 q 492 1054 436 994 q 543 1087 508 1065 q 594 1119 578 1108 q 656 1083 617 1106 q 687 1052 674 1067 q 712 1019 700 1038 q 728 982 724 1000 q 732 941 733 964 q 721 894 731 918 q 660 849 700 879 q 600 806 619 819 q 599 806 599 806 q 579 813 593 808 m 714 276 q 718 231 713 257 q 728 185 724 206 q 733 141 732 164 q 719 98 733 118 q 676 63 706 78 q 676 -25 676 17 q 665 -106 675 -67 q 635 -178 654 -146 q 580 -237 615 -211 q 494 -279 544 -264 l 294 -292 q 201 -245 238 -274 q 150 -167 165 -217 q 139 96 -8 -32 q 187 103 157 97 q 237 111 217 108 q 281 111 257 114 q 317 97 304 108 q 338 56 331 85 q 342 -17 346 28 q 281 -74 289 -37 q 317 -136 274 -111 q 363 -155 340 -149 q 411 -159 386 -161 q 454 -135 436 -157 q 479 -75 472 -114 l 479 -74 q 522 -42 507 -60 q 539 -1 536 -24 q 540 40 542 22 q 532 87 538 58 q 525 131 526 115 q 529 254 532 200 q 529 378 526 308 q 547 504 532 449 q 552 591 563 557 q 514 638 542 625 q 447 654 486 650 q 367 651 408 658 q 341 691 363 672 q 302 729 319 710 q 286 775 285 749 q 349 844 307 799 q 378 844 358 844 q 410 844 399 844 q 471 801 436 814 q 538 792 506 789 q 608 798 571 796 q 678 797 646 800 l 682 801 q 688 770 683 792 q 693 738 692 749 q 697 626 700 675 q 695 516 693 578 q 713 407 697 454 q 713 341 713 385 q 714 276 714 297 z "},"k":{"ha":1147,"x_min":63,"x_max":1075,"o":"m 218 175 q 274 215 267 182 q 235 286 282 249 q 240 555 225 375 q 244 826 256 735 q 241 856 243 835 q 238 883 239 876 q 233 907 236 890 q 226 931 231 924 q 216 950 222 938 q 201 969 210 963 q 179 985 192 976 q 150 999 167 993 q 89 1041 113 1014 q 79 1110 65 1068 q 93 1137 85 1126 q 117 1153 101 1147 q 140 1160 132 1158 q 171 1164 149 1163 q 199 1167 193 1165 q 429 1001 397 1189 q 419 926 428 981 q 408 841 411 871 q 409 767 406 811 q 425 685 413 722 q 429 635 433 663 q 435 588 425 607 q 476 574 444 568 q 523 591 501 579 q 563 624 544 603 q 580 672 581 644 q 558 736 579 699 q 545 751 558 738 q 526 772 532 765 q 560 805 538 783 q 596 838 583 826 q 936 843 900 843 q 957 844 940 843 q 980 844 974 844 q 1000 842 986 843 q 1020 838 1014 842 q 1035 828 1026 833 q 1047 812 1043 822 q 1053 788 1051 801 q 1029 698 1058 739 q 957 656 1000 657 q 792 615 857 654 q 722 492 728 575 q 734 392 718 439 q 784 304 750 344 q 853 233 818 264 q 936 169 889 203 q 967 155 949 163 q 999 143 985 147 q 1031 130 1014 139 q 1055 111 1047 121 q 1069 83 1063 101 q 1067 40 1075 64 q 1028 -19 1058 1 q 965 -37 997 -39 q 906 -32 933 -36 q 695 -12 817 -14 q 479 -16 574 -11 q 269 -4 385 -21 q 63 57 154 13 q 83 82 67 61 q 104 109 99 103 q 124 131 110 115 q 151 152 139 146 q 181 165 163 158 q 218 175 199 172 m 464 317 q 401 264 410 299 q 433 197 393 229 q 458 174 443 189 q 483 149 472 160 q 510 124 494 138 q 539 106 526 111 q 571 97 551 101 q 608 101 590 93 q 626 222 685 124 q 594 288 614 249 q 581 301 589 294 q 566 310 572 307 q 549 316 560 314 q 533 319 539 318 q 515 321 528 321 q 499 320 503 321 q 481 319 494 319 q 464 317 467 318 z "},"l":{"ha":996,"x_min":71,"x_max":922,"o":"m 113 976 q 92 1030 111 989 q 83 1099 72 1071 q 113 1128 103 1118 q 468 1140 336 1135 q 498 1135 478 1138 q 528 1131 518 1132 q 551 1105 542 1118 q 569 1071 561 1092 q 581 1042 578 1050 q 592 1004 585 1033 q 600 971 600 975 q 604 938 603 949 q 599 724 601 865 q 594 517 596 583 q 580 459 576 482 q 590 401 583 436 q 592 343 597 365 q 608 190 564 233 q 761 161 653 147 q 804 140 779 147 q 844 130 829 132 q 892 125 860 128 q 922 90 914 100 q 856 -37 911 -3 q 748 -36 819 -37 q 640 -33 676 -35 q 491 -10 576 -12 q 340 -15 406 -8 q 189 -10 274 -21 q 159 -8 179 -8 q 127 -5 139 -7 q 101 3 115 -3 q 81 25 88 10 q 74 65 74 40 q 107 148 72 125 q 192 160 142 171 q 311 155 264 144 q 379 197 358 165 q 406 277 400 229 q 404 385 413 325 q 402 504 404 422 q 401 649 400 586 q 408 768 403 711 q 372 919 418 874 q 224 965 326 964 q 113 976 218 965 z "},"m":{"ha":1125,"x_min":69,"x_max":1067,"o":"m 69 753 q 85 788 75 774 q 107 810 96 803 q 135 819 118 817 q 163 819 151 821 q 196 816 175 818 q 226 813 217 814 l 226 813 q 276 793 250 794 q 319 800 301 792 q 364 822 338 808 q 406 840 390 836 q 433 846 429 846 q 486 827 472 832 q 534 815 500 822 q 588 809 568 807 q 635 821 607 811 q 686 850 663 831 q 783 846 719 849 q 878 842 847 843 q 914 785 892 821 q 975 674 921 722 q 976 654 967 663 q 977 557 976 622 q 978 458 978 492 q 978 364 978 429 q 979 264 979 299 q 1007 164 911 196 q 1044 35 1065 100 q 788 -24 990 22 q 721 -15 747 -7 q 656 -32 694 -22 q 589 -33 617 -42 q 552 -17 576 -28 q 524 -3 528 -6 q 511 0 519 -3 q 456 15 475 11 q 406 22 436 19 q 349 13 375 24 q 300 -19 324 3 q 231 0 269 13 q 153 10 183 3 q 105 35 124 18 q 93 83 86 51 q 135 163 100 115 q 132 322 194 250 q 100 361 111 347 q 154 448 143 403 q 151 534 165 493 q 101 622 138 575 q 88 676 97 640 q 74 729 78 711 q 75 739 75 733 q 69 753 75 747 m 783 167 q 817 235 813 197 q 814 321 821 274 q 810 394 807 368 q 815 443 811 403 q 819 501 819 483 q 813 547 819 518 q 789 599 806 575 q 707 611 763 633 q 717 560 707 611 q 692 552 711 557 q 665 544 672 547 q 647 534 658 542 q 634 517 635 526 q 637 494 633 508 q 654 458 640 479 q 667 401 667 435 q 662 336 667 367 q 655 274 657 306 q 667 213 653 242 q 718 163 682 183 q 783 167 754 136 m 357 590 q 297 492 282 561 q 301 372 307 425 q 299 251 294 318 q 332 135 304 185 q 372 115 353 119 q 402 111 390 110 q 428 125 414 113 q 447 145 442 138 q 466 174 453 153 q 483 200 479 194 q 470 231 479 211 q 456 263 461 251 q 461 289 465 274 q 483 351 482 318 q 474 428 485 385 q 463 493 464 472 q 458 589 481 546 q 447 645 458 625 q 401 663 436 665 q 376 653 386 661 q 365 638 367 644 q 360 613 363 631 q 357 590 357 594 z "},"n":{"ha":1149,"x_min":63,"x_max":1094,"o":"m 944 271 q 955 193 935 225 q 1028 163 975 161 q 1064 3 1094 104 q 884 -18 1004 8 q 699 -33 764 -44 q 678 -13 692 -26 q 655 10 665 0 q 635 31 644 21 q 651 128 647 103 q 733 231 722 167 q 738 328 753 264 q 739 426 739 394 q 760 468 754 447 q 760 511 765 489 q 749 547 754 533 q 728 587 743 561 q 710 622 714 613 q 705 644 707 628 q 697 669 703 661 q 674 679 690 678 q 649 683 665 679 q 622 687 632 686 q 599 680 611 688 q 582 653 588 672 q 558 633 574 639 q 528 625 543 626 q 499 615 513 624 q 479 588 485 606 q 381 261 360 460 q 504 128 368 133 q 508 88 506 117 q 513 40 511 60 q 517 0 514 19 q 447 -33 474 -21 q 317 -4 408 -25 l 315 -4 l 314 -4 l 313 -4 l 311 -4 l 310 -4 l 308 -4 l 307 -4 l 306 -4 l 304 -4 l 303 -4 l 301 -4 l 300 -4 l 299 -4 l 297 -4 l 296 -4 l 294 -4 l 293 -4 l 292 -4 l 290 -4 l 289 -4 l 288 -4 l 286 -4 l 285 -4 l 283 -4 l 282 -4 l 281 -4 l 279 -4 l 278 -3 l 276 -3 l 275 -3 l 274 -3 l 272 -3 l 271 -3 l 269 -3 l 268 -3 l 267 -3 l 265 -3 l 264 -3 l 263 -3 l 261 -3 l 260 -3 l 258 -3 l 257 -3 l 256 -3 l 254 -3 l 253 -3 l 251 -3 l 250 -3 l 249 -3 l 247 -3 l 246 -3 l 244 -3 l 243 -3 l 242 -3 l 240 -3 l 239 -3 l 238 -3 l 236 -3 l 235 -3 l 233 -3 l 232 -3 l 231 -3 l 229 -3 l 228 -3 l 226 -3 l 225 -3 l 224 -3 l 222 -3 l 221 -3 l 219 -1 l 218 -1 l 217 -1 l 215 -1 l 214 -1 l 213 -1 l 211 -1 l 210 -1 l 208 -1 l 207 -1 l 206 -1 l 204 -1 l 203 -1 l 201 -1 l 200 -1 l 199 -1 l 197 -1 l 196 -1 l 194 -1 l 193 -1 l 192 -1 l 190 -1 l 189 -1 l 188 -1 l 186 -1 l 185 -1 l 183 -1 l 182 -1 l 181 -1 l 179 -1 l 178 -1 l 176 -1 l 175 -1 l 174 -1 l 172 -1 l 171 -1 l 169 -1 l 168 -1 l 167 -1 l 165 -1 l 164 -1 l 163 -1 l 161 -1 l 160 0 l 158 0 l 157 0 l 156 0 l 154 0 l 153 0 l 151 0 l 150 0 l 149 0 l 147 0 l 146 0 l 144 0 l 143 0 l 142 0 l 140 0 l 139 0 l 138 0 l 136 0 l 135 0 l 133 0 l 132 0 l 131 0 l 129 0 l 128 0 l 126 0 l 125 0 l 124 0 l 121 0 q 119 165 119 79 q 202 210 175 181 q 221 296 229 240 q 216 406 210 357 q 219 517 222 454 q 190 625 215 579 q 63 722 119 678 q 97 783 76 760 q 138 815 117 806 q 188 826 158 824 q 239 825 217 828 q 294 817 261 822 q 349 811 328 813 q 486 808 425 739 q 740 849 668 838 q 869 750 840 772 q 897 715 892 724 q 933 488 910 636 l 933 489 q 943 386 932 460 q 944 271 954 313 z "},"o":{"ha":951,"x_min":69,"x_max":889,"o":"m 69 351 q 72 481 71 396 q 140 664 74 485 q 299 806 236 715 q 335 820 311 810 q 372 835 360 831 q 435 844 407 849 q 500 841 464 839 q 561 864 536 843 l 571 863 l 579 868 q 689 781 611 783 q 747 731 722 765 q 797 662 772 697 q 849 608 822 626 q 879 544 850 563 q 876 485 879 526 q 872 422 856 467 q 881 358 889 378 q 858 304 864 336 q 856 246 853 272 q 853 189 858 219 q 844 168 843 182 q 826 144 836 157 q 804 117 817 132 q 785 93 792 101 q 740 83 761 94 q 708 60 719 72 q 681 26 697 47 q 656 -7 665 4 q 599 -12 625 -15 q 542 -13 574 -8 q 490 -37 511 -18 q 355 1 442 -24 q 236 35 268 25 q 219 87 238 67 q 171 124 201 107 q 129 154 140 140 q 103 238 126 164 q 69 351 81 313 m 568 651 q 512 665 533 660 q 460 672 490 669 q 411 672 431 675 q 369 660 392 669 q 334 633 347 650 q 310 585 321 615 q 296 515 300 556 q 272 497 290 510 q 246 476 253 483 q 240 452 239 468 q 261 417 242 436 q 337 201 253 274 q 556 161 421 128 q 617 185 569 172 q 679 225 665 197 q 688 257 689 239 q 717 322 711 288 q 719 410 724 357 q 717 481 715 464 q 636 621 692 567 q 568 651 603 636 z "},"p":{"ha":1074,"x_min":63,"x_max":1007,"o":"m 156 690 q 108 697 139 692 q 63 704 78 703 q 158 826 90 796 q 297 814 225 856 q 353 792 325 799 q 401 786 381 786 q 449 794 422 786 q 490 810 475 803 q 534 832 506 817 q 576 854 563 847 q 610 831 585 824 q 708 831 647 831 q 770 822 728 828 q 835 813 813 815 q 887 771 851 799 q 940 729 922 743 q 982 610 971 675 q 996 462 993 544 q 1006 336 999 379 q 1003 321 1006 332 q 1000 304 1001 310 q 983 281 989 294 q 975 260 976 267 q 972 231 974 253 q 971 206 971 208 q 960 195 969 204 q 947 183 950 186 q 936 172 944 181 q 926 160 928 164 q 917 147 924 156 q 909 133 911 139 q 904 118 907 126 q 901 101 901 110 q 900 83 900 93 q 788 30 863 65 q 675 -24 713 -6 q 651 -4 665 -11 q 627 5 636 3 q 597 8 618 7 q 571 8 576 8 q 540 19 558 10 q 507 37 522 29 q 476 48 492 44 q 449 40 461 51 q 429 3 436 29 q 417 -42 421 -22 q 416 -87 414 -62 q 428 -129 418 -112 q 463 -157 438 -146 q 528 -167 489 -168 q 607 -249 601 -165 q 499 -306 551 -278 q 481 -315 488 -310 l 479 -315 q 222 -304 432 -314 q 129 -247 160 -267 q 148 -217 142 -226 q 169 -196 154 -208 q 206 -178 185 -183 q 305 -111 283 -160 q 286 11 326 -62 q 291 34 290 25 q 286 55 292 43 q 276 74 281 67 q 263 91 271 81 q 250 108 254 101 q 256 132 260 118 q 286 222 278 176 q 290 319 294 268 q 276 408 285 371 q 253 501 268 444 q 231 508 244 513 q 240 549 231 524 q 252 588 249 574 q 246 631 256 603 q 247 669 250 656 q 231 688 243 683 q 210 693 219 693 q 182 691 200 693 q 156 690 164 689 m 746 156 q 806 199 782 175 q 845 244 831 222 q 865 298 860 267 q 872 352 871 329 q 866 412 872 375 q 854 470 860 449 q 838 531 849 492 q 824 562 833 540 q 811 594 815 583 q 798 623 807 604 q 782 651 789 642 q 764 672 775 660 q 742 689 753 685 q 716 697 731 693 q 685 698 701 701 q 648 687 668 694 q 604 665 628 679 q 568 661 593 663 q 529 658 543 660 q 503 641 515 656 q 489 597 490 626 q 476 572 476 588 q 461 565 471 571 q 447 558 451 560 q 415 472 425 510 q 411 388 406 433 q 443 300 417 342 q 479 209 449 249 q 553 149 510 169 q 648 129 596 129 q 746 156 700 129 z "},"q":{"ha":1078,"x_min":71,"x_max":1015,"o":"m 1014 704 q 969 697 1000 703 q 921 690 938 692 q 894 691 913 689 q 867 693 876 693 q 845 688 857 693 q 830 669 833 683 q 831 631 826 656 q 824 588 821 603 q 837 549 828 574 q 846 508 846 524 q 824 501 833 513 q 801 408 808 444 q 788 319 793 371 q 790 222 782 268 q 821 132 799 176 q 826 108 818 118 q 814 91 822 101 q 801 74 806 81 q 790 55 796 67 q 786 34 785 43 q 790 11 788 25 q 772 -111 750 -62 q 871 -178 793 -160 q 907 -196 892 -183 q 928 -217 922 -208 q 947 -247 935 -226 q 854 -304 893 -281 q 597 -315 653 -312 q 578 -306 589 -310 q 524 -277 560 -296 q 471 -249 489 -258 q 550 -167 475 -165 q 614 -157 589 -168 q 649 -129 639 -146 q 661 -87 660 -112 q 659 -42 663 -62 q 649 3 656 -22 q 628 40 640 29 q 600 48 615 51 q 569 36 585 44 q 536 19 554 28 q 506 8 518 10 q 479 8 500 8 q 449 5 458 7 q 426 -4 440 3 q 401 -24 411 -11 q 289 30 364 -6 q 176 83 214 65 q 176 101 176 93 q 172 118 175 110 q 167 133 169 126 q 160 147 165 139 q 151 160 154 156 q 140 172 149 164 q 129 183 132 181 q 117 195 126 186 q 106 206 107 204 q 104 226 104 211 q 103 248 104 240 q 100 267 103 256 q 91 288 97 279 q 76 304 85 296 q 74 317 76 304 q 71 336 72 331 q 81 461 78 378 q 94 610 83 544 q 136 729 106 675 q 190 771 154 743 q 242 813 225 799 q 306 822 264 815 q 368 831 349 828 q 467 831 433 831 q 500 854 492 824 q 543 832 514 847 q 587 810 572 817 q 628 794 601 803 q 676 786 656 786 q 724 792 696 786 q 779 814 751 799 q 919 826 851 856 q 1014 704 986 796 m 239 531 q 222 470 228 492 q 210 412 217 449 q 206 352 204 375 q 212 298 207 329 q 231 244 217 267 q 270 199 246 222 q 331 156 294 175 q 428 129 376 129 q 524 149 481 129 q 597 209 567 169 q 633 300 628 249 q 665 388 660 342 q 661 472 671 433 q 629 557 651 510 q 615 565 625 560 q 600 572 606 571 q 588 597 600 588 q 574 641 586 626 q 547 658 561 656 q 508 661 533 660 q 472 665 483 663 q 429 687 450 679 q 392 698 408 694 q 361 697 376 701 q 335 689 346 693 q 313 672 325 685 q 294 651 301 660 q 278 623 288 642 q 265 594 269 604 q 252 562 261 583 q 239 531 243 540 z "},"r":{"ha":1033,"x_min":74,"x_max":967,"o":"m 553 804 q 836 807 676 835 q 839 804 838 806 q 965 681 922 722 q 950 582 960 646 q 938 493 940 518 q 924 490 933 492 q 911 488 915 489 q 899 484 907 486 q 888 478 892 482 q 879 469 883 475 q 871 457 875 464 q 811 458 833 458 q 744 551 794 528 q 724 571 731 556 q 717 601 718 586 q 708 628 717 615 q 681 643 700 640 q 577 604 617 621 q 506 565 538 588 q 461 522 475 543 q 441 465 447 500 q 438 390 435 429 q 453 292 442 351 q 451 226 410 260 q 440 190 453 217 q 431 149 426 163 q 475 144 435 136 q 526 150 504 150 q 561 147 547 150 q 583 133 575 143 q 594 115 590 122 q 597 89 597 107 q 594 61 596 71 q 589 30 593 51 q 583 -1 585 8 q 549 -19 572 -8 q 517 -35 526 -29 q 93 -4 349 -46 q 92 47 93 13 q 92 99 92 81 q 128 126 104 119 q 174 128 151 132 q 220 131 197 124 q 256 161 243 138 q 258 525 257 496 q 220 650 260 617 q 93 651 181 683 q 74 657 85 661 q 96 811 85 739 l 94 813 q 149 815 103 813 q 209 816 194 817 q 261 813 224 815 q 319 801 299 810 q 367 778 339 793 q 418 740 394 763 q 435 728 426 732 q 451 725 443 724 q 465 728 460 726 q 480 739 471 731 q 492 751 489 747 q 505 767 496 756 q 517 781 514 778 q 532 791 518 782 q 553 804 546 800 z "},"s":{"ha":901,"x_min":82,"x_max":850,"o":"m 182 382 q 99 515 115 461 q 110 627 82 569 q 221 772 138 685 l 222 774 l 224 775 l 225 776 l 226 776 l 228 778 l 229 779 l 231 781 l 232 782 l 233 782 l 235 783 l 236 785 l 238 786 l 239 786 l 240 788 l 242 789 l 243 790 l 244 790 l 246 792 l 247 793 l 249 794 l 250 796 l 253 797 q 377 822 293 796 q 510 840 461 849 q 581 811 531 804 q 695 808 650 821 q 759 764 740 796 q 783 685 778 732 q 775 581 788 638 q 768 550 769 565 q 678 547 717 536 q 596 596 640 558 q 336 649 458 718 q 312 628 329 642 q 285 605 294 614 q 279 579 276 596 q 304 542 282 563 q 338 524 319 529 q 372 517 357 518 q 410 517 386 517 q 444 517 433 518 q 539 506 485 485 q 564 490 550 496 q 587 484 578 485 q 615 484 596 483 q 640 485 633 485 q 690 453 657 474 q 739 422 722 432 q 833 157 850 306 q 808 109 824 133 q 778 70 792 85 q 740 31 764 56 q 704 -6 715 7 q 575 -36 592 -32 q 563 -26 569 -31 q 551 -19 556 -21 q 538 -17 546 -17 q 526 -17 531 -17 q 513 -21 522 -18 q 501 -25 504 -24 q 489 -31 499 -26 q 476 -37 479 -36 q 447 -37 468 -37 q 413 -37 425 -37 q 364 -19 390 -19 q 306 -26 338 -18 q 256 -36 274 -35 q 202 -13 235 -15 q 144 -16 169 -11 q 88 -7 118 -21 q 90 157 89 50 q 92 313 92 264 q 122 322 107 319 q 147 323 136 324 q 175 317 158 322 q 198 308 192 311 q 224 294 204 304 q 247 283 243 285 q 263 253 250 279 q 305 190 282 215 q 356 155 328 165 q 407 140 383 144 q 465 142 431 136 q 521 156 499 149 q 581 175 543 163 q 614 186 600 178 q 627 276 629 242 q 609 322 625 310 q 569 336 593 333 q 518 333 546 339 q 463 325 490 326 q 414 325 436 324 q 182 382 308 389 z "},"t":{"ha":1079,"x_min":63,"x_max":1018,"o":"m 413 1013 q 551 1172 418 1164 l 551 1174 q 591 1023 565 1121 q 628 885 617 925 q 677 832 649 849 q 733 816 706 815 q 794 821 761 817 q 856 831 826 825 q 914 829 885 836 q 961 783 946 799 q 883 651 906 690 q 814 646 854 650 q 765 646 797 646 q 715 646 732 646 q 692 658 706 647 q 668 676 678 668 q 644 681 658 685 q 618 654 631 676 q 602 610 613 638 q 583 563 592 583 q 567 519 575 543 q 560 481 560 494 q 565 457 560 468 q 577 419 581 439 q 568 378 574 400 q 558 340 563 357 q 566 309 553 322 q 615 292 579 296 q 624 263 619 276 q 605 207 600 231 q 649 164 610 183 q 683 153 667 154 q 710 151 700 151 q 733 164 719 151 q 749 181 746 176 q 767 205 753 185 q 782 228 781 225 q 820 253 804 233 q 844 294 836 274 q 868 334 851 315 q 910 357 885 353 q 944 333 918 326 q 1008 229 1018 293 q 985 198 986 215 q 994 166 983 181 q 1010 133 1006 151 q 1006 101 1015 115 q 942 35 957 78 q 846 -4 921 26 q 794 -17 813 -12 q 744 -28 775 -22 q 690 -35 713 -33 q 639 -37 667 -37 q 585 -33 611 -37 q 543 -7 572 -11 q 486 2 514 -3 q 447 33 458 7 q 383 393 376 219 q 383 425 390 408 q 393 448 385 433 q 406 473 401 463 q 408 497 411 483 q 389 522 406 510 q 392 555 390 533 q 393 586 393 576 q 408 593 403 590 q 416 603 413 596 q 414 619 419 610 q 385 669 406 653 q 340 684 365 685 q 285 681 315 683 q 129 740 181 667 q 97 744 118 742 q 65 747 76 746 q 64 762 65 751 q 63 778 63 772 q 131 794 100 779 q 206 844 161 808 q 260 888 250 881 q 330 863 303 864 q 369 880 357 863 q 388 918 382 897 q 399 968 393 939 q 413 1013 404 997 z "},"u":{"ha":1135,"x_min":64,"x_max":1082,"o":"m 64 765 q 169 858 106 801 l 179 857 q 224 822 194 836 q 281 800 253 808 q 336 778 310 792 q 377 738 363 765 q 388 667 392 711 q 397 558 403 606 q 393 447 392 510 q 415 339 394 385 q 414 283 415 329 q 406 249 407 265 q 409 221 404 233 q 421 199 414 208 q 440 180 428 189 q 462 165 453 171 q 484 152 471 160 q 504 140 497 144 q 549 132 525 131 q 592 155 572 133 q 617 211 613 176 q 660 239 631 226 q 715 261 690 251 q 760 288 740 271 q 778 335 781 304 q 750 411 776 365 q 760 456 753 425 q 772 503 768 488 q 775 544 779 525 q 768 576 771 563 q 753 601 765 589 q 733 620 742 613 q 708 635 724 628 q 679 648 692 643 q 649 660 667 653 q 621 672 632 667 q 629 793 622 690 l 629 793 q 878 799 822 797 q 943 691 921 749 q 967 572 965 633 q 964 459 969 511 q 949 337 958 407 q 939 224 940 267 q 939 181 938 199 q 946 152 940 164 q 956 133 951 140 q 972 123 960 126 q 990 118 983 119 q 1014 115 997 117 q 1039 113 1031 113 q 1040 17 1082 68 q 957 -17 992 -7 q 878 -20 922 -28 q 796 22 835 -12 q 726 46 758 56 q 681 -15 694 36 q 264 18 488 -71 q 237 74 249 44 q 217 127 225 103 q 203 187 208 151 q 194 242 197 222 q 190 303 192 263 q 188 360 189 344 q 188 422 188 375 q 188 479 188 468 q 187 515 188 504 q 184 547 186 525 q 177 579 182 568 q 163 605 172 590 q 139 628 154 619 q 103 643 124 638 q 64 765 103 644 z "},"v":{"ha":1146,"x_min":65,"x_max":1078,"o":"m 1054 836 q 1074 758 1072 801 q 1069 676 1076 714 q 960 627 1000 668 q 893 513 921 586 q 840 376 868 444 q 765 198 813 307 q 706 63 717 89 q 651 -13 686 15 q 572 -37 617 -42 q 508 -5 533 -33 q 458 76 483 24 q 268 557 318 389 q 229 618 256 600 q 153 647 203 636 q 138 651 150 649 q 119 655 125 653 q 103 660 114 657 q 87 669 92 664 q 76 681 82 674 q 67 698 69 688 q 68 721 65 708 q 169 825 81 815 q 227 832 182 826 q 288 840 272 838 q 342 843 304 842 q 403 842 381 844 q 458 831 426 839 q 517 811 489 824 q 544 679 532 740 q 492 634 504 658 q 490 587 481 610 q 515 542 500 564 q 542 494 531 519 q 546 450 553 469 q 544 433 546 444 q 543 399 543 411 q 543 367 543 388 q 546 335 543 347 q 554 311 549 324 q 570 293 560 299 q 596 289 581 288 q 635 310 628 293 q 631 351 642 328 q 615 399 621 374 q 615 444 608 425 q 669 510 651 486 q 699 557 688 533 q 708 593 710 581 q 689 622 706 606 q 648 649 672 638 q 579 678 624 660 q 644 778 585 688 q 742 840 711 771 q 1054 836 858 839 z "},"w":{"ha":1154,"x_min":63,"x_max":1093,"o":"m 778 549 q 776 573 776 557 q 774 599 775 589 q 763 618 772 608 q 738 631 754 628 q 719 686 722 661 q 724 728 717 711 q 749 758 732 744 q 787 781 767 772 q 835 796 807 789 q 1079 719 982 838 q 1087 681 1093 697 q 1063 650 1081 664 q 973 547 1004 610 q 935 429 942 485 q 919 299 929 374 q 890 176 908 224 q 880 138 883 158 q 874 91 876 118 q 869 50 872 64 q 751 -37 857 -32 q 649 47 671 -42 q 613 153 647 54 q 564 218 607 215 q 558 208 561 218 q 549 178 554 197 q 542 153 544 160 q 506 121 507 122 q 482 81 492 108 q 467 31 472 53 q 440 -6 461 8 q 381 -12 418 -19 q 324 16 346 -6 q 297 58 303 38 q 283 115 290 79 q 271 165 276 150 q 225 342 256 211 q 164 540 194 474 q 175 570 174 557 q 174 591 176 583 q 159 608 172 599 q 141 621 146 618 q 118 633 136 624 q 101 647 113 639 q 83 661 90 656 q 69 676 75 667 q 66 696 64 685 q 79 721 68 707 q 176 776 111 763 q 309 770 242 789 q 413 707 376 751 q 383 653 392 681 q 372 603 374 625 q 383 547 371 581 q 405 492 394 514 q 438 429 415 471 q 460 515 447 469 q 476 576 472 561 q 679 543 600 654 q 688 489 686 525 q 690 426 689 453 q 706 380 690 400 q 754 363 721 360 q 792 385 779 365 q 803 433 804 404 q 796 491 803 461 q 778 549 789 521 z "},"x":{"ha":1138,"x_min":65,"x_max":1064,"o":"m 168 138 q 238 151 207 136 q 288 192 268 167 q 326 243 308 217 q 368 296 344 269 q 419 335 392 322 q 417 411 444 346 q 332 544 389 476 q 228 632 275 613 q 135 657 203 642 q 75 738 67 672 q 153 803 83 801 q 444 807 186 804 q 490 774 476 794 q 501 731 503 753 q 486 678 499 708 q 475 635 475 653 q 481 607 475 617 q 503 591 488 597 q 534 583 519 585 q 571 582 549 582 q 610 704 665 621 l 610 704 q 611 767 610 725 q 715 805 661 800 q 849 796 769 810 q 956 781 929 782 q 1029 732 1025 776 q 1012 678 1031 701 q 964 651 993 654 q 870 622 911 650 q 809 561 829 594 q 760 483 789 528 q 704 415 731 439 q 681 375 682 396 q 704 333 679 354 q 768 274 735 314 q 826 201 801 233 q 891 144 850 169 q 982 117 932 118 q 1040 101 1018 114 q 1061 56 1063 89 q 974 -24 1058 -11 q 610 -12 765 -56 q 622 117 621 108 q 607 197 628 169 q 535 219 586 224 q 460 188 483 214 q 456 111 436 161 q 444 -11 481 40 q 189 -25 214 -25 q 121 -14 147 -26 q 90 38 94 -1 q 106 111 86 82 q 168 138 125 140 z "},"y":{"ha":1156,"x_min":56,"x_max":1094,"o":"m 1082 779 q 1078 713 1093 742 q 1029 676 1064 683 q 955 649 986 668 q 903 599 924 629 q 871 541 883 569 q 842 472 858 513 q 813 408 825 432 q 685 142 764 319 q 561 -118 606 -35 q 382 -300 496 -257 q 144 -269 268 -343 q 88 -219 108 -249 q 62 -162 68 -190 q 60 -97 56 -133 q 71 -31 64 -60 q 92 35 78 -3 q 119 84 103 68 q 156 97 136 100 q 194 88 176 94 q 236 67 211 81 q 275 47 261 53 q 287 15 278 35 q 301 -17 296 -6 q 311 -50 307 -29 q 308 -87 315 -71 q 303 -104 307 -92 q 297 -122 299 -117 q 297 -137 296 -128 q 304 -153 297 -147 q 324 -165 311 -160 q 408 -140 367 -183 q 429 -115 419 -129 q 451 -81 439 -100 q 469 -53 464 -61 q 460 -31 464 -42 q 458 -10 457 -21 q 460 8 460 0 q 467 27 461 15 q 476 44 472 39 q 487 62 479 49 q 497 79 494 75 q 522 103 514 90 q 528 131 529 115 q 524 154 526 146 q 513 183 522 163 q 501 208 503 203 q 406 384 476 268 q 310 568 335 500 q 252 652 292 614 q 154 693 213 690 q 95 728 111 696 q 97 801 79 761 q 141 849 113 839 q 217 850 169 860 q 736 844 450 801 q 992 850 894 868 q 1053 828 1033 842 q 1082 779 1074 814 m 654 476 q 673 513 661 490 q 693 553 685 536 q 708 590 701 569 q 715 631 715 611 q 704 668 714 650 q 644 703 686 701 q 567 663 601 704 q 515 631 533 647 q 493 599 497 614 q 496 565 489 585 q 512 533 503 546 q 538 499 521 521 q 561 467 554 478 q 614 431 590 426 q 654 476 638 435 z "},"z":{"ha":936,"x_min":49,"x_max":879,"o":"m 307 640 q 283 591 286 618 q 290 542 281 564 q 306 492 299 521 q 308 443 313 464 q 271 442 296 443 q 233 440 246 440 q 197 442 219 440 q 163 449 175 444 q 137 464 151 454 q 115 488 122 474 q 102 526 107 503 q 99 579 97 550 q 102 659 100 626 q 110 721 104 692 q 122 768 115 750 q 140 801 128 786 q 167 824 153 817 q 204 836 182 832 q 253 840 226 840 q 315 836 279 839 q 442 833 374 832 q 570 838 511 835 q 697 832 629 842 q 821 794 765 822 q 792 700 811 763 q 764 607 772 638 q 680 542 707 578 q 664 447 653 506 q 635 438 650 443 q 571 403 600 426 q 524 360 542 381 q 481 303 507 339 q 442 250 456 268 q 412 182 415 206 q 423 154 408 158 q 458 150 438 150 q 502 154 479 150 q 538 151 525 158 q 699 378 724 197 q 837 346 796 392 q 864 208 878 300 q 859 168 863 197 q 853 126 856 139 q 844 89 850 114 q 831 51 838 64 q 810 22 824 39 q 778 -3 796 6 q 736 -17 761 -11 q 679 -21 711 -22 q 570 -17 649 -21 q 450 -14 492 -14 q 345 -18 408 -14 q 229 -35 282 -22 q 93 53 133 -56 q 129 243 49 174 q 183 288 154 265 q 249 340 211 311 q 304 383 288 369 q 362 423 340 393 q 402 490 383 453 q 443 544 421 526 q 485 589 475 569 q 483 623 494 608 q 453 647 471 638 q 404 667 435 657 q 392 669 403 667 q 377 671 381 671 q 365 672 374 671 q 351 672 356 672 q 340 669 347 671 q 327 663 332 667 q 317 654 322 660 q 307 640 311 649 z "},"":{"ha":931,"x_min":76,"x_max":865,"o":"m 838 760 q 835 646 838 731 q 833 593 833 615 q 829 549 832 571 q 825 517 826 528 q 819 483 824 506 q 812 453 814 461 q 801 414 810 444 q 789 369 793 383 q 783 349 786 357 q 778 335 781 342 q 773 324 775 328 q 765 310 771 321 q 756 290 760 300 q 747 265 750 279 q 744 231 744 250 q 742 201 743 211 q 694 158 725 186 q 650 115 664 129 q 289 13 489 0 q 196 42 263 21 q 76 231 111 175 q 78 335 76 264 q 79 442 79 406 q 99 538 97 483 q 101 647 101 592 q 113 743 101 703 q 114 744 114 743 q 114 746 114 746 l 114 746 q 131 888 117 763 q 172 1076 146 1014 q 239 1074 219 1092 q 260 1003 258 1056 q 258 898 263 964 q 251 793 253 832 q 263 688 250 754 q 253 604 257 636 q 231 533 238 572 q 224 466 224 494 q 227 391 225 438 q 229 321 229 344 q 263 204 229 260 q 343 150 297 149 q 376 150 353 150 q 415 151 400 150 q 451 153 429 151 q 489 163 474 156 q 521 181 504 169 q 549 210 538 192 q 568 253 561 228 q 628 383 606 310 q 657 519 650 457 q 676 660 664 581 q 707 797 689 740 q 708 804 707 799 q 719 842 717 828 q 724 881 722 857 q 715 925 725 906 q 685 960 706 944 q 685 1079 685 1000 q 764 1114 732 1107 q 811 1110 796 1121 q 835 1077 826 1100 q 845 1030 843 1054 q 852 976 847 1006 q 865 931 857 947 q 842 888 850 913 q 834 850 835 864 q 835 801 833 836 q 838 760 838 767 z "},"":{"ha":1249,"x_min":76,"x_max":1182,"o":"m 707 797 q 708 804 707 799 q 719 842 717 828 q 724 881 722 857 q 715 925 725 906 q 685 960 706 944 q 685 1079 685 1000 q 764 1114 732 1107 q 811 1110 796 1121 q 835 1077 826 1100 q 845 1030 843 1054 q 852 976 847 1006 q 865 931 857 947 q 842 888 850 913 q 834 850 835 864 q 835 801 833 836 q 838 760 838 767 q 870 640 839 678 q 988 618 901 601 q 1017 624 992 618 q 1049 630 1042 629 q 1079 632 1057 631 q 1113 630 1101 633 q 1141 618 1125 626 q 1169 596 1157 610 q 1174 545 1171 579 q 1179 492 1178 511 q 1181 442 1181 472 q 1177 392 1181 411 q 1165 347 1174 372 q 1140 303 1156 321 q 1101 267 1125 286 q 1046 236 1078 249 q 990 240 1010 224 q 954 292 971 256 q 847 388 890 388 q 756 290 804 388 q 747 265 750 279 q 744 231 744 250 q 742 201 743 211 l 740 200 l 739 199 l 738 197 l 736 196 l 735 194 l 733 193 l 732 192 l 731 192 l 729 190 l 728 189 l 726 188 l 725 186 l 724 185 l 722 183 l 721 182 l 719 181 l 718 179 l 717 178 l 715 176 l 714 175 l 713 174 l 711 172 l 710 171 l 708 169 l 707 168 l 706 167 l 704 167 l 703 165 l 701 164 l 700 163 l 699 161 l 697 160 l 696 158 l 693 156 l 692 154 l 690 153 l 689 151 l 688 150 l 686 149 l 685 147 l 683 146 l 682 144 l 681 143 l 679 143 l 678 142 l 676 140 l 675 139 l 674 138 l 672 136 l 671 135 l 669 133 l 668 132 l 667 131 l 665 129 l 664 128 l 663 126 l 661 125 l 660 124 l 658 122 l 657 121 l 656 119 l 654 119 l 653 118 l 650 115 q 289 13 489 0 q 196 42 267 19 q 76 231 119 163 q 78 333 76 263 q 79 442 79 404 q 99 538 97 483 q 101 647 101 592 q 113 743 101 703 q 114 744 114 743 q 114 746 114 746 l 114 746 q 131 888 117 763 q 172 1076 146 1014 q 239 1074 219 1092 q 260 1003 258 1056 q 258 898 263 964 q 251 793 253 832 q 263 688 250 754 q 253 604 257 636 q 231 533 238 572 q 224 466 224 494 q 227 391 225 438 q 229 321 229 344 q 263 204 229 260 q 343 150 297 149 q 376 150 353 150 q 415 151 400 150 q 451 153 429 151 q 489 163 474 156 q 521 181 504 169 q 549 210 538 192 q 568 253 561 228 q 628 383 606 310 q 657 519 650 457 q 676 660 664 581 q 707 797 689 740 z "},"":{"ha":774,"x_min":63,"x_max":706,"o":"m 694 206 q 699 131 693 181 q 702 42 704 82 q 683 -32 700 3 q 635 -65 642 -36 q 559 -62 610 -78 q 485 -65 508 -47 q 442 -22 465 -37 q 390 -5 419 -7 q 342 -3 361 -3 q 285 -10 324 -4 q 233 -18 247 -17 q 200 1 222 -14 q 115 136 106 8 q 145 189 136 160 q 160 259 154 218 q 169 318 165 300 q 178 347 175 335 q 214 388 201 361 q 229 439 226 414 q 247 490 232 464 q 293 532 263 517 q 86 592 253 543 q 81 797 76 656 q 72 1004 86 939 q 99 1089 63 1057 q 199 1101 136 1121 l 197 1101 q 242 925 243 993 q 246 835 214 878 q 242 814 246 832 q 238 790 239 796 q 238 770 238 785 q 241 748 238 756 q 251 730 244 740 q 267 711 257 719 q 361 708 314 651 q 457 813 429 749 q 469 949 485 876 q 465 982 465 965 q 467 1010 465 999 q 475 1038 468 1021 q 485 1060 482 1054 q 498 1085 488 1065 q 511 1108 508 1104 l 511 1110 q 542 1113 531 1111 q 633 1017 621 1094 q 597 906 611 972 q 575 788 582 840 q 543 676 568 736 q 475 575 518 617 q 449 538 472 571 q 421 495 426 504 q 399 458 415 486 q 377 413 382 429 q 365 371 372 396 q 358 321 358 346 q 336 254 343 294 q 363 237 351 243 q 394 225 375 231 q 436 222 413 219 q 488 233 460 224 q 528 290 497 247 q 576 356 560 332 q 608 344 588 351 q 638 335 628 338 q 660 295 658 322 q 666 242 663 268 q 694 206 669 217 z "},"":{"ha":694,"x_min":63,"x_max":633,"o":"m 475 586 q 449 548 472 582 q 421 506 426 514 q 399 469 415 497 q 377 424 382 440 q 365 381 372 407 q 358 332 358 356 q 334 254 340 300 q 328 171 328 208 q 314 91 328 133 q 268 19 300 49 q 148 31 186 -1 q 115 146 110 63 q 145 199 136 169 q 160 270 154 229 q 169 329 165 311 q 178 358 175 346 q 214 399 201 372 q 229 450 226 425 q 247 501 232 475 q 293 543 263 528 q 86 601 232 560 q 81 808 76 667 q 72 1015 86 950 q 99 1100 63 1068 q 199 1113 136 1132 l 197 1113 q 242 936 243 1003 q 246 846 214 889 q 242 824 246 842 q 238 801 239 806 q 238 781 238 796 q 241 759 238 767 q 251 741 244 751 q 267 722 257 731 q 361 718 314 661 q 457 824 429 760 q 469 960 485 888 q 465 993 465 976 q 467 1020 465 1010 q 475 1047 468 1031 q 485 1070 482 1064 q 498 1095 488 1076 q 511 1118 508 1114 l 511 1119 q 542 1124 532 1122 q 633 1028 621 1106 q 597 917 611 983 q 575 798 582 850 q 543 687 568 746 q 475 586 518 628 z "},"":{"ha":694,"x_min":63,"x_max":633,"o":"m 482 314 q 549 39 585 236 q 226 -51 426 -83 q 186 1 206 -29 q 115 132 107 18 q 149 200 138 157 q 164 285 153 239 q 169 314 168 307 q 178 344 175 335 q 214 385 201 358 q 229 436 226 411 q 247 488 232 461 q 293 528 263 514 q 86 588 214 551 q 81 794 76 651 q 72 1001 86 936 q 99 1085 63 1053 q 199 1099 136 1117 l 197 1099 q 242 922 243 989 q 246 831 214 875 q 242 810 246 828 q 238 787 239 792 q 238 767 238 782 q 241 744 238 751 q 251 726 244 738 q 267 707 257 715 q 361 704 314 647 q 457 810 429 746 q 469 946 485 874 q 465 979 465 963 q 467 1006 465 996 q 475 1033 468 1017 q 485 1056 482 1050 q 498 1081 488 1063 q 511 1104 508 1100 l 511 1106 q 542 1110 531 1108 q 633 1014 621 1092 q 597 902 611 968 q 575 784 582 836 q 543 672 568 732 q 475 571 518 613 q 396 449 411 476 q 482 314 411 369 z "},"":{"ha":939,"x_min":61,"x_max":875,"o":"m 854 982 q 788 235 875 547 q 744 158 776 193 q 680 103 713 122 q 597 57 647 85 q 519 11 546 29 q 338 13 418 13 q 184 157 229 69 q 151 369 139 244 q 156 406 153 381 q 161 445 160 431 q 163 483 163 460 q 158 522 163 506 q 143 555 153 538 q 115 586 133 572 q 69 610 96 600 q 63 627 64 614 q 71 658 61 640 q 94 685 81 676 q 100 924 99 903 q 101 951 100 931 q 102 981 101 971 q 107 1006 103 990 q 118 1030 111 1022 q 138 1043 125 1038 q 171 1047 151 1049 q 221 924 242 1042 q 215 883 217 904 q 212 845 213 861 q 212 803 211 829 q 213 765 213 776 q 214 724 213 754 q 217 685 215 693 q 278 668 261 685 q 286 604 296 651 q 267 364 268 508 q 303 210 265 268 q 436 143 342 151 q 595 204 511 136 q 706 353 679 272 q 763 639 753 493 q 769 988 774 785 q 767 1010 769 994 q 765 1037 765 1026 q 767 1059 765 1047 q 780 1076 769 1071 q 808 1082 790 1082 q 833 1073 824 1081 q 846 1049 842 1065 q 851 1021 850 1032 q 854 990 853 1010 q 854 982 854 985 z "},"":{"ha":1149,"x_min":74,"x_max":1088,"o":"m 686 171 q 635 150 658 168 q 590 108 613 132 q 549 74 568 83 q 458 40 493 53 q 386 20 424 28 q 328 11 349 13 q 280 17 307 10 q 236 37 253 25 q 194 74 219 49 q 149 128 169 100 q 97 201 129 156 q 83 350 85 343 q 80 487 75 410 q 94 624 85 564 q 105 760 104 683 q 88 896 106 838 q 92 918 96 906 q 100 935 94 924 q 108 955 106 946 q 113 971 111 964 q 140 1056 121 1025 q 204 1083 160 1088 q 233 1075 221 1082 q 252 1060 246 1068 q 263 1037 258 1053 q 267 1012 267 1021 q 269 983 268 1003 q 269 956 269 963 q 267 897 271 953 l 268 897 q 242 776 247 843 q 243 654 238 710 q 250 532 249 599 q 243 410 251 465 q 239 349 243 407 q 308 201 240 242 q 482 204 376 160 q 508 202 496 201 q 528 203 519 203 q 546 210 538 204 q 559 219 554 215 q 570 232 564 222 q 578 246 576 242 q 585 263 581 250 q 591 281 590 276 q 596 300 592 285 q 600 318 600 315 q 614 344 611 329 q 649 363 640 349 q 660 403 658 378 q 668 438 663 428 l 668 438 l 667 438 q 692 528 690 476 q 687 620 694 579 q 689 713 679 661 q 658 957 717 861 q 735 1202 671 1150 q 969 1207 800 1254 q 1002 1204 981 1206 q 1032 1201 1024 1203 q 1054 1155 1044 1192 q 1086 1108 1064 1118 q 1086 1017 1086 1047 q 1081 990 1081 1004 q 1038 938 1060 972 q 1000 876 1015 903 q 953 828 985 849 q 875 811 921 808 q 849 782 865 811 q 838 738 833 753 q 829 587 849 685 q 818 440 810 489 q 778 369 790 422 q 751 300 765 317 q 733 281 742 292 q 719 263 725 271 q 708 240 714 256 q 701 219 703 224 q 693 193 699 214 q 686 171 688 172 m 871 1063 q 807 1054 826 1069 q 785 999 788 1039 q 797 940 781 958 q 851 926 813 922 q 877 926 858 926 q 906 928 896 926 q 931 934 917 929 q 952 949 944 939 q 963 978 960 960 q 962 1011 965 997 q 944 1034 958 1025 q 924 1047 931 1043 q 895 1057 917 1051 q 871 1063 874 1063 z "},"":{"ha":1153,"x_min":36,"x_max":1086,"o":"m 1078 122 q 1082 80 1085 100 q 1077 46 1079 60 q 1065 19 1075 32 q 1045 -3 1054 6 q 1019 -19 1036 -11 q 987 -34 1001 -28 q 949 -47 972 -40 q 843 -59 882 -64 q 743 -44 804 -54 q 643 -36 682 -33 q 599 -45 614 -39 q 584 -62 585 -51 q 588 -83 583 -72 q 599 -107 592 -93 q 607 -129 606 -121 q 525 -261 554 -214 q 474 -286 508 -268 q 414 -314 440 -304 q 364 -324 388 -324 q 301 -334 328 -324 q 260 -358 275 -344 q 235 -397 244 -371 q 221 -442 225 -422 q 213 -496 217 -462 q 190 -503 200 -493 q 53 -403 63 -507 q 189 -193 36 -239 l 190 -193 q 222 -185 199 -190 q 258 -177 246 -181 q 287 -163 271 -174 q 313 -136 303 -153 q 379 -127 353 -137 q 419 -101 406 -117 q 438 -60 433 -86 q 442 -10 443 -35 q 435 49 440 15 q 457 82 440 56 q 454 132 453 115 q 483 185 474 156 q 498 255 493 214 q 507 314 503 296 q 517 344 511 326 q 552 385 540 358 q 567 436 564 411 q 586 488 571 461 q 631 528 601 514 q 424 588 567 547 q 420 794 415 651 q 411 1001 425 936 q 438 1085 401 1053 q 538 1099 474 1117 l 535 1099 q 579 922 581 989 q 585 831 553 875 q 581 810 583 828 q 577 787 578 792 q 576 767 576 782 q 579 744 576 751 q 588 726 582 738 q 606 707 594 715 q 699 704 653 647 q 794 810 767 746 q 807 946 822 874 q 804 979 804 963 q 805 1006 804 996 q 813 1033 806 1017 q 822 1056 819 1050 q 836 1081 825 1063 q 850 1104 847 1100 l 849 1106 q 881 1110 871 1108 q 971 1014 960 1092 q 935 902 950 968 q 913 784 921 836 q 881 672 906 732 q 814 571 856 613 q 788 534 811 568 q 760 492 765 500 q 738 454 754 483 q 715 409 721 425 q 703 367 710 393 q 696 318 697 342 q 679 274 686 299 q 671 235 672 250 q 667 188 669 221 q 664 144 665 154 q 872 186 710 136 q 894 200 888 190 q 902 219 901 210 q 911 238 903 228 q 936 256 919 249 q 1007 263 979 271 q 1049 233 1035 256 q 1070 185 1064 210 q 1078 142 1076 161 l 1078 122 z "},"":{"ha":978,"x_min":63,"x_max":917,"o":"m 72 89 q 89 311 74 103 q 181 514 121 408 q 301 698 242 619 q 430 880 361 776 q 539 1071 499 983 q 629 1107 560 1117 q 642 1080 632 1099 q 655 1048 651 1061 q 656 1025 658 1035 q 640 972 644 999 q 635 925 636 946 q 642 878 635 904 q 656 838 650 853 q 678 796 663 822 q 702 758 694 769 q 731 719 710 747 q 758 681 751 690 q 836 556 764 674 q 900 -22 915 250 q 772 -3 810 -40 q 753 124 733 35 q 761 193 760 158 q 757 265 763 228 q 745 331 751 303 q 728 401 739 358 q 713 467 718 443 q 668 583 688 539 q 626 654 649 626 q 584 688 604 682 q 535 681 564 694 q 474 639 506 668 q 397 558 443 610 q 379 536 396 557 q 346 501 360 522 q 326 468 332 481 q 310 424 321 456 q 274 285 288 361 q 249 124 261 208 q 224 -15 238 40 q 72 89 64 -93 z "},"":{"ha":1228,"x_min":64,"x_max":1164,"o":"m 233 626 q 299 707 267 647 q 343 781 332 767 q 404 808 378 790 q 449 854 431 826 q 478 905 467 882 q 503 965 489 928 q 528 1019 518 1001 q 535 1041 531 1028 q 544 1064 540 1054 q 553 1085 547 1074 q 566 1102 560 1097 q 583 1111 572 1107 q 607 1110 593 1115 q 638 1092 626 1104 q 651 1057 650 1079 q 652 1020 653 1035 q 649 979 651 1006 q 633 926 646 964 q 622 862 621 889 q 644 808 622 835 q 679 762 656 785 q 724 723 703 739 q 767 682 746 707 q 794 628 788 657 q 826 576 803 594 q 874 558 849 558 q 926 565 900 557 q 1090 568 1036 608 q 1164 417 1144 528 q 956 236 1153 213 q 951 258 954 240 q 947 283 949 275 q 940 303 944 290 q 929 322 935 317 q 913 331 924 328 q 889 332 903 335 q 868 322 875 329 q 862 303 861 315 q 864 281 863 290 q 871 255 865 272 q 878 232 876 238 q 893 99 893 174 q 886 -35 893 25 l 890 -39 q 710 50 792 -44 l 708 50 q 722 90 708 67 q 740 129 735 114 q 735 174 746 144 q 736 204 735 182 q 738 238 738 226 q 734 266 738 249 q 722 297 731 283 q 696 324 713 311 q 635 388 656 357 q 617 462 615 419 q 650 554 618 504 q 660 592 661 572 q 653 626 660 611 q 629 658 646 640 q 600 685 613 675 q 568 710 588 696 q 542 722 554 719 q 518 716 529 724 q 499 701 507 708 q 479 679 490 693 q 461 658 468 665 q 329 490 376 574 q 279 304 282 407 q 245 210 249 264 q 256 111 242 157 l 254 110 q 249 98 253 107 q 241 83 244 89 q 233 72 238 78 q 214 26 221 61 q 192 -28 207 -10 q 143 -35 178 -46 q 81 26 97 -19 q 85 126 64 71 q 85 142 86 136 q 81 160 85 147 q 76 179 76 174 q 83 241 78 194 q 91 307 88 288 q 101 365 94 326 q 118 427 108 404 q 142 481 128 450 q 178 537 157 513 q 228 582 200 561 q 232 593 231 585 q 233 610 233 601 q 233 626 232 618 z "},"":{"ha":1260,"x_min":75,"x_max":1190,"o":"m 415 939 q 438 951 428 944 q 453 965 447 958 q 465 983 460 971 q 472 1001 469 994 q 475 1022 474 1007 q 477 1041 476 1036 q 478 1064 478 1046 q 478 1085 478 1082 q 596 1114 531 1126 q 615 1088 607 1101 q 626 1056 622 1074 q 631 1028 629 1039 q 633 994 632 1017 q 633 964 633 972 q 606 904 606 932 q 622 860 606 876 q 660 821 638 844 q 689 779 682 797 q 744 677 704 750 q 806 565 785 604 q 815 505 814 544 q 824 434 815 465 q 863 382 832 403 q 870 338 865 367 q 878 296 875 310 q 876 263 882 283 q 865 227 871 243 q 865 197 858 211 q 894 175 871 182 q 933 182 924 168 q 938 218 942 196 q 940 257 933 240 q 964 267 953 260 q 993 257 985 260 q 1015 226 1004 232 q 1033 231 1025 221 q 1051 251 1042 240 q 1067 269 1060 261 q 1086 267 1075 276 q 1110 233 1097 256 q 1137 194 1122 210 q 1174 174 1151 178 q 1188 130 1185 154 q 1186 86 1190 106 q 1178 41 1182 67 q 1176 -3 1175 15 q 1164 -23 1172 -10 q 1151 -43 1156 -36 l 1147 -42 q 1018 -96 1051 -82 q 992 -98 1006 -97 q 960 -99 978 -99 q 935 -100 943 -100 q 906 -65 925 -89 q 843 -46 885 -31 q 689 -75 729 -67 q 675 -53 685 -61 q 657 -42 665 -44 q 632 -39 649 -40 q 622 -22 629 -33 q 610 -6 614 -11 q 600 11 607 0 q 590 28 593 22 q 581 45 586 33 q 574 63 575 57 q 567 82 572 69 q 563 101 563 94 q 562 122 564 108 q 563 142 560 135 q 575 163 575 149 q 615 182 589 172 q 660 200 640 192 q 696 222 679 208 q 712 262 713 236 q 692 325 711 288 q 711 357 708 340 q 708 387 714 374 q 693 417 701 400 q 685 447 685 435 q 603 575 690 538 q 603 613 608 594 q 575 638 597 632 q 567 658 576 650 q 507 764 574 744 q 481 758 489 769 q 471 731 472 746 q 444 653 469 690 q 390 580 419 617 q 349 511 360 543 q 294 494 314 507 q 264 446 274 481 q 210 113 206 254 q 199 71 201 100 q 185 22 196 42 q 144 -4 175 1 q 75 53 140 0 q 77 131 75 65 q 79 233 79 197 q 78 265 78 249 q 76 325 76 304 q 113 365 90 340 q 140 408 133 382 q 142 458 146 435 q 146 507 138 481 q 188 595 158 533 q 233 689 217 657 q 238 704 243 694 q 296 779 285 722 q 367 862 332 800 q 415 939 401 924 z "},"":{"ha":1057,"x_min":65,"x_max":994,"o":"m 388 858 q 413 884 392 863 q 442 915 435 906 q 460 944 450 924 q 471 985 469 964 q 490 1031 478 1001 q 507 1074 503 1061 q 626 1101 588 1122 q 660 983 665 1081 q 624 913 626 953 q 651 850 622 874 q 729 771 694 814 q 792 671 764 728 q 835 577 821 614 q 876 469 850 540 q 874 427 878 456 q 875 378 871 399 q 900 340 879 357 q 903 299 901 328 q 907 254 906 271 q 905 218 901 236 q 931 193 908 200 q 956 153 936 178 q 985 105 975 128 q 986 54 994 82 q 969 27 975 43 q 965 -1 964 11 q 967 -31 965 -12 q 968 -60 968 -50 q 967 -131 967 -107 q 963 -185 967 -154 q 957 -230 958 -217 q 944 -262 956 -243 q 929 -286 933 -281 q 904 -301 925 -292 q 872 -311 883 -310 q 826 -315 860 -312 q 772 -318 793 -318 q 701 -318 750 -318 q 696 -318 697 -318 l 697 -317 q 685 -272 688 -294 q 689 -226 683 -250 q 701 -185 694 -201 q 718 -140 707 -168 q 718 -126 718 -136 q 718 -111 718 -115 q 717 42 718 -60 q 714 194 715 143 q 735 263 732 226 q 730 330 738 300 q 716 399 722 360 q 714 467 710 439 q 713 497 713 486 q 640 602 676 528 q 590 692 603 676 q 557 732 571 721 q 523 738 543 743 q 479 703 503 733 q 426 637 465 685 q 367 563 386 589 q 326 493 349 538 q 297 406 304 449 q 285 389 294 401 q 273 371 276 376 q 264 355 269 365 q 259 337 258 344 q 262 320 260 329 q 272 302 264 311 q 294 285 281 293 q 296 254 293 269 q 277 241 290 250 q 258 226 264 232 q 244 211 251 221 q 234 190 236 201 q 235 164 232 178 q 209 43 250 76 q 83 17 168 10 q 75 132 81 58 q 101 360 67 250 q 206 613 135 471 l 206 614 l 207 615 l 208 617 l 210 618 l 210 619 l 211 621 l 213 622 l 214 624 l 214 625 l 215 626 l 217 628 l 218 629 l 218 631 l 219 632 l 221 633 l 222 635 l 222 636 l 224 638 l 225 639 l 226 640 l 226 642 l 228 643 l 229 644 l 231 646 l 231 647 l 232 649 l 233 650 l 235 651 l 235 653 l 236 654 l 238 656 l 239 657 l 239 658 l 240 660 l 242 661 l 243 663 l 243 664 l 244 665 l 246 667 l 247 668 l 247 669 l 249 671 l 250 672 l 251 674 l 251 675 l 253 676 l 254 678 l 256 679 l 256 681 l 257 682 l 258 683 l 260 685 l 260 686 l 263 689 l 263 690 l 264 692 l 265 693 l 267 694 l 267 696 l 268 697 l 269 699 l 271 700 l 271 701 l 272 703 l 274 706 q 306 740 283 717 q 340 778 328 764 q 365 814 351 792 q 388 858 379 836 z "},"":{"ha":1039,"x_min":71,"x_max":971,"o":"m 872 368 q 939 312 915 344 q 967 242 963 279 q 963 169 971 206 q 936 96 956 133 q 828 1 900 22 q 675 13 756 -19 q 648 22 667 17 q 618 30 629 26 q 593 42 607 33 q 571 65 579 51 q 565 116 561 99 q 578 164 568 133 q 590 213 589 194 q 617 285 608 232 q 651 360 625 339 q 651 550 785 460 q 620 610 640 569 q 590 669 600 650 q 562 731 581 706 q 519 760 543 756 q 468 731 494 765 q 406 656 449 704 q 338 576 364 607 q 288 495 313 544 q 256 396 263 446 q 225 296 232 351 q 217 178 218 240 q 206 75 215 115 q 200 49 204 71 q 193 19 196 26 q 183 -3 190 11 q 165 -21 176 -17 q 136 -24 153 -25 q 89 11 104 -19 q 74 82 74 42 q 207 614 72 404 q 303 748 238 661 q 416 908 369 835 q 490 1057 463 981 q 537 1106 504 1093 q 601 1106 569 1118 q 635 1080 625 1096 q 640 1046 644 1064 q 630 1014 636 1028 q 615 992 624 1000 q 589 953 597 972 q 579 920 581 933 q 588 888 578 907 q 602 860 597 868 q 625 832 607 853 q 647 806 643 811 q 677 769 653 799 q 708 730 701 739 q 737 693 715 721 q 765 652 758 665 q 788 613 772 639 q 809 569 803 588 q 824 526 815 551 q 835 477 832 501 q 838 426 838 453 q 872 368 838 388 z "},"":{"ha":1025,"x_min":79,"x_max":956,"o":"m 385 871 q 483 990 431 904 q 569 1107 536 1076 q 650 1085 624 1110 q 673 1028 676 1060 q 644 975 669 996 q 608 933 617 951 q 610 903 600 915 q 631 883 621 890 q 660 869 640 876 q 715 838 688 857 q 757 804 742 818 q 802 760 772 790 q 842 719 832 729 q 858 633 844 707 q 894 525 871 560 q 906 467 899 506 q 917 411 914 429 q 922 348 918 403 q 935 264 926 293 q 953 150 951 194 q 936 72 954 106 q 875 19 918 38 q 758 -6 832 1 q 724 72 751 8 q 738 160 726 107 q 754 251 749 213 q 760 336 760 290 q 744 425 761 382 q 689 507 726 468 q 687 522 689 513 q 685 538 685 532 q 676 593 679 575 q 661 640 672 611 q 632 686 650 668 q 606 722 624 696 q 577 760 589 747 q 541 772 565 772 q 486 749 517 772 q 472 729 474 743 q 389 597 440 678 q 354 508 349 549 q 333 476 349 497 q 308 442 317 456 q 294 410 300 428 q 297 376 289 392 q 329 349 306 361 q 399 299 372 326 q 435 246 425 272 q 444 185 446 219 q 435 121 443 150 q 414 51 428 92 q 335 4 386 35 q 264 -39 285 -26 q 216 -44 244 -47 q 171 -35 188 -40 q 127 -21 154 -31 q 82 -7 100 -11 q 79 293 81 100 q 83 337 85 317 q 86 380 81 357 q 111 418 92 403 q 385 871 367 839 z "},"":{"ha":1251,"x_min":76,"x_max":1231,"o":"m 114 443 q 185 583 142 510 q 264 703 229 656 q 358 828 299 750 q 418 928 379 861 q 476 1026 457 994 q 516 1045 501 1029 q 543 1085 531 1061 q 568 1118 556 1108 q 636 1001 701 1110 q 619 959 624 979 q 616 925 615 939 q 628 889 617 911 q 645 858 639 867 q 671 821 651 849 q 728 744 704 774 q 789 682 753 714 q 860 638 825 650 q 942 624 894 625 q 1043 643 989 624 q 1055 644 1047 646 q 1072 638 1063 642 q 1085 632 1081 633 q 1174 528 1088 629 q 1050 210 1231 332 q 1015 215 1026 213 q 983 218 1004 217 q 952 218 963 219 q 926 214 942 217 q 902 204 910 211 q 885 187 894 197 q 872 161 875 176 q 869 125 869 146 q 874 78 869 104 q 875 55 875 67 q 867 33 875 43 q 844 19 860 22 q 771 51 792 8 q 718 139 768 57 q 718 407 754 253 q 681 450 690 424 q 669 511 672 476 q 658 564 667 546 q 597 713 654 660 q 558 742 575 733 q 521 747 542 751 q 481 717 500 742 q 361 533 386 574 q 353 508 356 522 q 310 481 325 501 q 294 440 296 461 q 285 392 292 418 q 264 353 278 367 q 239 231 222 307 q 231 50 236 169 q 78 124 83 -56 q 76 290 78 133 q 81 322 79 315 q 103 356 97 336 q 110 403 110 376 q 114 443 111 431 m 957 474 q 910 458 921 476 q 901 406 900 439 q 929 346 903 365 q 994 328 956 326 q 1038 349 1022 328 q 1054 401 1054 369 q 1026 456 1050 442 q 957 474 1001 469 z "},"":{"ha":1001,"x_min":64,"x_max":921,"o":"m 797 910 q 878 817 849 868 q 914 717 907 767 q 920 612 921 668 q 912 503 919 556 q 903 395 904 451 q 908 289 903 339 q 906 212 913 265 q 899 142 899 158 q 898 110 899 121 q 893 82 897 99 q 881 56 889 65 q 860 40 874 47 q 826 33 846 33 q 792 40 806 33 q 771 54 778 47 q 760 81 764 61 q 755 107 756 100 q 751 138 754 114 q 746 183 751 140 q 806 725 818 450 q 688 874 800 861 q 676 865 685 871 q 665 856 668 858 q 655 846 663 853 q 644 835 647 839 q 635 824 642 832 q 629 813 629 817 q 625 799 629 808 q 623 783 621 789 q 625 765 625 776 q 630 649 635 704 q 619 532 625 594 q 610 415 614 469 q 617 298 606 360 q 660 183 629 236 q 633 129 644 165 q 613 66 621 93 q 578 19 606 39 q 506 3 551 0 q 487 19 503 6 q 466 37 471 32 q 448 54 461 42 q 431 74 435 67 q 419 94 426 82 q 410 117 411 107 q 411 141 410 128 q 419 168 413 154 q 453 294 443 224 q 461 422 463 364 q 468 550 460 479 q 497 676 476 621 q 511 719 506 697 q 519 769 517 742 q 508 817 521 797 q 468 844 496 838 q 376 815 414 857 q 321 703 339 772 q 313 678 318 696 q 303 647 307 661 q 300 619 300 633 q 317 258 293 433 q 323 208 321 226 q 326 161 325 190 q 321 113 326 132 q 306 70 315 93 q 276 29 296 47 q 229 -3 257 11 q 188 8 206 3 q 149 20 169 13 q 115 38 128 28 q 90 61 103 47 q 73 92 76 75 q 67 131 69 108 q 74 182 64 154 q 133 338 158 225 q 133 382 133 351 q 133 428 133 413 q 149 537 142 493 q 169 639 156 581 q 202 740 183 697 q 248 830 221 783 q 314 914 275 876 q 403 981 353 951 q 442 1004 425 992 q 468 1079 492 1036 q 447 1117 453 1107 q 433 1147 440 1128 q 422 1171 425 1165 q 419 1190 418 1176 q 421 1205 419 1203 q 433 1216 422 1207 q 449 1227 443 1225 q 476 1236 456 1229 q 510 1246 497 1243 q 554 1256 524 1249 q 580 1272 564 1258 q 606 1285 596 1285 q 627 1297 615 1286 q 648 1317 639 1307 q 667 1335 657 1328 q 688 1336 676 1342 q 708 1308 699 1331 q 742 1267 717 1292 q 785 1223 768 1242 q 800 1174 803 1204 q 763 1108 797 1143 q 749 1072 744 1094 q 778 1035 753 1049 q 778 914 778 989 q 788 911 781 913 q 797 910 794 910 z "},"":{"ha":1282,"x_min":64,"x_max":1218,"o":"m 981 601 q 1144 604 1090 644 q 1218 453 1199 564 q 1010 272 1207 249 q 1006 294 1008 276 q 1001 319 1003 311 q 994 340 999 326 q 983 358 989 353 q 967 367 976 364 q 943 368 957 371 q 915 353 926 365 q 904 329 904 342 q 908 289 906 308 q 906 212 913 265 q 899 142 899 158 q 898 110 899 121 q 893 82 897 99 q 881 56 889 65 q 860 40 874 47 q 826 33 846 33 q 792 40 806 33 q 771 54 778 47 q 760 81 764 61 q 755 107 756 100 q 751 138 754 114 q 746 183 751 140 q 778 324 764 250 q 750 360 758 354 q 690 424 710 393 q 671 498 669 456 q 704 590 672 540 q 756 625 711 603 q 807 657 800 647 q 806 725 806 725 q 688 874 800 861 q 676 865 685 871 q 665 856 668 858 q 655 846 663 853 q 644 835 647 839 q 635 824 642 832 q 629 813 629 817 q 625 799 629 808 q 623 783 621 789 q 625 765 625 776 q 630 649 635 704 q 619 532 625 594 q 610 415 614 469 q 617 298 606 360 q 660 183 629 236 q 633 129 644 165 q 613 66 621 93 q 578 19 606 39 q 506 3 551 0 q 487 19 503 6 q 466 37 471 32 q 448 54 461 42 q 431 74 435 67 q 419 94 426 82 q 410 117 411 107 q 411 141 410 128 q 419 168 413 154 q 453 294 443 224 q 461 422 463 364 q 468 550 460 479 q 497 676 476 621 q 511 719 506 697 q 519 769 517 742 q 508 817 521 797 q 468 844 496 838 q 376 815 414 857 q 321 703 339 772 q 313 678 318 696 q 303 647 307 661 q 300 619 300 633 q 317 258 293 433 q 323 208 321 226 q 326 161 325 190 q 321 113 326 132 q 306 70 315 93 q 276 29 296 47 q 229 -3 257 11 q 188 8 206 3 q 149 20 169 13 q 115 38 128 28 q 90 61 103 47 q 73 92 76 75 q 67 131 69 108 q 74 182 64 154 q 133 338 158 225 q 133 382 133 351 q 133 428 133 413 q 149 537 142 493 q 169 639 156 581 q 202 740 183 697 q 248 830 221 783 q 314 914 275 876 q 403 981 353 951 q 442 1004 425 992 q 468 1079 492 1036 q 447 1117 453 1107 q 433 1147 440 1128 q 422 1171 425 1165 q 419 1190 418 1176 q 421 1205 419 1203 q 433 1216 422 1207 q 449 1227 443 1225 q 476 1236 456 1229 q 510 1246 497 1243 q 554 1256 524 1249 q 580 1272 564 1258 q 606 1285 596 1285 q 627 1297 615 1286 q 648 1317 639 1307 q 667 1335 657 1328 q 688 1336 676 1342 q 708 1308 699 1331 q 742 1267 717 1292 q 785 1223 768 1242 q 800 1174 803 1204 q 763 1108 797 1143 q 749 1072 744 1094 q 778 1035 753 1049 q 778 914 778 989 q 788 911 781 913 q 797 910 794 910 q 919 668 910 818 q 926 644 922 657 q 931 624 929 631 q 934 610 932 618 q 939 601 936 603 q 945 596 942 599 q 953 594 949 593 q 965 597 958 594 q 981 601 971 599 z "},"":{"ha":1306,"x_min":64,"x_max":1236,"o":"m 1219 271 q 1233 227 1231 251 q 1231 183 1235 203 q 1224 138 1228 164 q 1222 94 1221 113 q 1210 74 1218 88 q 1197 54 1201 61 l 1193 56 q 1064 1 1099 15 q 1038 -1 1051 0 q 1006 -2 1024 -1 q 979 -3 989 -3 q 950 32 972 7 q 889 51 931 67 q 869 47 883 51 q 842 38 861 42 q 794 22 819 28 q 781 44 790 36 q 763 55 771 53 q 738 58 754 57 q 726 75 733 64 q 715 92 719 86 q 704 108 711 97 q 694 125 697 119 q 685 142 692 131 q 678 160 679 154 q 672 179 676 167 q 669 199 668 192 q 667 219 669 206 q 668 239 665 232 q 681 260 679 246 q 728 285 694 271 q 775 307 763 299 q 806 725 815 515 q 688 874 800 861 q 676 865 685 871 q 665 856 668 858 q 655 846 663 853 q 644 835 647 839 q 635 824 642 832 q 629 813 629 817 q 625 799 629 808 q 623 783 621 789 q 625 765 625 776 q 630 649 635 704 q 619 532 625 594 q 610 415 614 469 q 617 298 606 360 q 660 183 629 236 q 633 129 644 165 q 613 66 621 93 q 578 19 606 39 q 506 3 551 0 q 487 19 503 6 q 466 37 471 32 q 448 54 461 42 q 431 74 435 67 q 419 94 426 82 q 410 117 411 107 q 411 141 410 128 q 419 168 413 154 q 453 294 443 224 q 461 422 463 364 q 468 550 460 479 q 497 676 476 621 q 511 719 506 697 q 519 769 517 742 q 508 817 521 797 q 468 844 496 838 q 376 815 414 857 q 321 703 339 772 q 313 678 318 696 q 303 647 307 661 q 300 619 300 633 q 317 258 293 433 q 323 208 321 226 q 326 161 325 190 q 321 113 326 132 q 306 70 315 93 q 276 29 296 47 q 229 -3 257 11 q 188 8 206 3 q 149 20 169 13 q 115 38 128 28 q 90 61 103 47 q 73 92 76 75 q 67 131 69 108 q 74 182 64 154 q 133 338 158 225 q 133 382 133 351 q 133 428 133 413 q 149 537 142 493 q 169 639 156 581 q 202 740 183 697 q 248 830 221 783 q 314 914 275 876 q 403 981 353 951 q 442 1004 425 992 q 468 1079 492 1036 q 447 1117 453 1107 q 433 1147 440 1128 q 422 1171 425 1165 q 419 1190 418 1176 q 421 1205 419 1203 q 433 1216 422 1207 q 449 1227 443 1225 q 476 1236 456 1229 q 510 1246 497 1243 q 554 1256 524 1249 q 580 1272 564 1258 q 606 1285 596 1285 q 627 1297 615 1286 q 648 1317 639 1307 q 667 1335 657 1328 q 688 1336 676 1342 q 708 1308 699 1331 q 742 1267 717 1292 q 785 1223 768 1242 q 800 1174 803 1204 q 763 1108 797 1143 q 749 1072 744 1094 q 778 1035 753 1049 q 778 914 778 994 q 788 911 781 913 q 797 910 794 910 q 878 817 849 868 q 914 717 907 767 q 920 612 921 668 q 912 503 919 556 q 903 395 904 451 q 910 289 903 339 q 940 272 919 278 q 978 279 968 265 q 983 315 988 293 q 985 354 979 338 q 1008 364 997 357 q 1038 354 1031 357 q 1060 323 1050 328 q 1078 328 1071 318 q 1095 348 1086 338 q 1113 366 1104 358 q 1132 364 1121 374 q 1155 330 1142 353 q 1182 291 1168 307 q 1219 271 1196 275 z "},"":{"ha":1167,"x_min":64,"x_max":1094,"o":"m 1088 214 q 1093 92 1092 132 q 1092 61 1092 71 q 1086 -38 1088 31 q 1074 -157 1085 -107 q 1028 -249 1063 -207 q 923 -258 993 -251 q 817 -267 853 -264 l 815 -265 l 814 -264 l 813 -262 l 811 -261 l 810 -260 l 808 -258 l 807 -257 l 806 -256 l 804 -254 l 803 -253 l 801 -251 l 800 -250 l 799 -250 l 797 -249 l 796 -247 l 794 -246 l 793 -244 l 792 -243 l 790 -242 l 789 -240 l 788 -239 l 786 -237 l 785 -236 l 783 -235 l 782 -233 l 781 -232 l 779 -231 l 778 -229 l 776 -228 l 775 -226 l 774 -225 l 772 -224 l 771 -222 l 769 -221 l 768 -219 l 767 -218 l 765 -217 l 764 -217 l 763 -215 l 761 -214 l 760 -212 l 758 -210 q 747 -162 746 -189 q 756 -118 749 -136 q 772 -74 763 -100 q 782 -29 781 -49 q 769 53 797 4 q 763 67 764 63 q 749 122 744 100 q 749 129 749 125 q 751 135 750 133 q 746 176 751 138 q 806 718 818 443 q 688 867 800 854 q 676 858 685 864 q 665 849 668 851 q 655 839 663 846 q 644 828 647 832 q 635 817 642 825 q 629 806 629 810 q 625 792 629 801 q 623 776 621 782 q 625 758 625 769 q 630 642 635 697 q 619 525 625 588 q 610 408 614 463 q 617 291 606 353 q 660 176 629 229 q 633 122 644 158 q 613 58 621 85 q 578 13 606 32 q 506 -4 551 -7 q 487 12 503 -1 q 466 30 471 25 q 448 47 461 35 q 431 67 435 60 q 419 88 426 75 q 410 110 411 100 q 411 134 410 121 q 419 161 413 147 q 453 286 443 215 q 461 415 463 357 q 468 543 460 472 q 497 668 476 614 q 511 713 506 690 q 519 763 517 735 q 508 810 521 790 q 468 838 496 831 q 376 807 414 850 q 321 696 339 764 q 313 671 318 688 q 303 640 307 654 q 300 613 300 626 q 317 251 293 426 q 323 201 321 219 q 326 154 325 183 q 321 106 326 125 q 306 63 315 86 q 276 22 296 40 q 229 -10 257 4 q 188 -1 206 -6 q 149 13 169 4 q 115 30 128 21 q 90 53 103 39 q 73 85 76 68 q 67 124 69 101 q 74 175 64 147 q 133 329 158 218 q 133 375 133 344 q 133 419 133 406 q 149 529 142 486 q 169 631 156 572 q 202 733 183 690 q 248 822 221 776 q 314 906 275 868 q 403 974 353 943 q 442 997 425 985 q 468 1072 492 1029 q 447 1110 453 1099 q 433 1140 440 1121 q 422 1164 425 1158 q 419 1183 418 1169 q 421 1198 419 1196 q 433 1209 422 1200 q 449 1219 443 1218 q 476 1228 456 1221 q 510 1239 497 1236 q 554 1249 524 1242 q 580 1265 564 1251 q 606 1278 596 1278 q 627 1290 615 1279 q 648 1310 639 1300 q 667 1328 657 1321 q 688 1328 676 1335 q 708 1301 699 1322 q 742 1260 717 1285 q 785 1216 768 1235 q 800 1167 803 1197 q 763 1101 797 1136 q 749 1065 744 1088 q 778 1028 753 1042 q 778 906 778 982 q 788 904 781 906 q 797 903 794 903 q 869 824 842 867 q 907 744 896 782 q 920 655 918 706 q 919 566 922 604 q 910 473 915 528 q 903 383 904 418 q 926 332 910 356 q 972 287 943 308 q 1019 253 1000 265 q 1076 219 1039 240 q 1088 214 1083 215 z "},"":{"ha":1160,"x_min":64,"x_max":1115,"o":"m 1011 392 q 1078 117 1114 313 q 756 25 956 -7 q 688 139 707 76 q 674 256 669 201 q 699 383 679 311 q 764 466 736 411 q 806 576 792 521 q 806 725 810 656 q 688 874 800 861 q 676 865 685 871 q 665 856 668 858 q 655 846 663 853 q 644 835 647 839 q 635 824 642 832 q 629 813 629 817 q 625 799 629 808 q 623 783 621 789 q 625 765 625 778 q 630 649 635 704 q 619 532 625 594 q 610 415 614 469 q 617 298 606 360 q 660 183 629 236 q 633 129 644 165 q 613 67 621 93 q 578 20 606 40 q 506 3 551 0 q 487 19 503 6 q 466 37 471 32 q 448 54 461 42 q 431 74 435 67 q 419 94 426 82 q 410 117 411 107 q 411 141 410 128 q 419 168 413 154 q 453 294 443 224 q 461 422 463 364 q 468 550 460 479 q 497 676 476 621 q 511 719 506 697 q 519 769 517 742 q 508 817 521 797 q 468 844 496 838 q 376 815 414 857 q 321 703 339 772 q 313 678 318 696 q 303 647 307 661 q 300 619 300 633 q 317 258 293 433 q 323 209 321 226 q 326 162 325 192 q 321 113 326 132 q 306 70 315 93 q 276 29 296 47 q 229 -3 257 11 q 188 8 206 3 q 149 20 169 13 q 115 38 128 28 q 90 61 103 47 q 73 92 76 75 q 67 131 69 108 q 74 182 64 154 q 133 338 158 225 q 133 382 133 351 q 133 428 133 413 q 149 537 142 493 q 169 639 156 581 q 202 740 183 697 q 248 830 221 783 q 314 914 275 876 q 403 981 353 951 q 442 1004 425 992 q 468 1079 492 1036 q 447 1117 453 1107 q 433 1147 440 1128 q 422 1171 425 1165 q 419 1190 418 1176 q 421 1205 419 1203 q 433 1216 422 1207 q 449 1227 443 1225 q 476 1236 456 1229 q 510 1246 497 1243 q 554 1256 524 1249 q 580 1272 564 1258 q 606 1285 596 1285 q 627 1297 615 1286 q 648 1317 639 1307 q 667 1335 657 1328 q 688 1336 676 1342 q 708 1308 699 1331 q 742 1267 717 1292 q 785 1223 768 1242 q 800 1174 803 1204 q 763 1108 797 1143 q 749 1072 744 1094 q 778 1035 753 1049 q 778 914 778 989 q 788 911 781 913 q 797 910 794 910 q 887 801 857 861 q 919 682 917 740 q 917 556 921 624 q 953 463 928 510 q 1011 392 978 417 z "},"":{"ha":1019,"x_min":63,"x_max":954,"o":"m 124 267 q 117 333 117 306 q 128 394 118 360 q 150 453 139 428 q 174 511 161 478 q 193 569 188 544 q 357 694 283 660 q 408 721 388 707 q 447 757 428 735 q 463 810 465 779 q 433 876 460 840 q 308 876 379 938 q 228 906 254 875 q 192 992 203 936 q 219 1058 203 1019 q 246 1079 232 1064 q 269 1108 260 1094 q 293 1133 278 1121 q 324 1147 308 1146 q 367 1139 340 1149 q 394 1078 375 1099 q 437 1059 414 1058 q 488 1063 460 1060 q 540 1069 515 1065 q 585 1058 564 1072 q 611 1022 592 1042 q 642 981 631 1001 q 650 935 654 961 q 647 905 649 925 q 644 875 646 885 q 638 857 642 868 q 630 838 633 846 q 623 819 626 829 q 618 801 619 808 q 617 785 617 794 q 620 772 617 776 q 629 762 624 768 q 646 755 635 756 q 671 752 657 754 q 707 754 685 750 q 729 728 717 732 q 764 735 742 725 q 792 746 786 744 q 889 633 803 672 q 900 599 893 622 q 911 565 907 576 q 922 492 917 549 q 946 408 926 436 q 953 388 942 396 q 926 289 931 346 q 926 186 921 232 q 924 85 932 140 q 917 -1 922 56 q 832 17 883 -7 q 764 43 781 40 q 738 49 753 54 q 719 65 725 57 q 713 81 713 72 q 715 97 713 90 q 723 117 717 104 q 732 136 729 129 q 740 521 800 317 q 654 585 721 590 q 600 510 599 579 q 603 61 600 449 q 594 47 601 57 q 582 29 586 36 q 485 40 521 24 q 440 86 450 56 q 428 156 431 117 q 433 236 426 194 q 444 286 436 256 q 457 337 451 317 q 465 388 463 357 q 460 440 468 418 q 465 482 457 451 q 466 528 472 513 q 425 542 460 544 q 399 540 410 542 q 372 535 388 539 q 345 526 356 532 q 324 512 335 521 q 308 490 313 503 q 303 460 303 478 q 310 419 303 442 q 302 369 315 399 q 281 321 289 340 q 290 269 272 301 q 279 240 288 263 q 269 206 271 217 q 269 178 267 196 q 282 144 271 160 q 219 25 256 94 q 131 32 194 26 q 104 57 119 42 q 67 208 64 143 q 87 219 72 213 q 109 230 101 225 q 122 244 117 235 q 124 267 128 254 z "},"":{"ha":1101,"x_min":71,"x_max":1021,"o":"m 899 915 q 978 824 949 875 q 1014 724 1007 774 q 1020 618 1021 674 q 1012 510 1019 563 q 1003 401 1004 457 q 1010 296 1003 344 q 1007 218 1014 272 q 999 149 1000 164 q 998 116 999 128 q 993 88 997 104 q 982 63 989 71 q 960 47 975 54 q 926 40 946 40 q 892 46 907 39 q 871 60 878 53 q 860 87 864 68 q 855 113 856 106 q 851 144 854 121 q 846 189 851 147 q 907 732 918 457 q 788 881 900 867 q 776 871 785 878 q 765 862 768 864 q 755 853 763 860 q 745 842 747 846 q 737 831 743 839 q 730 819 731 824 q 725 805 729 814 q 724 790 721 796 q 725 772 726 783 q 730 655 735 710 q 719 538 725 600 q 710 420 714 475 q 717 304 706 365 q 760 189 729 243 q 733 135 744 171 q 714 72 722 99 q 678 26 706 46 q 606 8 651 6 q 587 25 603 11 q 566 43 571 39 q 548 60 561 47 q 531 81 535 74 q 519 101 526 88 q 510 124 511 114 q 511 147 510 133 q 519 175 513 161 q 553 299 543 229 q 562 427 563 369 q 569 556 561 485 q 597 682 576 628 q 612 726 607 704 q 619 776 617 749 q 608 824 621 804 q 569 850 596 844 q 476 820 514 863 q 421 710 439 778 q 413 685 419 701 q 404 654 407 668 q 400 626 401 640 q 417 264 393 439 q 426 187 424 215 q 420 119 428 158 q 390 51 413 79 q 383 42 388 49 q 376 33 379 36 q 382 -1 375 14 q 392 -47 383 -21 q 408 -90 401 -72 q 417 -135 415 -108 q 407 -182 419 -161 q 347 -239 389 -199 q 239 -230 310 -236 q 136 -221 168 -224 q 90 -129 101 -179 q 78 -10 79 -79 q 72 89 78 58 q 72 104 72 94 q 71 119 71 114 q 76 242 72 161 q 138 277 115 263 q 188 315 160 292 q 233 363 217 339 q 233 399 233 375 q 233 433 233 422 q 249 542 242 499 q 269 645 256 586 q 302 747 283 704 q 348 836 321 790 q 414 919 375 882 q 503 986 453 957 q 542 1011 525 999 q 568 1086 592 1042 q 547 1124 553 1113 q 533 1153 540 1135 q 522 1178 525 1172 q 519 1196 518 1183 q 521 1211 519 1208 q 533 1223 522 1214 q 549 1233 543 1232 q 576 1242 556 1235 q 610 1251 597 1249 q 656 1263 624 1254 q 681 1278 664 1265 q 706 1292 697 1290 q 727 1302 715 1292 q 748 1323 739 1313 q 767 1340 757 1333 q 788 1342 778 1347 q 808 1315 799 1336 q 842 1273 817 1299 q 885 1229 868 1247 q 900 1181 903 1211 q 863 1115 897 1150 q 849 1077 846 1100 q 878 1042 853 1054 q 878 919 878 1007 q 888 918 881 919 q 899 915 894 917 z "},"":{"ha":1058,"x_min":81,"x_max":990,"o":"m 85 417 q 129 519 100 446 q 189 642 158 593 q 267 725 219 692 q 325 757 281 732 q 478 786 428 754 q 571 761 524 764 q 654 763 603 758 q 741 772 706 768 q 821 763 776 775 q 900 717 865 750 q 912 687 903 700 q 941 656 921 674 q 965 635 961 639 q 972 488 974 594 q 990 340 971 381 q 960 281 974 322 q 942 232 946 240 q 603 89 835 21 q 588 148 599 107 q 572 210 578 189 q 594 571 607 400 q 604 606 601 593 q 608 637 607 619 q 597 663 608 654 q 564 671 586 672 q 529 661 542 669 q 513 638 517 653 q 510 608 510 622 q 511 574 510 594 q 513 542 513 553 q 503 363 508 475 q 463 307 475 339 q 452 244 451 275 q 453 178 453 213 q 442 83 457 121 q 393 27 426 44 q 324 3 360 10 q 236 -3 288 -3 q 113 49 146 -1 q 83 190 81 99 q 85 417 85 204 m 688 457 q 665 401 671 432 q 660 347 658 369 q 666 286 661 324 q 671 231 671 249 q 694 192 672 199 q 743 211 717 185 q 792 280 775 238 q 824 371 810 322 q 857 449 839 419 q 870 483 868 465 q 866 518 872 500 q 853 550 860 536 q 834 585 846 564 q 817 615 822 606 q 777 644 807 635 q 725 640 747 653 q 694 601 701 626 q 691 553 688 576 q 690 503 694 529 q 688 457 690 500 m 358 632 q 311 610 329 628 q 287 575 293 593 q 273 528 281 557 q 258 486 265 500 q 235 445 243 461 q 216 405 226 429 q 202 362 206 381 q 200 319 199 343 q 210 269 201 294 q 206 222 211 254 q 205 165 200 189 q 236 124 210 140 q 264 115 250 111 q 285 124 278 118 q 303 142 292 131 q 322 157 314 153 q 344 182 338 167 q 352 208 351 197 q 351 240 353 219 q 350 271 350 261 q 335 310 338 289 q 338 349 333 332 q 349 390 343 367 q 354 429 354 413 q 408 614 440 507 q 388 628 406 622 q 358 632 369 633 z "},"":{"ha":1429,"x_min":74,"x_max":1369,"o":"m 960 192 q 951 181 956 186 q 938 171 946 176 q 928 163 931 165 q 906 132 913 142 q 756 60 858 61 q 715 65 746 63 q 665 73 685 67 q 629 94 646 79 q 606 126 618 110 q 605 290 606 179 q 604 460 604 401 q 589 619 663 590 q 551 615 560 631 q 541 569 542 600 q 533 526 540 538 q 527 511 533 525 q 517 489 521 497 q 511 463 511 476 q 497 385 500 431 q 476 270 490 346 q 454 157 461 194 q 456 65 456 99 q 304 -3 385 1 q 151 46 224 -7 q 113 80 129 61 q 90 122 97 99 q 79 164 83 146 q 76 212 75 182 q 80 258 78 242 q 88 306 82 274 q 94 351 93 339 q 115 452 101 400 q 149 572 128 504 q 181 671 171 639 q 208 678 194 672 q 436 763 315 740 q 667 774 557 785 q 904 725 776 763 q 936 699 915 717 q 968 674 957 682 q 1026 563 983 607 q 1117 538 1068 519 q 1194 554 1160 554 q 1250 547 1229 554 q 1292 514 1271 539 q 1322 471 1313 489 q 1350 415 1332 453 q 1360 396 1356 401 q 1326 219 1369 310 q 1230 215 1293 218 q 1147 211 1167 213 q 1119 251 1131 221 q 1090 300 1107 281 q 1041 315 1074 319 q 995 291 1008 311 q 975 238 982 271 q 960 192 968 206 m 789 272 q 835 338 821 300 q 847 410 849 375 q 846 485 846 444 q 851 557 846 525 q 832 607 858 588 q 769 628 806 626 q 748 624 757 628 q 734 617 739 621 q 726 603 729 613 q 724 587 724 593 q 723 568 724 581 q 722 551 722 556 q 717 476 721 529 q 712 401 713 422 q 713 326 711 379 q 713 308 713 324 q 715 283 714 292 q 719 262 715 274 q 731 247 724 250 q 753 250 739 244 q 789 272 768 256 m 429 579 q 432 615 436 599 q 404 633 428 632 q 360 583 368 636 q 300 521 317 568 q 252 373 268 472 q 219 236 236 274 q 217 187 206 210 q 263 160 228 164 q 296 158 281 160 q 323 167 311 156 q 336 204 335 178 q 342 235 338 219 q 353 273 346 251 q 363 304 360 294 q 397 384 385 343 q 417 494 408 425 q 429 579 426 563 z "},"":{"ha":1267,"x_min":40,"x_max":1207,"o":"m 547 1107 q 634 1108 581 1104 q 734 1110 688 1111 q 819 1096 781 1110 q 865 1066 833 1086 q 913 1033 896 1046 q 949 994 931 1019 q 972 939 967 969 q 953 731 967 879 q 929 474 939 582 q 911 264 919 365 q 927 199 907 222 q 974 178 947 176 q 1013 197 1000 179 q 1067 248 1042 240 q 1107 241 1092 256 q 1143 204 1122 226 q 1179 176 1164 182 q 1188 99 1192 150 q 1193 18 1185 49 q 1180 -63 1206 -19 q 1114 -126 1154 -107 q 1092 -138 1110 -129 q 1067 -150 1075 -147 q 1044 -158 1060 -153 q 1017 -162 1028 -164 q 993 -158 1007 -161 q 968 -144 979 -156 q 946 -117 957 -133 q 869 -98 915 -100 q 785 -99 822 -96 q 705 -88 747 -103 q 636 -35 663 -74 q 605 -10 631 -25 q 579 25 579 4 q 661 42 590 32 q 681 51 681 47 q 656 115 656 93 q 675 154 656 138 q 717 180 694 171 q 759 204 739 189 q 781 239 779 219 q 789 301 781 246 q 809 337 807 315 q 803 376 811 358 q 797 416 796 394 q 814 453 797 438 q 808 476 817 468 q 788 487 800 485 q 766 495 776 489 q 754 513 756 501 q 699 543 735 533 q 629 565 663 553 q 581 608 596 578 q 582 726 582 694 q 575 793 619 785 q 549 788 558 796 q 528 753 539 779 q 517 725 518 728 q 522 629 494 686 q 506 518 517 597 q 361 399 379 413 q 119 504 210 413 q 82 635 40 553 q 85 725 83 664 q 88 818 88 786 q 142 949 108 893 q 220 1036 176 1004 q 317 1087 264 1068 q 427 1108 369 1106 q 547 1107 485 1110 m 399 693 q 431 753 424 719 q 434 818 439 788 q 429 885 429 849 q 438 950 429 921 q 431 974 443 963 q 399 987 418 986 q 361 971 381 988 q 254 894 292 936 q 217 786 217 853 l 217 786 q 209 713 211 740 q 208 658 207 686 q 211 617 208 631 q 222 592 214 604 q 240 576 231 579 q 270 570 250 572 q 310 570 290 568 q 363 576 329 572 q 398 597 386 585 q 410 627 410 608 q 408 658 411 646 q 399 693 406 669 m 572 918 q 608 972 622 931 q 601 981 607 978 q 588 989 596 985 q 576 994 579 993 q 546 946 542 985 q 548 931 546 938 q 556 921 550 925 q 572 918 563 917 m 721 633 q 758 641 743 636 q 790 656 774 646 q 815 683 807 665 q 824 724 824 700 q 841 738 835 731 q 849 758 847 746 q 851 776 850 771 q 849 798 851 781 q 846 817 846 815 q 855 853 846 832 q 871 891 864 875 q 875 927 878 907 q 853 965 872 947 q 715 979 803 1013 q 692 963 700 972 q 686 938 685 953 q 690 913 688 924 q 700 885 693 903 q 703 878 703 881 q 697 849 699 864 q 675 813 682 833 q 668 776 668 792 q 671 735 668 761 q 674 696 674 708 q 677 646 664 664 q 721 633 690 628 z "},"":{"ha":1057,"x_min":69,"x_max":990,"o":"m 131 889 q 501 1115 226 1113 q 501 1116 501 1115 q 500 1117 500 1117 q 606 1095 543 1099 q 717 1096 668 1092 q 825 1085 767 1100 q 925 1031 883 1071 q 960 965 946 999 q 979 893 974 931 q 987 827 985 856 q 985 755 989 799 q 977 688 981 711 q 965 615 974 665 q 953 546 957 564 l 954 546 q 919 263 928 449 q 897 -1 911 78 q 841 -2 878 -1 q 788 -3 804 -3 q 776 -3 781 0 q 762 29 771 8 q 749 60 753 50 q 836 515 801 331 q 747 509 788 508 q 667 526 706 510 q 599 579 628 543 q 585 851 594 669 q 617 896 608 875 q 618 944 625 917 q 583 999 611 971 q 566 969 578 989 q 550 938 554 949 q 542 912 546 928 q 545 881 539 896 q 568 851 551 867 l 576 853 l 585 851 q 568 851 579 851 q 537 708 557 801 q 507 574 517 614 q 502 513 513 543 q 480 469 492 483 q 440 424 468 454 q 398 422 418 418 q 356 419 378 425 q 321 392 333 414 q 290 395 310 393 q 261 397 271 397 q 185 428 218 410 q 132 466 153 446 q 98 515 111 486 q 79 569 85 544 q 72 629 74 593 q 71 691 69 665 q 74 756 72 717 q 76 819 76 796 q 95 840 82 826 q 117 866 108 854 q 131 889 125 878 m 449 864 q 463 892 451 871 q 478 927 474 914 q 482 958 483 940 q 467 988 481 976 q 440 999 453 999 q 414 994 426 1000 q 390 979 401 988 q 364 960 378 971 q 340 946 350 950 q 321 936 328 946 q 308 924 314 931 q 297 911 301 917 q 288 897 292 906 q 281 883 283 888 q 274 867 278 878 q 269 851 271 856 q 265 835 268 847 q 261 819 263 822 q 250 760 258 800 q 238 690 242 721 q 236 632 235 660 q 354 567 247 475 q 382 576 374 572 q 399 589 390 579 q 404 613 408 599 q 396 659 397 635 q 395 700 394 683 q 404 744 396 717 q 416 781 413 771 q 433 824 419 792 q 449 864 446 857 m 810 668 q 844 846 914 721 q 746 1001 914 990 q 710 931 721 971 q 701 858 700 892 q 702 781 703 825 q 696 706 701 736 q 731 658 688 667 q 810 668 775 649 z "},"":{"ha":1124,"x_min":69,"x_max":1067,"o":"m 1051 224 q 967 9 1065 64 q 671 14 869 -46 q 661 103 663 36 q 636 201 660 169 q 643 219 643 210 q 731 337 663 267 q 821 443 800 407 q 829 483 824 457 q 836 522 835 510 q 747 515 788 515 q 667 533 706 515 q 599 586 628 550 q 585 858 594 676 q 617 903 608 882 q 618 950 625 924 q 583 1006 611 976 q 566 975 578 996 q 550 944 554 954 q 542 918 546 935 q 545 888 539 901 q 568 857 551 874 l 576 860 l 585 858 q 568 857 579 858 q 537 715 557 808 q 507 579 517 621 q 502 519 513 549 q 480 475 492 490 q 440 431 468 460 q 398 428 418 425 q 356 426 378 432 q 321 399 333 419 q 291 401 311 400 q 261 404 271 403 q 185 434 218 415 q 132 473 153 453 q 98 522 111 493 q 79 576 85 551 q 72 636 74 600 q 71 697 69 672 q 74 763 72 722 q 76 826 76 803 q 95 847 82 833 q 117 872 108 861 q 131 896 125 883 q 501 1122 226 1118 q 500 1124 500 1124 q 606 1101 543 1104 q 717 1102 668 1099 q 825 1091 767 1106 q 925 1038 883 1076 q 960 971 946 1004 q 979 900 974 938 q 987 834 985 863 q 985 761 989 806 q 977 694 981 717 q 965 621 974 671 q 953 553 957 571 l 954 553 q 931 422 939 497 q 932 375 932 407 q 944 331 926 351 q 984 299 961 311 q 1028 267 1007 286 q 1051 224 1049 247 m 449 871 q 463 899 451 876 q 478 934 474 921 q 482 965 483 947 q 467 994 481 983 q 440 1006 453 1004 q 414 1001 426 1007 q 390 985 401 994 q 364 967 378 976 q 340 953 350 957 q 321 942 328 953 q 308 931 314 938 q 297 918 301 924 q 288 903 292 913 q 281 890 283 894 q 274 874 278 885 q 269 858 271 863 q 265 842 268 854 q 261 825 263 829 q 250 767 258 807 q 238 696 242 726 q 236 638 235 665 q 354 574 247 482 q 382 582 374 579 q 399 595 390 585 q 404 618 408 606 q 396 665 397 642 q 395 706 394 689 q 404 750 396 722 q 416 788 413 778 q 433 831 419 799 q 449 871 446 864 m 810 675 q 844 853 914 728 q 746 1008 914 997 q 710 938 721 978 q 701 864 700 897 q 702 786 703 831 q 696 711 701 742 q 731 664 688 674 q 810 675 775 654 z "},"":{"ha":1101,"x_min":60,"x_max":1054,"o":"m 933 1072 q 1026 686 1054 876 q 999 632 1019 657 q 956 592 978 607 q 910 553 935 576 q 872 508 885 531 q 844 506 868 507 q 815 504 821 504 q 788 503 808 504 q 758 504 767 503 q 731 508 749 506 q 703 514 714 510 q 678 525 693 518 q 652 541 664 532 q 629 563 640 550 q 597 835 618 653 q 538 775 549 825 q 548 747 543 761 q 556 715 553 732 q 561 688 560 699 q 565 655 563 676 q 567 626 567 633 q 569 593 568 618 q 571 564 571 568 q 532 507 553 538 q 485 440 511 476 q 446 383 460 404 q 412 360 428 375 q 388 333 396 344 q 367 297 381 321 q 350 264 354 272 q 323 241 340 256 q 300 222 306 226 q 267 186 293 215 q 232 144 242 157 q 212 103 222 131 q 203 49 201 76 q 156 29 186 42 q 114 11 126 17 q 72 44 82 24 q 67 83 61 65 q 79 127 72 101 q 85 169 86 153 q 146 224 117 190 q 190 283 175 257 q 231 356 206 308 q 268 421 257 404 q 260 451 276 436 q 219 477 244 465 q 167 510 193 489 q 133 554 142 531 q 114 594 133 557 q 116 710 114 632 q 119 829 118 789 q 183 925 143 876 q 250 999 224 974 q 335 1078 276 1025 q 360 1075 347 1078 q 372 1091 363 1078 q 388 1111 382 1104 q 457 1093 413 1104 q 510 1081 501 1082 q 613 1091 540 1082 q 725 1103 685 1100 q 824 1100 765 1107 q 933 1072 883 1093 m 390 653 q 437 689 424 663 q 447 742 450 715 q 448 798 443 768 q 472 844 453 828 q 474 896 475 867 q 460 946 472 925 q 450 960 456 954 l 450 961 q 421 1017 435 990 q 388 993 414 1013 q 367 973 378 983 q 344 951 357 963 q 324 932 331 939 q 310 904 319 925 q 296 871 301 883 q 280 811 293 849 q 260 749 267 774 q 260 690 253 724 q 297 629 267 657 q 348 625 321 622 q 390 653 375 628 m 821 678 q 818 811 872 751 q 815 886 815 882 q 813 907 814 893 q 811 929 813 921 q 806 947 810 938 q 792 960 801 957 q 767 963 782 964 q 748 956 756 961 q 736 945 740 950 q 731 929 732 940 q 731 913 731 918 q 733 894 732 908 q 735 876 735 881 q 731 832 736 874 q 783 672 717 729 q 802 670 788 668 q 821 678 817 672 z "},"":{"ha":1081,"x_min":47,"x_max":1011,"o":"m 1008 460 q 1009 445 1008 456 q 1010 429 1010 435 q 1010 414 1010 424 q 1010 400 1010 404 q 1006 331 1008 382 q 999 256 1003 281 q 982 194 996 231 q 942 129 968 157 q 918 97 933 113 q 894 74 903 81 q 858 51 885 67 q 828 32 832 35 q 767 0 810 22 q 707 0 747 0 q 646 0 667 0 q 593 15 625 6 q 588 64 600 40 q 558 110 575 88 q 540 154 540 133 q 562 201 547 169 q 583 247 576 232 q 585 340 585 279 q 585 429 585 401 q 607 453 600 439 q 615 477 614 468 q 614 508 615 486 q 611 536 613 531 q 567 599 610 601 q 543 594 551 599 q 531 578 535 589 q 527 562 528 568 q 528 540 526 556 q 529 519 529 524 q 517 410 525 482 q 504 308 508 339 q 499 154 481 239 q 503 6 463 93 q 515 -97 522 -56 q 497 -199 507 -139 q 497 -301 488 -260 q 458 -449 483 -353 l 458 -447 q 387 -474 424 -475 q 323 -458 350 -474 q 260 -425 296 -442 q 194 -410 224 -408 q 196 -390 196 -403 q 196 -371 196 -378 q 221 -275 204 -339 q 246 -181 238 -211 q 266 -121 253 -161 q 288 -57 279 -81 q 225 -103 235 -69 l 199 -22 l 124 40 l 85 150 l 85 151 q 92 180 90 164 q 94 217 94 196 q 93 247 93 238 q 96 400 47 328 q 100 423 97 404 q 109 452 103 442 q 128 469 115 463 q 167 507 153 483 q 193 564 182 531 q 214 613 204 597 q 292 664 232 632 q 374 731 353 696 q 374 731 374 731 q 524 736 390 732 q 676 733 575 735 q 826 729 776 731 q 918 672 864 675 q 961 576 932 640 q 1006 481 990 513 q 1008 460 1000 469 m 363 226 q 426 558 369 264 q 361 544 386 561 q 311 492 336 526 q 283 458 293 478 q 272 424 274 438 q 269 382 269 411 q 268 343 268 353 q 238 307 243 328 q 242 267 233 286 q 254 226 250 247 q 251 186 258 204 q 257 75 193 135 q 285 67 268 64 q 304 85 301 69 q 303 104 306 93 q 293 130 300 115 q 285 151 286 144 q 363 226 350 157 m 769 179 q 890 369 896 214 q 867 407 874 382 q 861 455 861 432 q 848 498 861 478 q 806 525 835 518 q 797 545 800 538 q 788 563 794 553 q 776 576 782 574 q 758 582 769 579 q 735 578 747 585 q 717 567 724 574 q 708 549 710 560 q 707 531 707 539 q 709 509 707 522 q 711 490 711 496 q 708 367 703 433 q 738 247 713 300 q 713 210 721 228 q 709 172 706 192 q 731 136 713 151 q 755 139 746 124 q 769 179 764 154 z "},"":{"ha":1479,"x_min":72,"x_max":1410,"o":"m 1197 214 q 1219 228 1213 218 q 1227 247 1226 238 q 1236 266 1228 256 q 1261 283 1244 276 q 1332 291 1304 299 q 1374 260 1360 283 q 1395 213 1389 238 q 1403 169 1401 189 l 1403 150 q 1407 108 1410 128 q 1402 74 1404 88 q 1390 47 1400 60 q 1370 25 1379 33 q 1344 8 1361 17 q 1311 -6 1326 0 q 1274 -19 1296 -12 q 1168 -31 1207 -36 q 1068 -16 1129 -26 q 968 -8 1007 -6 q 924 -17 939 -11 q 909 -34 910 -24 q 913 -55 908 -44 q 924 -79 917 -65 q 932 -101 931 -93 q 850 -233 879 -186 q 799 -258 833 -240 q 739 -286 765 -276 q 689 -296 713 -296 q 626 -306 653 -296 q 585 -330 600 -317 q 560 -369 569 -343 q 546 -415 550 -394 q 538 -468 542 -435 q 515 -475 525 -465 q 378 -375 388 -479 q 514 -165 361 -211 l 515 -165 q 547 -158 524 -162 q 583 -149 571 -153 q 612 -135 596 -144 q 638 -108 628 -125 q 704 -99 678 -110 q 744 -73 731 -89 q 763 -32 758 -57 q 767 18 768 -7 q 760 76 765 43 q 790 151 786 111 q 788 243 794 190 q 783 321 782 296 q 785 381 783 321 q 797 404 793 396 q 809 428 801 413 q 817 449 817 443 q 819 468 818 456 q 814 483 821 481 q 799 494 807 486 q 773 499 792 503 q 733 497 754 496 q 619 526 661 489 q 540 650 578 564 q 485 500 488 507 q 466 458 478 476 q 438 430 454 440 q 406 413 421 419 q 370 405 392 407 q 334 402 349 403 q 295 402 319 401 q 260 403 271 403 q 219 403 240 404 q 177 407 199 403 q 138 419 156 411 q 108 447 121 428 q 90 492 94 465 q 77 602 82 560 q 72 707 72 644 q 83 815 72 769 q 119 912 93 860 q 185 1008 144 964 q 211 1022 199 1015 q 249 1035 232 1022 q 277 1062 267 1047 q 304 1091 288 1076 q 339 1108 321 1106 q 378 1110 347 1108 q 424 1113 408 1111 q 450 1102 438 1104 q 476 1106 463 1100 q 497 1117 490 1113 q 519 1133 504 1122 l 526 1132 l 532 1138 q 538 1132 533 1136 q 561 1112 553 1118 q 584 1098 569 1106 q 614 1092 599 1090 q 647 1101 629 1093 q 850 1090 726 1138 q 907 1049 878 1069 q 958 952 944 1006 q 969 858 972 899 q 956 753 965 818 q 946 656 947 689 q 940 606 940 633 q 958 558 940 578 q 943 424 944 429 q 935 329 938 364 q 935 261 933 294 q 942 212 938 228 q 962 183 946 196 q 994 169 978 171 q 1043 173 1010 168 q 1109 188 1076 178 q 1197 214 1142 197 m 422 831 q 424 872 418 843 q 426 922 431 900 q 393 954 421 944 q 360 960 376 963 q 335 952 344 957 q 313 935 325 947 q 294 914 301 924 q 275 890 286 904 q 254 867 264 875 q 219 797 226 838 q 219 723 213 757 q 223 648 225 689 q 200 578 221 607 q 212 556 197 575 q 255 518 226 536 q 313 501 283 500 q 392 586 404 510 q 406 708 385 629 q 422 831 428 786 m 535 664 q 567 751 572 711 q 517 846 563 792 q 535 664 525 761 m 850 831 q 861 865 860 847 q 855 901 863 883 q 840 932 847 919 q 819 964 833 944 q 767 992 800 990 q 710 983 735 994 q 678 962 686 978 q 671 918 671 946 q 669 882 671 890 q 666 859 667 871 q 667 831 665 847 q 668 807 668 815 l 671 807 q 671 704 671 710 q 692 624 665 651 q 765 599 719 596 q 824 633 808 601 q 819 708 839 664 q 813 728 815 718 q 813 747 811 738 q 815 763 814 757 q 821 781 815 769 q 829 797 826 793 q 840 815 832 801 q 850 831 847 828 z "},"":{"ha":1092,"x_min":65,"x_max":1021,"o":"m 857 928 q 863 990 860 961 q 940 1017 910 1014 q 982 1009 969 1021 q 1000 975 994 997 q 1005 929 1006 953 q 1007 879 1004 906 q 1018 838 1010 853 q 1006 689 1008 729 q 993 669 994 679 q 995 653 992 658 q 1008 639 999 649 q 1019 626 1017 629 q 1008 557 1015 601 q 994 485 1000 513 q 978 420 989 458 q 953 356 968 382 q 914 303 938 331 q 856 257 890 276 q 775 225 821 238 q 739 229 761 221 q 700 244 717 238 q 667 244 683 251 q 642 204 650 236 q 573 144 611 185 q 508 74 535 103 q 433 25 481 44 q 328 14 386 6 q 172 53 299 18 q 142 83 163 63 q 113 114 122 104 q 97 155 110 121 q 79 203 83 189 q 71 244 75 218 q 69 293 67 271 q 83 348 74 310 q 97 406 93 386 q 109 459 101 425 q 120 517 117 493 q 126 571 124 540 q 129 630 129 601 q 126 686 129 658 q 133 924 132 906 q 163 1024 138 990 q 256 1050 189 1058 q 267 1022 258 1044 q 281 988 275 1000 q 296 939 282 968 q 315 892 310 910 q 313 840 321 875 q 285 795 290 819 q 285 736 281 771 q 289 686 290 701 q 274 602 283 657 q 263 535 264 547 q 260 474 261 515 q 258 413 258 433 q 221 333 228 376 q 227 255 214 290 q 267 196 240 219 q 328 173 290 174 q 402 188 365 172 q 471 229 439 203 q 494 275 488 250 q 501 318 501 300 q 497 368 500 336 q 493 414 494 400 q 512 576 500 465 q 531 746 524 688 q 531 869 576 803 q 530 948 525 904 q 561 1021 535 992 q 607 1021 576 1021 q 653 1021 638 1021 q 678 886 674 979 q 707 749 682 793 q 690 669 694 714 q 689 587 686 624 q 686 504 692 550 q 684 471 686 493 q 681 435 682 449 q 682 404 679 421 q 693 378 685 388 q 722 363 701 368 q 772 360 742 357 q 804 401 783 374 q 836 442 825 428 q 854 465 847 453 q 865 488 861 478 q 869 515 868 499 q 869 540 869 532 q 866 569 868 549 q 864 594 864 589 q 861 686 863 632 q 863 749 863 708 q 864 808 864 789 q 876 849 881 833 q 863 888 872 864 q 857 928 854 911 q 850 901 854 915 q 857 928 851 917 z "},"":{"ha":1467,"x_min":65,"x_max":1406,"o":"m 1396 657 q 1363 482 1406 571 q 1183 474 1307 479 q 1155 513 1167 483 q 1127 563 1143 543 q 1078 578 1111 582 q 1032 553 1046 574 q 1011 501 1018 533 q 996 454 1004 468 q 985 443 993 450 q 917 306 964 361 q 775 225 869 251 q 739 229 761 221 q 700 244 717 238 q 667 244 683 251 q 642 204 650 236 q 573 144 611 185 q 508 74 535 103 q 433 25 481 44 q 328 14 386 6 q 172 53 299 18 q 141 85 161 64 q 113 114 121 106 q 97 155 110 121 q 79 203 83 189 q 71 244 75 218 q 69 293 67 271 q 83 348 74 310 q 97 406 93 386 q 109 459 101 425 q 120 517 117 493 q 126 571 124 540 q 129 630 129 601 q 126 686 129 658 q 133 924 132 906 q 163 1024 138 990 q 256 1050 189 1058 q 267 1020 258 1042 q 281 988 275 999 q 296 939 282 968 q 315 892 310 910 q 313 840 321 875 q 285 795 290 819 q 285 736 281 771 q 289 686 290 701 q 274 600 283 657 q 263 535 264 543 q 260 471 261 513 q 258 413 258 429 q 221 333 228 376 q 227 255 214 290 q 267 196 240 219 q 328 173 290 174 q 402 188 365 172 q 471 229 439 203 q 494 275 488 250 q 501 318 501 300 q 497 368 500 336 q 493 414 494 400 q 512 576 500 465 q 531 746 524 688 q 531 869 576 803 q 530 948 525 904 q 561 1021 535 992 q 607 1021 576 1021 q 653 1021 638 1021 q 678 886 674 979 q 707 749 682 793 q 690 669 694 714 q 689 587 686 624 q 686 504 692 550 q 684 471 686 493 q 681 435 682 449 q 682 404 679 421 q 693 378 685 388 q 722 363 701 368 q 772 360 742 357 q 805 401 783 374 q 836 442 826 429 q 854 465 847 453 q 865 488 861 478 q 869 515 868 499 q 869 540 869 532 q 866 569 868 549 q 864 594 864 589 q 861 686 863 618 q 863 742 861 700 q 864 808 864 785 q 876 849 881 833 q 863 888 872 864 q 857 928 854 911 q 850 901 850 901 q 857 928 851 917 q 860 959 858 938 q 863 990 861 981 q 938 1017 908 1013 q 981 1009 967 1022 q 999 979 994 996 q 1004 933 1003 963 l 1004 936 q 1063 825 1021 868 q 1154 800 1104 782 q 1231 817 1196 817 q 1286 809 1265 817 q 1328 776 1307 801 q 1358 732 1349 750 q 1386 678 1368 714 q 1396 657 1392 664 z "},"":{"ha":1293,"x_min":64,"x_max":1222,"o":"m 1211 219 q 1217 145 1211 194 q 1220 56 1222 96 q 1200 -18 1218 17 q 1151 -51 1158 -22 q 1077 -49 1128 -64 q 1001 -51 1026 -33 q 960 -8 982 -24 q 908 9 938 7 q 859 10 878 11 q 803 3 840 10 q 751 -4 765 -3 q 717 15 739 1 q 713 16 715 15 q 710 17 711 17 q 699 17 703 19 q 697 19 697 18 q 696 21 697 21 q 633 150 625 40 q 743 325 732 265 q 754 361 754 358 q 764 572 740 450 q 551 558 681 529 q 488 565 518 568 q 432 535 457 561 q 319 481 385 488 q 215 511 253 474 q 147 553 171 553 l 64 757 q 92 1011 100 876 q 91 1053 90 1033 q 104 1085 92 1072 q 143 1100 117 1099 q 190 1080 172 1100 q 210 1029 207 1060 q 218 977 213 1011 q 226 922 224 943 q 228 873 229 901 q 222 822 228 844 q 296 633 185 676 q 342 626 326 624 q 367 647 357 629 q 383 682 378 664 q 396 720 388 700 q 415 750 404 740 q 447 844 440 794 q 446 935 453 894 q 421 1031 439 976 q 430 1048 425 1038 q 438 1066 435 1058 q 447 1083 442 1074 q 459 1097 453 1092 q 474 1106 465 1103 q 496 1109 483 1110 q 524 1104 508 1108 q 558 1080 550 1096 q 562 1049 567 1064 q 556 1016 557 1033 q 564 988 556 999 q 551 825 589 904 q 597 699 515 750 q 717 749 671 653 l 719 750 q 746 781 736 764 q 758 819 756 797 q 759 852 760 840 q 753 893 758 864 q 749 929 749 922 q 758 940 754 935 q 763 950 761 944 q 766 960 764 956 q 766 971 768 964 q 764 980 764 978 q 760 990 764 982 q 757 1000 757 999 q 752 1010 757 1001 q 746 1019 747 1019 q 752 1092 740 1067 q 811 1118 764 1118 q 846 1102 833 1108 q 874 1084 858 1096 q 897 1056 889 1072 q 907 1019 906 1040 q 908 886 907 978 q 908 746 908 794 q 863 385 892 661 q 861 358 863 376 q 866 322 861 350 q 869 283 871 293 q 888 268 875 279 q 910 252 901 257 q 932 242 918 247 q 964 238 946 236 q 1004 247 982 239 q 1047 303 1015 261 q 1094 369 1078 346 q 1124 359 1104 367 q 1154 349 1144 351 q 1178 309 1176 336 q 1183 256 1181 282 q 1211 219 1186 231 z "},"":{"ha":988,"x_min":65,"x_max":911,"o":"m 908 1014 q 909 888 908 983 q 910 740 910 793 q 864 374 893 656 q 821 13 835 93 q 768 12 806 13 q 711 11 731 11 q 700 11 704 13 q 686 42 696 21 q 672 74 676 63 q 690 147 678 104 q 725 258 703 190 q 756 356 747 326 q 765 567 742 443 q 553 553 682 524 q 489 559 519 563 q 433 529 458 556 q 320 474 386 481 q 217 504 254 468 q 149 547 172 546 l 65 751 q 93 1006 101 869 q 92 1047 92 1028 q 106 1080 93 1067 q 144 1094 118 1093 q 191 1074 174 1094 q 211 1024 208 1054 q 219 972 214 1006 q 228 916 225 938 q 230 866 231 894 q 224 815 229 838 q 297 626 186 671 q 343 621 328 618 q 369 641 358 624 q 384 676 379 658 q 397 715 389 694 q 417 744 406 735 q 448 838 442 789 q 447 929 454 888 q 422 1024 440 971 q 431 1042 426 1031 q 440 1060 436 1053 q 449 1077 443 1068 q 460 1092 454 1086 q 476 1101 467 1097 q 497 1103 485 1104 q 525 1097 510 1103 q 560 1074 551 1089 q 563 1043 568 1058 q 558 1010 558 1028 q 565 982 557 993 q 553 819 590 897 q 599 693 517 744 q 718 743 672 647 l 721 744 q 747 774 738 758 q 759 813 757 790 q 760 847 761 835 q 755 888 760 858 q 750 924 750 917 q 759 934 756 929 q 764 944 763 939 q 767 953 765 950 q 767 965 769 957 q 765 974 765 972 q 762 985 765 976 q 758 994 758 993 q 753 1005 758 996 q 747 1014 749 1014 q 753 1086 740 1061 q 813 1111 765 1111 q 847 1097 835 1103 q 875 1078 860 1090 q 899 1051 890 1067 q 908 1014 907 1035 z "},"":{"ha":1099,"x_min":64,"x_max":1053,"o":"m 949 314 q 1015 39 1051 236 q 694 -51 894 -83 q 653 1 672 -29 q 583 132 574 18 q 615 200 604 157 q 631 285 619 239 q 636 314 635 308 q 640 329 638 319 q 644 344 643 339 q 688 399 674 360 q 717 479 701 438 q 760 540 732 521 q 764 564 764 564 q 551 550 681 522 q 488 557 518 561 q 432 526 457 553 q 319 472 385 479 q 215 503 253 465 q 147 546 171 544 l 64 749 q 92 1003 100 868 q 91 1044 90 1025 q 104 1078 92 1064 q 143 1092 117 1092 q 190 1072 172 1092 q 210 1021 207 1051 q 218 970 213 1004 q 226 915 224 936 q 228 865 229 893 q 222 814 228 836 q 296 625 185 668 q 342 619 326 615 q 367 639 357 622 q 383 674 378 656 q 396 713 388 692 q 415 742 404 733 q 447 836 440 786 q 446 927 453 886 q 421 1022 439 968 q 430 1040 425 1029 q 438 1059 435 1051 q 447 1076 442 1067 q 459 1090 453 1085 q 474 1098 465 1094 q 496 1101 483 1101 q 524 1096 508 1100 q 558 1072 550 1088 q 562 1041 567 1057 q 556 1008 557 1025 q 564 979 556 990 q 551 817 589 896 q 597 690 515 742 q 717 740 671 644 l 719 742 q 746 773 736 757 q 758 810 756 789 q 759 844 760 832 q 753 885 758 856 q 749 921 749 914 q 758 931 754 926 q 763 942 761 936 q 766 952 764 949 q 766 963 768 956 q 764 972 764 969 q 760 982 764 974 q 757 992 757 990 q 752 1003 757 993 q 746 1013 747 1013 q 752 1084 740 1058 q 811 1110 764 1110 q 846 1094 833 1100 q 874 1076 858 1088 q 897 1048 889 1064 q 907 1011 906 1032 q 908 871 907 963 q 908 738 908 779 q 868 429 893 657 q 949 314 888 361 z "},"":{"ha":1272,"x_min":46,"x_max":1197,"o":"m 132 11 q 109 18 117 11 q 95 42 101 25 q 86 63 89 58 q 96 221 47 131 q 182 402 119 264 q 290 610 244 540 q 379 1003 394 767 q 379 1043 379 1024 q 392 1076 379 1063 q 432 1090 406 1090 q 478 1071 461 1092 q 499 1019 494 1050 q 506 969 500 1003 q 514 913 511 935 q 517 863 517 892 q 511 813 517 835 q 583 624 472 667 q 630 617 614 614 q 656 638 646 621 q 671 673 667 656 q 683 711 675 690 q 704 742 692 732 q 735 835 729 785 q 733 926 740 885 q 710 1021 726 968 q 718 1039 714 1028 q 726 1058 722 1050 q 735 1074 731 1065 q 747 1088 740 1083 q 763 1097 754 1093 q 784 1101 771 1101 q 813 1094 797 1100 q 846 1071 838 1086 q 849 1040 854 1056 q 844 1007 844 1024 q 851 978 843 990 q 839 815 876 894 q 886 689 803 740 q 1006 739 958 643 l 1007 740 q 1035 772 1025 756 q 1046 810 1044 788 q 1047 844 1047 832 q 1042 884 1047 856 q 1036 921 1038 913 q 1046 930 1042 925 q 1051 941 1050 935 q 1054 951 1053 947 q 1054 961 1056 954 q 1053 971 1053 968 q 1049 981 1053 974 q 1045 990 1046 989 q 1040 1001 1044 992 q 1035 1011 1035 1011 q 1040 1083 1028 1057 q 1100 1108 1051 1108 q 1134 1092 1122 1099 q 1162 1074 1146 1086 q 1185 1047 1178 1063 q 1194 1010 1193 1032 q 1196 876 1196 967 q 1197 738 1196 785 q 1054 564 1138 608 q 839 549 971 519 q 776 556 806 560 q 719 525 746 553 q 607 472 672 478 q 503 501 542 465 q 480 521 490 513 q 461 535 469 529 q 444 542 453 542 q 431 544 436 542 q 419 541 426 547 q 410 534 413 535 q 400 522 407 533 q 392 508 393 510 q 382 489 390 506 q 371 469 374 472 q 319 374 357 440 q 263 272 282 308 q 222 176 244 235 q 192 65 200 118 q 132 11 182 10 z "},"":{"ha":1078,"x_min":74,"x_max":1003,"o":"m 988 818 q 994 729 992 776 q 999 621 997 682 q 1003 531 1001 560 q 993 413 996 451 q 935 231 979 367 q 784 168 883 208 q 639 110 685 128 q 635 123 638 114 q 630 137 632 132 q 624 149 628 142 q 613 155 619 156 q 597 151 607 154 q 578 134 583 146 q 574 103 574 122 q 571 75 574 83 q 509 4 538 42 q 454 -83 481 -33 q 413 -163 428 -133 q 371 -258 399 -193 q 333 -342 343 -322 q 272 -444 303 -411 q 203 -474 240 -476 q 119 -432 165 -472 q 89 -274 108 -371 q 175 -168 108 -250 l 175 -167 q 219 -106 208 -133 q 214 -55 231 -79 q 146 -15 197 -31 q 117 31 136 1 q 89 75 99 61 q 80 244 75 144 q 95 410 85 343 q 120 576 106 478 q 139 743 135 675 q 140 810 143 774 q 121 874 136 846 q 146 925 133 899 q 219 924 192 932 q 257 888 246 915 q 270 838 268 860 q 272 774 272 817 q 272 762 272 774 q 272 744 272 750 l 272 743 l 272 742 l 272 740 l 272 739 l 272 738 l 272 736 l 272 735 l 272 733 l 272 732 l 272 731 l 272 729 l 272 728 l 272 726 l 272 725 l 272 724 l 272 722 l 272 721 l 271 719 l 271 718 l 271 717 l 271 715 l 271 714 l 271 713 l 271 711 l 271 710 l 271 708 l 271 707 l 271 706 l 271 704 l 271 703 l 271 701 l 271 700 l 271 699 l 271 697 l 271 696 l 271 694 l 271 693 l 271 692 l 271 690 l 271 689 l 271 688 l 271 686 l 271 685 l 271 683 l 271 682 l 271 681 l 271 679 l 271 678 l 271 676 l 271 675 l 271 674 l 271 672 l 271 671 l 271 669 l 271 668 l 271 667 l 271 665 l 271 664 l 271 663 l 271 661 l 271 660 l 271 658 l 271 657 l 271 656 l 271 654 l 269 651 l 269 650 l 269 649 l 269 647 l 269 646 l 269 644 l 269 643 l 269 642 l 269 640 l 269 639 l 269 638 l 269 636 l 269 635 l 269 633 l 269 632 l 269 631 l 269 629 l 269 628 l 269 626 l 269 625 l 269 624 l 269 622 l 269 621 l 269 619 l 269 618 l 269 617 l 269 615 l 269 614 l 269 613 l 269 611 l 269 610 l 269 608 l 269 607 l 269 606 l 269 604 l 269 603 l 269 601 l 269 600 l 269 599 l 269 597 l 269 596 l 269 594 l 269 593 l 269 592 l 269 590 l 269 589 l 269 588 l 269 586 l 269 585 l 268 583 l 268 582 l 268 581 l 268 579 l 268 578 l 268 576 l 268 575 l 268 574 l 268 572 l 268 571 l 268 569 l 268 568 l 268 567 l 268 565 l 268 564 l 268 563 l 268 561 l 268 558 q 238 476 244 524 q 234 389 231 429 q 230 300 238 349 q 199 214 222 251 q 205 170 188 197 q 248 126 222 143 q 283 115 274 108 q 348 141 306 129 q 421 161 390 153 q 478 198 451 169 q 507 275 504 226 q 517 439 507 282 q 533 559 531 494 q 530 674 535 624 q 515 796 525 725 q 535 824 531 808 q 538 864 539 839 q 536 896 536 889 q 550 909 536 896 q 571 929 564 922 q 606 926 593 928 q 634 917 618 925 q 661 896 650 910 q 658 743 658 844 q 651 562 657 642 q 625 411 644 482 q 693 263 589 279 q 779 280 740 256 q 839 360 818 304 q 873 524 868 440 q 865 731 878 607 q 849 894 851 854 q 945 902 910 922 q 988 818 981 882 z "},"":{"ha":896,"x_min":54,"x_max":836,"o":"m 172 457 q 233 515 193 476 q 306 585 274 553 q 364 647 339 617 q 447 712 411 674 q 507 799 482 750 q 546 889 532 849 q 578 990 560 929 q 583 1010 579 996 q 589 1031 588 1025 q 596 1047 590 1036 q 607 1061 601 1057 q 622 1069 613 1065 q 643 1073 631 1072 q 666 1072 656 1074 q 683 1067 676 1069 q 694 1056 689 1064 q 701 1045 699 1049 q 705 1029 703 1042 q 707 1014 707 1017 q 708 996 707 1011 q 708 979 708 981 q 608 706 690 825 q 383 485 525 588 q 362 468 381 482 q 338 451 343 454 q 315 433 332 447 q 292 413 299 419 q 272 392 286 407 q 253 369 258 378 q 239 344 247 360 q 227 315 231 329 q 222 285 224 301 q 219 250 219 268 q 275 160 207 174 q 358 140 299 154 q 449 121 417 126 q 531 112 482 115 q 622 119 579 108 q 706 153 664 131 q 706 151 706 153 q 825 131 778 178 q 792 -54 835 50 q 720 -46 764 -64 q 671 -28 676 -28 q 521 0 600 -7 q 338 7 442 7 q 186 8 233 7 q 179 37 183 18 q 169 69 175 56 q 157 92 164 82 q 74 219 92 161 q 79 333 56 278 q 172 457 103 389 z "},"":{"ha":907,"x_min":65,"x_max":838,"o":"m 838 150 q 835 133 836 144 q 830 90 832 104 q 822 51 828 75 q 810 15 817 26 q 790 -10 803 4 q 759 -27 776 -24 q 717 -28 742 -31 q 660 -15 692 -26 q 590 -12 633 -19 q 511 -7 547 -6 q 444 -32 475 -8 q 412 -94 438 -64 q 361 -144 386 -124 q 314 -196 336 -164 q 290 -264 292 -228 q 264 -365 296 -328 q 171 -406 232 -403 q 117 -385 132 -407 q 95 -324 101 -362 q 79 -269 89 -285 q 70 -224 65 -249 q 87 -178 75 -199 q 115 -146 99 -158 q 192 -51 175 -99 q 187 40 208 -3 q 110 129 165 83 q 74 215 81 168 q 73 294 67 261 q 94 381 79 326 q 113 461 108 435 q 193 541 143 500 q 285 610 243 582 q 374 681 328 639 q 450 769 421 724 q 498 833 458 782 q 552 920 538 883 q 564 1001 567 957 q 613 1101 560 1082 q 639 1106 626 1106 q 659 1103 651 1106 q 678 1092 667 1101 q 692 1078 689 1082 q 708 1060 696 1075 q 721 1043 719 1044 q 677 898 697 957 q 624 767 657 839 q 547 638 592 696 q 443 532 501 579 q 383 503 410 526 q 342 453 357 479 q 301 400 326 428 q 246 361 275 372 q 224 323 231 354 q 233 256 217 292 q 290 208 249 221 q 335 192 308 204 q 379 174 363 181 q 425 163 396 168 q 474 168 454 158 q 565 151 514 151 q 656 159 615 151 q 747 167 696 167 q 838 150 797 167 z "},"":{"ha":808,"x_min":58,"x_max":736,"o":"m 736 374 q 732 179 733 247 q 569 63 650 106 q 393 14 488 21 q 128 70 197 0 q 74 342 60 140 q 401 724 207 561 q 443 765 428 749 q 473 810 458 782 q 490 867 488 838 q 510 893 497 875 q 531 919 524 911 q 551 955 542 932 q 565 998 560 978 q 579 1040 569 1018 q 603 1073 589 1063 q 642 1087 617 1083 q 706 1074 668 1090 q 714 929 714 946 q 680 848 703 889 q 637 781 657 807 q 579 713 617 756 q 526 650 542 669 q 479 606 510 631 q 427 563 449 581 q 387 515 406 546 q 367 447 368 485 q 334 442 349 447 q 308 424 319 436 q 291 403 297 413 q 274 375 285 393 q 258 350 264 357 q 244 335 256 343 q 225 320 233 326 q 210 306 217 314 q 206 286 203 299 q 221 258 208 274 q 339 140 254 156 q 550 199 424 125 q 529 411 656 315 q 538 463 531 443 q 556 490 544 482 q 578 500 568 497 q 608 496 589 503 q 640 483 628 489 q 675 464 651 476 q 685 431 681 454 q 701 392 690 407 q 736 374 711 376 z "},"":{"ha":999,"x_min":61,"x_max":933,"o":"m 611 404 q 728 408 654 406 q 845 410 799 411 q 913 385 892 408 q 930 313 933 363 q 899 168 926 264 q 888 160 896 167 q 876 150 879 153 q 865 143 872 147 q 852 139 857 139 q 841 140 847 139 q 828 148 835 142 q 815 164 822 154 q 815 175 815 168 q 813 207 814 196 q 808 236 813 218 q 797 263 804 254 q 776 281 790 272 q 743 289 763 289 q 575 165 592 299 q 508 22 592 67 q 373 -1 463 15 q 240 -24 283 -17 q 194 -19 224 -22 q 150 -15 164 -17 q 76 113 90 42 q 87 264 63 185 q 171 439 111 343 q 228 513 190 461 q 297 600 265 564 q 363 660 328 636 q 574 1107 590 821 q 620 1106 590 1107 q 654 1104 650 1104 q 670 1002 676 1058 q 647 906 664 946 q 613 810 629 865 q 600 713 597 756 q 593 707 599 711 q 551 676 565 688 q 524 642 538 665 q 508 592 510 619 q 445 543 488 574 q 372 483 403 513 q 325 417 342 454 q 306 413 311 414 q 292 408 301 413 q 278 397 282 404 q 276 376 275 389 q 256 322 275 360 q 246 257 236 283 q 246 238 246 250 q 245 215 246 225 q 244 194 244 204 q 265 152 253 167 q 293 138 276 138 q 325 144 310 138 q 363 163 340 150 q 423 199 396 174 q 468 254 450 224 q 504 315 486 285 q 549 371 522 346 q 611 404 576 396 z "},"":{"ha":1075,"x_min":61,"x_max":1006,"o":"m 704 969 q 694 924 701 947 q 678 871 688 901 q 664 826 668 840 q 425 558 499 642 q 392 534 415 550 q 355 503 369 518 q 335 467 340 488 q 299 431 324 453 q 261 392 275 408 q 235 353 247 376 q 225 303 222 331 q 246 246 228 276 q 399 183 307 175 q 417 172 408 175 q 437 169 426 168 q 454 173 447 171 q 474 181 461 175 q 492 190 486 188 q 606 238 569 172 q 683 361 650 321 q 760 413 717 401 q 852 406 804 425 q 976 338 900 388 q 998 255 992 289 q 1001 176 1004 221 q 976 93 997 132 q 840 39 913 58 q 707 14 768 19 q 567 13 646 8 q 433 26 489 18 q 292 48 376 35 q 157 67 208 61 q 124 110 146 81 q 89 153 101 139 q 72 306 61 231 q 143 451 83 382 q 279 640 221 542 q 351 693 303 661 q 431 747 400 725 q 490 811 461 769 q 525 904 518 853 q 540 933 529 914 q 557 968 550 953 q 565 997 564 983 q 667 1078 582 1093 q 697 1067 686 1075 q 710 1045 708 1058 q 712 1022 713 1032 q 708 994 711 1013 q 704 969 704 975 z "},"":{"ha":894,"x_min":60,"x_max":835,"o":"m 78 260 q 115 470 106 356 q 126 716 124 585 q 138 929 128 847 q 149 944 140 932 q 160 962 157 957 q 171 978 163 967 q 183 994 179 989 q 195 1008 188 999 q 208 1023 203 1017 q 222 1036 214 1029 q 238 1049 229 1043 q 254 1060 246 1054 q 299 1078 268 1071 q 352 1099 329 1086 q 383 1140 375 1113 q 499 1119 426 1103 q 561 1118 519 1118 q 626 1117 603 1118 q 685 1110 650 1117 q 744 1090 721 1103 q 791 1053 767 1078 q 832 990 815 1028 q 833 929 833 939 q 778 932 817 931 q 718 935 739 933 q 705 989 715 969 q 674 1011 694 1008 q 635 1010 654 1014 q 588 997 617 1007 q 519 1003 571 997 q 435 1003 468 1010 q 372 967 401 996 q 328 934 357 956 q 286 901 300 913 q 254 717 233 818 q 239 659 258 697 q 229 596 219 621 q 213 257 215 290 q 225 194 208 213 q 285 176 242 175 q 410 145 347 151 q 536 151 474 139 q 652 183 599 164 q 772 231 706 201 q 771 169 769 204 q 774 104 772 135 q 758 49 776 74 q 699 19 740 25 q 553 4 629 8 q 375 -1 476 0 q 228 -3 274 -1 q 101 78 172 33 q 78 260 60 169 z "},"":{"ha":1239,"x_min":75,"x_max":1190,"o":"m 1140 1143 q 1168 951 1189 1026 q 1046 811 1147 875 q 900 786 935 792 q 810 815 849 785 q 751 888 772 844 q 715 940 736 919 q 676 969 694 960 q 627 980 657 979 q 578 978 597 981 q 522 971 558 976 q 469 964 497 967 q 404 959 440 961 q 350 956 368 957 q 258 838 256 929 q 217 738 232 807 q 197 656 203 669 q 222 613 214 638 q 231 567 231 589 q 233 520 232 546 q 233 472 233 494 q 228 397 232 447 q 222 324 224 347 q 219 283 222 313 q 217 242 217 254 q 221 207 217 229 q 236 174 225 185 q 268 156 247 164 q 321 146 289 147 q 679 179 508 122 q 751 183 731 196 q 778 121 772 171 q 783 89 779 106 q 793 51 788 72 q 801 18 799 29 q 674 -35 744 -19 q 549 -50 604 -51 q 414 -39 493 -49 q 394 -35 410 -37 q 375 -33 379 -33 q 358 -33 371 -33 q 341 -33 346 -32 q 326 -37 336 -35 q 311 -44 317 -39 q 298 -56 306 -49 q 285 -72 290 -62 q 188 -24 228 -54 q 126 42 149 7 q 92 124 103 76 q 78 215 81 172 q 78 315 75 258 q 102 482 86 369 q 126 653 118 594 q 117 716 118 683 q 122 781 115 749 q 135 840 128 813 q 151 903 142 868 q 167 964 161 939 q 202 984 176 972 q 243 1010 228 996 q 264 1047 258 1024 q 306 1069 278 1054 q 349 1090 335 1083 q 434 1109 386 1104 q 511 1114 482 1114 q 601 1110 540 1114 q 682 1106 663 1107 q 698 1093 690 1097 q 714 1093 706 1089 q 726 1099 722 1097 q 739 1112 729 1101 q 750 1124 749 1122 q 942 1236 860 1232 q 1140 1143 1025 1240 z "},"":{"ha":1056,"x_min":51,"x_max":997,"o":"m 572 233 q 566 164 575 194 q 543 115 557 133 q 504 80 529 96 q 459 56 479 64 q 406 37 439 49 q 356 17 374 25 q 325 11 349 15 q 270 15 307 14 q 211 19 233 17 q 161 37 189 22 q 115 79 133 51 q 113 115 111 97 q 110 151 115 132 q 88 181 104 169 q 78 321 53 238 q 153 418 126 382 q 213 512 179 454 q 267 624 247 569 q 325 653 300 629 q 373 710 350 678 q 417 757 396 742 q 488 812 457 776 q 534 877 518 847 q 574 960 550 907 q 613 1043 597 1014 q 519 1052 572 1043 q 428 1069 465 1061 q 345 1074 392 1076 q 258 1053 299 1072 q 227 1029 247 1044 q 203 1011 207 1014 q 161 1017 190 1013 q 117 1025 132 1022 q 101 1095 106 1068 q 94 1160 96 1122 q 106 1231 93 1199 q 143 1293 118 1264 q 221 1283 179 1297 q 294 1253 263 1269 q 368 1228 325 1236 q 447 1235 411 1219 q 538 1237 478 1236 q 629 1238 599 1238 q 690 1238 649 1238 q 751 1240 731 1239 q 813 1231 781 1226 q 872 1247 846 1235 q 931 1266 899 1260 q 992 1261 964 1272 q 996 1195 994 1215 q 996 1144 997 1175 q 994 1103 994 1114 q 987 1074 994 1092 q 975 1053 979 1057 q 954 1043 971 1050 q 927 1037 938 1036 q 889 1039 917 1038 q 842 1043 861 1040 q 781 1053 822 1046 q 761 1056 775 1054 q 742 1059 747 1058 q 728 1059 738 1060 q 713 1053 718 1058 q 701 1040 707 1049 q 690 1017 696 1031 q 656 903 675 961 q 608 767 636 846 q 568 656 579 689 q 472 602 518 638 q 396 533 425 567 q 325 448 367 499 q 256 369 283 397 q 219 272 219 333 q 263 182 218 211 q 330 160 296 161 q 398 183 364 158 q 451 258 432 207 q 578 409 492 363 q 782 444 664 456 q 806 444 792 444 q 831 443 821 443 q 856 442 842 443 q 879 438 869 440 q 900 432 889 436 q 918 422 911 428 q 931 407 925 417 q 940 385 938 397 q 943 357 943 374 q 939 319 943 340 q 932 282 943 297 q 901 253 921 267 q 872 231 881 240 q 844 285 863 263 q 799 317 825 307 q 749 330 774 326 q 690 333 724 333 q 608 299 646 332 q 572 233 569 265 z "},"":{"ha":978,"x_min":67,"x_max":903,"o":"m 603 1033 q 679 938 638 969 q 786 913 721 907 q 874 783 846 853 q 901 640 901 713 q 891 499 900 567 q 874 351 882 432 q 871 210 865 269 q 860 107 875 165 q 858 65 853 88 q 853 25 864 42 q 807 13 842 8 q 722 108 704 25 q 725 132 725 119 q 724 160 725 144 q 722 183 722 175 q 744 250 743 215 q 737 331 746 285 q 728 399 728 378 q 758 510 751 451 q 756 620 764 569 q 732 732 749 671 q 682 801 711 779 q 606 815 653 824 q 555 820 590 814 q 494 822 519 826 q 446 796 468 818 q 405 772 432 783 q 357 754 378 761 q 319 727 336 747 q 301 674 301 707 q 273 626 278 651 q 276 581 268 600 q 294 533 283 561 q 306 488 304 506 q 267 440 276 469 q 263 385 258 411 q 264 326 267 358 q 244 274 261 294 q 237 173 226 244 q 238 72 247 101 q 224 53 233 65 q 211 33 215 40 q 113 59 146 31 q 86 153 81 88 q 94 174 97 161 q 116 238 114 200 q 113 304 118 275 q 67 399 108 376 q 85 434 68 404 q 96 485 103 464 q 115 531 111 507 q 117 590 119 556 q 117 639 115 625 q 146 714 124 678 q 192 774 168 750 q 249 830 215 797 q 301 885 282 863 q 350 911 318 899 q 405 933 382 924 q 446 968 428 943 q 463 1031 464 993 q 478 1059 465 1036 q 497 1091 490 1082 q 518 1110 503 1100 q 551 1122 533 1121 q 588 1109 579 1124 q 598 1069 597 1094 q 603 1033 599 1043 z "},"":{"ha":1282,"x_min":83,"x_max":1219,"o":"m 451 768 q 364 707 435 753 q 268 619 293 661 q 243 587 253 606 q 229 556 233 568 q 224 518 225 543 q 224 484 224 493 q 228 444 225 475 q 232 408 232 414 q 207 336 210 376 q 214 261 204 296 q 225 185 224 226 q 213 110 226 143 q 201 78 207 99 q 190 45 194 57 q 171 24 185 33 q 136 18 157 15 q 115 23 124 19 q 101 36 107 26 q 93 51 96 46 q 89 73 90 57 q 88 92 88 89 q 88 114 88 96 q 86 208 88 129 q 85 313 85 288 q 88 403 85 338 q 97 506 90 469 q 115 595 103 543 q 147 693 128 647 q 172 752 163 733 q 198 802 181 771 q 237 853 215 833 q 285 883 258 872 q 310 895 289 886 q 337 906 332 904 q 360 918 342 908 q 384 932 379 928 q 403 946 389 936 q 423 963 418 956 q 438 983 428 971 q 451 1007 447 994 q 460 1035 456 1019 q 467 1068 465 1050 q 493 1103 469 1094 q 539 1099 517 1111 q 563 1061 561 1086 q 576 999 565 1025 q 603 957 588 972 q 642 931 618 942 q 686 915 667 919 q 736 904 706 911 q 783 892 767 897 q 828 817 813 865 q 859 722 843 768 q 908 650 875 675 q 948 623 926 629 q 983 619 969 617 q 1025 633 997 622 q 1061 646 1053 643 q 1149 642 1088 644 q 1201 585 1183 617 q 1217 519 1218 554 q 1211 456 1217 483 q 1194 389 1206 428 q 1179 333 1182 350 q 1133 279 1169 292 q 1052 288 1096 267 q 981 354 1008 308 q 874 414 932 433 q 848 390 853 407 q 847 345 843 372 q 849 306 850 318 q 848 207 840 251 q 850 108 856 163 q 817 11 844 53 q 765 18 785 10 q 737 45 744 26 q 727 83 729 64 q 726 132 725 101 q 730 199 726 151 q 733 272 733 246 q 730 336 733 297 q 713 407 726 375 q 678 468 700 439 q 667 484 671 476 q 665 500 664 492 q 665 513 665 508 q 671 526 665 517 q 678 538 676 535 q 687 550 679 540 q 694 561 694 560 q 724 607 713 583 q 738 653 735 631 q 730 694 742 675 q 690 721 718 713 q 633 748 669 728 q 569 781 596 768 q 510 794 543 794 q 451 768 478 793 z "},"":{"ha":1257,"x_min":78,"x_max":1189,"o":"m 267 868 q 419 929 371 910 q 471 950 460 928 q 479 1011 482 972 q 508 1097 475 1076 q 604 1110 540 1117 q 623 974 592 1021 q 751 914 654 926 q 788 904 771 911 q 817 883 804 897 q 840 857 831 868 q 860 823 850 846 q 876 789 871 800 q 891 750 881 778 q 904 715 901 722 q 899 442 900 549 q 882 411 888 428 q 874 382 876 394 q 873 349 872 369 q 875 319 874 329 q 881 285 876 308 q 886 256 885 263 q 888 235 888 249 q 890 213 889 222 q 892 191 890 203 q 899 172 894 179 q 913 160 904 165 q 937 156 922 154 q 971 164 951 157 q 1009 216 975 169 q 1061 286 1043 263 q 1090 276 1069 283 q 1121 265 1111 268 q 1145 226 1143 253 q 1151 173 1147 199 q 1178 136 1154 147 q 1183 62 1178 111 q 1187 -27 1189 13 q 1167 -101 1185 -67 q 1118 -135 1125 -106 q 1044 -132 1094 -147 q 968 -135 993 -117 q 926 -92 949 -107 q 874 -74 904 -76 q 826 -73 844 -72 q 769 -80 807 -74 q 718 -87 732 -86 q 678 -65 694 -78 q 649 -42 661 -53 q 631 -15 638 -31 q 622 11 625 0 q 620 41 618 22 q 624 70 622 60 q 632 101 625 81 q 643 131 639 122 q 657 163 647 140 q 671 194 667 186 q 693 203 683 192 q 728 245 718 219 q 735 289 738 271 q 725 342 733 307 q 724 350 725 347 q 749 442 765 378 q 763 547 754 476 q 778 654 772 618 q 781 708 782 686 q 769 744 781 729 q 744 766 757 758 q 711 779 731 774 q 674 788 692 785 q 637 797 657 792 q 604 810 617 801 q 354 747 478 858 q 341 735 351 744 q 326 722 331 726 q 279 655 293 693 q 268 580 265 617 q 272 501 271 543 q 251 448 258 478 q 243 399 244 418 q 242 340 242 381 q 243 289 243 300 q 242 228 242 269 q 240 197 242 208 q 234 140 235 172 q 236 76 233 107 q 220 27 239 46 q 158 11 201 8 q 106 28 125 14 q 83 67 88 42 q 80 113 79 92 q 85 169 81 135 q 89 219 89 203 q 92 251 100 240 q 111 501 99 336 q 113 526 117 519 q 99 544 110 533 q 86 563 89 556 q 115 643 110 583 q 146 725 119 703 q 206 795 165 747 q 267 868 246 843 z "},"":{"ha":1121,"x_min":75,"x_max":1054,"o":"m 1049 103 q 1054 -19 1051 21 q 1053 -50 1053 -40 q 1047 -149 1047 -81 q 1035 -268 1046 -218 q 989 -360 1024 -318 q 881 -369 951 -362 q 778 -378 810 -375 l 776 -376 l 775 -375 l 774 -374 l 772 -372 l 771 -371 l 769 -369 l 768 -368 l 767 -367 l 765 -365 l 764 -364 l 763 -362 l 761 -361 l 760 -361 l 758 -360 l 757 -358 l 756 -357 l 754 -356 l 753 -354 l 751 -353 l 750 -351 l 749 -350 l 747 -349 l 746 -347 l 744 -346 l 743 -344 l 742 -343 l 740 -342 l 739 -340 l 738 -339 l 736 -337 l 735 -336 l 733 -335 l 732 -333 l 731 -332 l 729 -331 l 728 -329 l 726 -328 l 725 -328 l 724 -325 l 722 -324 l 721 -322 l 718 -321 q 708 -274 706 -300 q 717 -229 710 -247 q 733 -185 724 -211 q 743 -140 742 -160 q 731 -60 757 -108 q 708 11 706 -11 q 723 122 714 50 q 735 222 732 193 q 772 610 768 575 q 758 690 778 663 q 686 715 739 717 q 535 790 615 782 q 386 748 454 799 q 282 600 318 697 q 258 467 275 549 q 235 326 242 386 q 232 192 229 265 q 235 151 233 179 q 239 108 238 124 q 238 72 240 93 q 226 38 235 50 q 201 17 218 26 q 158 8 183 8 q 98 27 117 8 q 80 78 79 46 q 87 143 81 110 q 99 215 93 176 q 100 278 104 254 q 100 310 100 288 q 101 357 100 339 q 101 406 101 375 q 111 433 114 419 q 102 456 108 447 q 87 476 96 464 q 75 497 78 489 q 94 508 86 501 q 123 540 114 519 q 133 575 132 560 q 133 619 135 590 q 164 711 172 658 q 190 803 171 738 q 224 835 201 814 q 257 867 246 857 q 351 911 299 886 q 379 924 367 913 q 404 926 389 925 l 399 926 q 450 947 439 925 q 458 1008 461 969 q 487 1094 454 1074 q 583 1107 519 1114 q 589 987 572 1033 q 658 918 606 940 q 774 896 726 910 q 903 749 868 828 q 903 565 939 671 q 887 453 890 528 q 881 358 883 378 q 883 269 872 308 q 921 199 893 229 q 976 148 949 168 q 1049 103 1004 128 z "},"":{"ha":1049,"x_min":76,"x_max":992,"o":"m 864 450 q 877 424 865 447 q 894 389 889 401 q 901 345 890 365 q 928 313 913 325 q 959 281 944 300 q 976 238 974 261 q 892 23 990 78 q 596 28 794 -32 q 586 117 588 50 q 561 215 585 183 q 568 233 568 224 q 611 304 582 268 q 669 370 640 340 q 723 435 697 400 q 761 517 749 471 q 768 618 774 564 q 719 751 758 704 q 618 825 681 797 q 371 761 439 903 q 257 663 261 771 q 254 542 254 583 q 228 436 231 497 q 232 329 226 375 q 222 58 229 239 q 192 52 213 57 q 159 47 171 47 q 131 47 147 46 q 101 58 114 49 q 76 83 88 67 q 88 219 79 128 q 100 380 96 310 q 103 514 104 450 q 177 792 99 674 q 404 963 256 911 q 410 964 407 963 q 431 972 424 968 q 443 985 438 975 q 447 1011 449 996 q 444 1064 444 1043 q 453 1094 443 1085 q 471 1108 463 1104 q 496 1109 479 1111 q 526 1103 513 1107 q 557 1094 539 1099 q 586 1088 575 1089 q 586 1038 583 1061 q 597 997 589 1014 q 627 969 604 979 q 688 958 650 958 q 729 944 707 958 q 779 906 751 931 q 821 871 807 881 q 844 800 835 838 q 858 735 853 763 q 865 660 863 707 q 867 594 867 614 q 865 519 867 574 q 864 450 864 464 z "},"":{"ha":968,"x_min":81,"x_max":897,"o":"m 206 28 q 100 28 154 -6 q 91 239 81 89 q 93 450 101 389 q 90 604 92 526 q 137 669 117 631 q 165 733 157 708 q 188 811 174 758 q 231 859 203 835 q 283 903 258 883 q 331 947 308 922 q 365 1006 354 971 q 369 1085 376 1042 q 373 1110 368 1103 q 389 1117 378 1118 q 410 1111 400 1115 q 437 1099 421 1107 q 458 1089 453 1092 q 477 1046 471 1060 q 498 1011 483 1032 q 533 982 513 990 q 581 974 553 974 q 701 971 650 929 q 785 919 731 953 q 854 876 839 886 q 856 834 858 854 q 859 792 853 814 q 885 754 865 769 q 886 613 896 697 q 868 472 876 529 q 878 331 860 414 q 856 250 860 296 q 856 167 851 204 q 854 86 861 131 q 833 64 838 68 q 812 48 828 60 q 786 35 796 36 q 761 38 776 35 q 731 54 746 42 q 701 268 721 126 l 703 268 q 731 363 731 297 q 739 447 732 428 q 747 510 750 486 q 735 572 743 533 q 729 633 728 610 q 685 798 728 743 q 564 844 642 853 q 455 822 503 836 q 363 782 407 808 q 289 710 318 756 q 246 603 260 665 q 242 175 211 415 q 224 103 236 153 q 206 28 213 54 z "},"":{"ha":1132,"x_min":72,"x_max":1057,"o":"m 942 900 q 1028 770 1001 840 q 1056 627 1056 700 q 1046 487 1056 554 q 1028 338 1036 419 q 1025 197 1019 257 q 1014 94 1031 153 q 1013 52 1007 75 q 1007 13 1018 29 q 961 0 996 -4 q 878 96 858 13 q 879 119 879 107 q 878 147 879 132 q 876 171 878 163 q 899 238 897 203 q 891 319 900 272 q 882 386 882 365 q 912 498 906 439 q 910 608 918 557 q 886 719 903 658 q 836 789 865 767 q 761 803 807 811 q 709 808 744 801 q 648 810 674 814 q 601 783 622 806 q 559 760 586 771 q 511 742 532 749 q 473 715 490 735 q 456 661 456 694 q 427 613 432 639 q 430 568 422 588 q 448 521 438 549 q 460 475 458 493 q 422 431 432 458 q 416 377 413 403 q 418 320 419 351 q 403 269 417 289 q 411 206 406 249 l 411 204 l 413 203 l 413 201 l 413 200 l 413 199 l 413 197 l 413 196 l 413 194 l 413 193 l 414 192 l 414 190 l 414 189 l 414 188 l 414 186 l 414 185 l 414 183 l 414 182 l 415 181 l 415 179 l 415 178 l 415 176 l 415 175 l 415 174 l 415 172 l 415 171 l 417 169 l 417 168 l 417 167 l 417 165 l 417 164 l 417 163 l 417 161 l 417 160 l 418 158 l 418 157 q 397 90 421 133 q 392 60 396 72 q 385 50 390 57 q 378 40 381 43 q 383 6 376 21 q 394 -40 385 -14 q 410 -83 403 -65 q 419 -128 417 -101 q 408 -175 421 -154 q 349 -232 390 -192 q 240 -223 311 -229 q 138 -214 169 -217 q 92 -122 103 -172 q 80 -3 81 -72 q 74 96 79 65 q 73 111 74 101 q 72 126 72 121 q 78 249 74 169 q 141 285 118 271 q 193 324 164 300 q 239 375 222 349 q 244 392 240 379 q 250 413 249 406 q 253 431 251 419 q 255 452 256 442 q 251 472 254 463 q 269 519 265 494 q 272 578 274 543 q 271 626 269 613 q 300 702 278 665 q 346 762 322 739 q 403 817 369 785 q 456 872 438 850 q 505 899 472 886 q 560 921 538 911 q 600 956 582 931 q 618 1018 618 981 q 633 1047 621 1024 q 651 1079 644 1071 q 672 1098 657 1088 q 706 1110 688 1108 q 742 1097 733 1111 q 752 1056 751 1082 q 758 1021 753 1031 q 834 926 792 957 q 942 900 876 894 z "},"":{"ha":1385,"x_min":64,"x_max":1314,"o":"m 1307 185 q 1311 142 1314 163 q 1306 108 1308 122 q 1294 81 1304 94 q 1274 60 1283 68 q 1248 43 1265 51 q 1215 28 1231 35 q 1178 15 1200 22 q 1072 3 1111 -1 q 972 19 1033 8 q 872 26 911 29 q 853 24 867 26 q 817 6 844 6 q 822 -33 810 -6 q 836 -67 835 -60 q 754 -199 779 -157 q 703 -224 738 -206 q 643 -251 669 -242 q 593 -261 617 -261 q 531 -272 557 -261 q 489 -295 504 -282 q 464 -334 474 -308 q 450 -380 454 -360 q 442 -433 446 -400 q 419 -440 429 -431 q 282 -340 292 -444 q 418 -131 265 -176 l 419 -131 q 451 -123 428 -128 q 487 -114 475 -118 q 515 -100 499 -110 q 542 -74 532 -90 q 608 -65 582 -75 q 649 -38 635 -54 q 667 3 663 -22 q 671 53 672 28 q 664 111 669 78 q 686 150 671 119 q 685 199 686 160 q 686 255 685 239 q 694 300 688 271 q 713 351 700 329 q 725 379 719 365 q 725 393 725 393 q 755 505 749 446 q 753 615 761 564 q 729 726 746 665 q 679 796 708 774 q 603 810 650 818 q 552 815 588 808 q 491 817 517 821 q 443 790 465 813 q 402 767 429 778 q 354 749 375 756 q 316 722 333 742 q 299 668 299 701 q 270 620 275 646 q 273 575 265 594 q 291 528 281 556 q 303 482 301 500 q 265 435 274 464 q 260 379 256 406 q 261 321 264 353 q 242 268 258 289 q 234 167 224 239 q 235 65 244 96 q 222 47 231 60 q 208 28 213 33 q 110 53 143 25 q 83 147 78 82 q 92 168 94 156 q 113 232 111 194 q 110 299 115 269 q 64 393 106 369 q 83 428 65 399 q 93 479 100 458 q 113 526 108 501 q 115 585 117 550 q 114 633 113 619 q 143 708 121 672 q 189 768 165 744 q 246 824 213 792 q 299 879 279 857 q 347 906 315 893 q 402 928 379 918 q 443 963 425 938 q 460 1025 461 988 q 475 1053 463 1031 q 494 1085 488 1076 q 515 1105 500 1094 q 549 1117 531 1115 q 585 1103 576 1118 q 595 1063 594 1089 q 600 1028 596 1038 q 676 933 635 964 q 783 907 718 901 q 869 780 842 849 q 898 640 897 711 q 890 503 899 568 q 872 358 882 438 q 867 219 863 278 q 915 206 883 206 q 988 217 947 207 q 1101 249 1029 226 q 1124 263 1117 253 q 1131 281 1131 272 q 1140 301 1132 290 q 1165 318 1149 311 q 1236 326 1208 333 q 1278 295 1264 318 q 1299 248 1293 272 q 1307 204 1306 224 l 1307 185 z "}}}
